<?xml version="1.0" encoding="utf-8"?>
<!-- Generator: Adobe Illustrator 21.0.0, SVG Export Plug-In . SVG Version: 6.00 Build 0)  -->
<svg version="1.1" id="Layer_1" xmlns="http://www.w3.org/2000/svg" xmlns:xlink="http://www.w3.org/1999/xlink" x="0px" y="0px"
	 viewBox="0 0 450 450" style="enable-background:new 0 0 450 450;" xml:space="preserve">
<style type="text/css">
	.st0{fill:url(#SVGID_1_);}
	.st1{fill:url(#SVGID_2_);}
	.st2{fill:url(#SVGID_3_);}
	.st3{fill:#6597EF;}
	.st4{fill:#D19780;}
	.st5{fill:#26282D;}
	.st6{fill:#4A75DD;}
	.st7{fill:#EFC4BD;}
	.st8{fill:#E0AC9B;}
	.st9{fill:#931F00;}
	.st10{fill:#C12900;}
	.st11{fill:#0D0D4C;}
	.st12{fill:#E5B1A5;}
	.st13{fill:#FFFFFF;}
	.st14{fill:#5B250E;}
	.st15{fill:#173884;}
	.st16{fill:#BEC8D2;}
	.st17{fill:#D5D7DB;}
	.st18{fill:url(#SVGID_4_);}
	.st19{fill:url(#SVGID_5_);}
	.st20{fill:#873F26;}
	.st21{fill:url(#SVGID_6_);}
	.st22{fill:#BA784A;}
</style>
<g>
	<linearGradient id="SVGID_1_" gradientUnits="userSpaceOnUse" x1="289.7263" y1="127.9461" x2="287.5244" y2="346.3986">
		<stop  offset="0" style="stop-color:#FFFFFF"/>
		<stop  offset="0.4195" style="stop-color:#BBBBBB"/>
		<stop  offset="0.7802" style="stop-color:#878787"/>
		<stop  offset="0.956" style="stop-color:#737373"/>
	</linearGradient>
	<polygon class="st0" points="352.5,225.2 222.5,225.2 191.7,253.7 191.5,253.7 190.2,262.3 212.9,262.3 199.4,351.7 208.8,351.7 
		222.5,274.7 356.9,274.7 371.3,352.8 380.7,352.8 368,262.3 386.6,262.3 385.3,253.7 	"/>
	<linearGradient id="SVGID_2_" gradientUnits="userSpaceOnUse" x1="336.4003" y1="109.7272" x2="389.8986" y2="291.7239">
		<stop  offset="0" style="stop-color:#FFFFFF"/>
		<stop  offset="0.4195" style="stop-color:#BBBBBB"/>
		<stop  offset="0.7802" style="stop-color:#878787"/>
		<stop  offset="0.956" style="stop-color:#737373"/>
	</linearGradient>
	<path class="st1" d="M422.9,255.9l3.8-56.2c-0.2-6.4-1.9-8.8-8.6-8.8c-9.1,0-19.4-0.5-20.6,7l-0.8,8.8c-0.8-3.3-2-6-5.1-10.3
		c-0.5-0.8-1.2-1.7-1.9-2.5c-0.2-0.3-0.4-0.5-0.6-0.7c0,0-0.1-0.1-0.1-0.1c-0.4-0.5-0.7-0.9-1.1-1.4l-2.8-4.5l-1.2,0.9
		c0-0.1-0.1-0.1-0.1-0.2c0-0.1,0.1-0.1,0.2-0.3c2.5-3.5,15.4-13.4,12.1-19.2c-2.3-4.1-6-6-8.5-5.1c-0.7,0-1.4,0.1-1.9,0.3
		c-0.8-0.5-1.6-1.1-2.6-1.6c-7-3.6-16.7,0.2-18.2,4c0-0.1-0.1-0.2-0.1-0.2c-0.9,0.9-1.4,2.2-0.4,4c-0.4,0.9-0.7,1.8-1,2.9
		c-0.4,1.5,0.5,2.5,0.4,3.9c-0.4,0.7-1.6,2.6-2.2,3.5c-0.2,0.6,0.7,1.7,1.6,2.1c0.3,4.2,0.6,7.9,5.2,7.6c1-0.1,2.1-0.3,3.1-0.5
		c1.6,2.2,2.7,4.5,2.8,6.1c0,0.2,0.1,0.5,0.1,0.7l-2.7,2.2l1.4,2.3l-2.3,1.5c0,0-2.7,11-3.2,13.8c-0.2,0.7-0.3,1.3-0.4,1.9
		c-0.5,3.5,0.6,5.6,2.2,7.4c1.3,1.6,2.4,9.5,2.8,11.8c0.2,1.2,0.6,5.1,0.8,8.2c-0.2,0.1-0.4,0.2-0.6,0.2c-10.7,3.5-33.5,4.7-39,11.8
		c-2.5,3.2,2.3,20.6,6.8,31.2l6,5.6c1.5,3.2,4.6,16.5,4.5,17.8c-0.4,6.6-4.2,12.2-8.6,15.9c-0.3-0.2-0.6-0.3-0.6-0.3
		s-0.5,0.7-2.7,1.5c-2.2,0.8-1.5,3.5-0.9,4.4c0.6,0.9,9.7,2,12.2-0.8c1.8-2.1,3.3-4.8,4.6-6.2c0.4,0,1.1-0.1,1.9-0.2
		c0.7,2,0.6,7.4,0.6,7.4s0.1,0.3,1.6,0c-0.2-4.5,0.6-6.8,1.5-8.5c2.1-0.9,4-2.1,4.5-3.6c0.7-1.9,1.1-4,1.6-5.7l-0.6,16.8l1.5,0
		l2.1-17.5c1,2.1,2,4.8,2,4.8s0.2,0.3,1.4-0.5c-2.6-6.3-1.1-8.4-1.3-11.3c-0.1-1-0.4-1.9-0.8-2.7l3.5-28.4l26-1l12.8,44l1.9,0
		l-8.7-44.2l7.4-0.3l16.3,57.4l1.3,0l-11.3-57.7l-0.6-9.3l-0.2,0c0.2-0.4,0.2-0.8,0-1.2C421.4,262.6,423,259.6,422.9,255.9z"/>
	<linearGradient id="SVGID_3_" gradientUnits="userSpaceOnUse" x1="126.9532" y1="40.8112" x2="179.4518" y2="384.8062">
		<stop  offset="0" style="stop-color:#FFFFFF"/>
		<stop  offset="0.4195" style="stop-color:#BBBBBB"/>
		<stop  offset="0.7802" style="stop-color:#878787"/>
		<stop  offset="0.956" style="stop-color:#737373"/>
	</linearGradient>
	<path class="st2" d="M216.6,320.4c-1.2-0.1-2.5-0.1-3.8-0.2c-2-6.5-2.2-33.7-0.5-40.8c3.1-13.3,1.4-22.2-16.3-18
		c-2.1-2.2-4.7-4.5-6.4-5.1c-0.1,0-0.2,0-0.3,0c-1.7-0.7-3.3-1.2-4.7-1.5c-1.1-2.6-2.3-5.9-3.3-10c-0.6-2.5-1-7.8,0-13.5
		c0.5-16.3,11.5-11.8,4.7-20.9c-1.3-2.1-5-7.5-5.5-8.2c0,0.2-0.9,0.1-11-4.4l-1.5-3c0,0-0.6-0.3-1.6-0.7c-0.3-1-0.7-2-1.2-2.5
		c-0.3-0.1,3.7-2.2,4.8-2.3c2.7-0.3,4-5.9,3.6-13.4c-0.1-1.1-1-2.3-1.2-3.4c-0.2-1.4,0.2-4.2,0-5.5c-0.2-0.9-0.4-1.7-0.6-2.5
		c0.4-0.6,0.8-1.2,1.2-1.9c2.6-0.6,0.7-6.4,1.1-4.1c0.3,1.6-0.4,1.9-0.8,1.9c1.1-1.7-0.1-5-0.1-5c-3.8,4.5-16.8-7.9-28.1,0.3
		c-1.1,0.8,0.4,1.4-0.5,2.1c-7.7,6-7.6,9.8-5,15.5c2.9,6.3,4.1,8.8,3.7,12c-0.1,0.7,1.2,1.2,3,1.6c-0.2,0.5-3.2,2.5-3.2,2.5
		l-3.2,3.2c-4.8,2.7-9.8,4-13.2,4.4c0,0-3.2,0.2-3.7,1.4c-0.7,1.9-1,3.8-1.1,5.6l-4.2-0.4c-9.3-0.8-13.1,4.1-10.9,10.2l12,54.4
		c1,2.9,3.1,5,3.1,5l0,0.2c-0.4,0.3,0.6,7.6,0.6,7.6c-0.2,0.4,0.5,3.3,0.5,3.3l-1.5,60.1l2.5-0.1l5.4-58.2l3.2,0.4
		c7.6,1.2,20.4,3.2,27.8,3.8l6.3,58.1l3.1,0.1l-1-24c0,0.2,0,0.5,0.1,0.7c0.9,0,1.7,0.1,2.5,0.1c-0.6,2-1.7,3.9,0.2,5.1
		c2.2,1.4,4.4,1.3,6.9,0.6c2.5-0.7,3.4-2,4.7-3.1c1.3-1.1,6.2-2.4,7.3-4c0.5-0.7,1.1-2,1.4-3.4c0,3.8,0.1,6.4,0.1,6.4s0.4,0,1.2-0.1
		c-0.3,1.3-0.3,2.5,0.3,3.4c1.3,2.1,5.5,1.8,8.7,0.2c1.2-0.6,4.4-1.3,7.2-1.9l2.1,9l1.8,0.1l-1.5-9.7c0.7-0.2,1.3-0.4,1.8-0.5
		C218.9,325.2,220.2,320.5,216.6,320.4z M168.4,320l-1.2-30.5l3-0.9C169.3,298.7,168.4,312,168.4,320z M193.5,283.1
		c-1.5,5.2-1.8,23.1-1.8,34.2c-0.2-0.3-0.4-0.6-0.8-0.7c-0.5-0.1-1.3-0.1-2.7,0.2c0.2-4.9,2.9-24.7,4.3-35.1l1.1-0.3
		C193.6,282.2,193.6,282.7,193.5,283.1z"/>
	<g>
		<polygon class="st3" points="359.3,319.3 357.4,319.3 362.6,258.4 366.6,258.7 409.7,259.2 409.7,270.2 409.6,270.2 415.7,319.6 
			413.8,319.6 403.2,270.2 369.1,270.2 		"/>
		<g>
			<g>
				<path class="st4" d="M342.7,266.9c2.3,1.6,17.5,32.2,18,34.5c1.7,7.6-1.7,15.5-5.7,20.6c4.1,0.8,7.9-1.2,12.2-8.7
					c1.8-3.1,4.5-5.6,4.4-7.8c-0.2-5-1.3-1.6-3.8-8.2c-2.5-6.6-4.6-27.7-13.1-36.3C349.5,255.7,340.4,265.2,342.7,266.9z"/>
			</g>
			<path class="st5" d="M369.8,301.1c1.7,0.6,3.6,3.3,3.7,6.2c0.1,2.9-1.6,5,0.6,11.4c-1.3,0.8-1.4,0.5-1.4,0.5s-2.3-8-3.4-7
				c-1.1,1-1.9,5.2-3.4,8.6c-1.5,3.4-10.4,5.5-11.2,4.9c-0.8-0.6-2.2-3-0.3-4.4c1.9-1.5,2.1-2.3,2.1-2.3s4.2,1,6.4-2.8
				C365.7,311.4,369.8,301.1,369.8,301.1z"/>
		</g>
		<path class="st6" d="M407.5,197.1c1.8-7.5,11.9-6,20.7-5.1c6.4,0.6,7.9,3.2,7.6,9.6l-7.6,55.6c-0.3,6.4-5.5,10.6-11.6,9.4
			c-6.1-1.2-18.5-5.3-18-11.7L407.5,197.1z"/>
		<polygon class="st6" points="367.6,331.9 366.1,331.9 371.9,275.8 362.3,271.5 364.1,260.6 375.4,267 390.5,266.9 423.7,266.5 
			423.6,275.8 430.2,332.2 429,332.2 417.5,275.8 378.3,275.8 		"/>
		<path class="st3" d="M422.1,267.2c2.3,0,2.2-2.2,0.2-3.2l-17-5.6c-2.1-1-5.6-1.7-7.9-1.7l-33.6,0.2c-2.3,0-4.2,1.3-2.4,2.7
			l7.4,4.6c1.8,1.4,5.1,2.5,7.4,2.5L422.1,267.2z"/>
		<path class="st7" d="M384,192.2c0.2-3.4-4.5-10.6-7.6-12.7c0,0,16.6-10.1,16.1-4.7c-0.4,4.2,2,13.9,4.9,15.1
			c6.4,2.8,5.9,19.4,1.3,24c-3.1,3.1-19.5-3.2-19.8-3.4C377.8,209.7,384.7,200.2,384,192.2z"/>
		<g>
			<g>
				<path class="st8" d="M345,265.2c1.7,2.5,7.2,43.2,6.8,45.7c-1,8.2-7.3,14.8-13.1,18.4c3.7,2.3,8.3,1.7,15.3-4.2
					c2.8-2.4,6.5-4,7.2-6.2c1.6-5-0.7-2.1-0.8-9.6c-0.1-7.5,5.5-29.2,0.2-40.8C357.3,261.5,343.3,262.7,345,265.2z"/>
			</g>
			<path d="M361,314c1.4,1.2,2.4,4.5,1.4,7.4c-1,2.9-3.4,4.4-3.5,11.6c-1.6,0.3-1.6,0-1.6,0s0.7-8.8-0.8-8.2
				c-1.5,0.5-3.7,4.5-6.4,7.3c-2.7,2.9-12.3,1.7-12.9,0.8c-0.6-0.9-1.1-3.7,1.3-4.5c2.4-0.8,2.9-1.5,2.9-1.5s3.8,2.5,7.4-0.5
				C353.2,322.7,361,314,361,314z"/>
		</g>
		<g>
			<g>
				<g>
					<g>
						<path d="M402.3,263.7c-13.5,1.7-28.7-3.1-32.7,1.6c-0.5,5.9,0.1,24.8,0.1,24.8l-28.6-3.5c-2.4-11.1-1.2-27.3,1.6-30.5
							c6.4-7.1,24.6-9.6,35.9-12.6c6.2-1.6,8.8-6,8.4-4.7l22.1-3.6C415.8,246.9,419.2,261.6,402.3,263.7z"/>
					</g>
				</g>
			</g>
		</g>
		<path class="st5" d="M387.1,191.9c-2.1,1.7-7.9,13.8-7.9,13.8c-1.8,3.4-3.5,6.5-4,9.1c-0.7,3.6,0.3,5.8,1.8,7.8
			c1.3,1.7,1.8,10,2.1,12.3c0.3,2.3,0.4,13.3,0.4,13.3s26.3,0.3,29-1c1.7-0.8-2.7-22.5-3.2-31.8c-0.5-9.3,0.6-18.5-9.1-27.7
			C393.5,188.9,390.2,189.4,387.1,191.9z"/>
		<g>
			<path d="M406.8,212.5c2.9,27,10.1,32.5,8.4,33.3c0,0-28.3,2.7-28.6,1.3c-5.2-26.9,5.6-43.2,5.1-47.7c-0.4-3.3-0.4-4.8-2.6-8.5
				c2.8-2.2,3.6-1.6,7.5-3.5C406.3,200.9,405.8,203,406.8,212.5z"/>
		</g>
		<g>
			<polygon points="395.7,184.8 381.1,194.9 382.8,198.3 398.4,190.1 			"/>
			<path d="M389,193.8l-9.1,5c0,0-5,16.2-4.3,14.5C380.9,200.8,389,193.8,389,193.8z"/>
		</g>
		<g>
			<g>
				<path class="st7" d="M396.8,173.3c2.9-8.1-1.4-12.9-7.8-15.2c-6.4-2.3-11.8,1.2-14.7,9.2c-0.6,1.5,0.4,2.7,0.1,4.1
					c-0.4,0.7-1.8,2.5-2.5,3.4c-0.3,0.7,0.7,1.9,1.5,2.4c0.1,4.4,0.1,8.3,4.9,8.5C385.2,186.1,393.9,181.4,396.8,173.3z"/>
				<path class="st9" d="M377.7,167.8l-1.3-4.9c-2.5-4.7,10.6-9.8,18.9-4.3c7.7,5.2,7.2,10.1,5.6,15.3c-1.6,5.2-6.6,11.7-6.6,11.7
					s-3.1,0.1-6.6-1.8c-2.7-1.5-6-5-5.2-5.5c1.2-0.7,2.7-4.8,1-5.7c-0.8-0.4-2.8,0.8-2.8,0.8L377.7,167.8z"/>
			</g>
			<path class="st9" d="M394.3,185.6c1.9-3.1,16.8-12.3,13.8-18.9c-3-6.6-9.4-8.8-11.1-3.1C395.1,169.8,394.7,168.7,394.3,185.6z"/>
			<path class="st10" d="M403.2,161.2c-2.4-1-9-1.7-7,2.3c1.9,4,10,5.9,9.2,3.6c-0.8-2.2,1,0.8-1.3,0c-2.3-0.9-7-5.3-4.7-5.3
				c2.3,0,5.7,0.2,7.5,4.1C406.3,164,403.2,161.2,403.2,161.2z"/>
			<path class="st10" d="M376.6,160.4c-1.3,1.1-2.1,3.1,1.1,6.9c2.8,3.3,2.7,7.3,1.6,8.6c1.3-1.1,2.2-2.2,0.2-7.9
				C377.6,162.4,376.6,160.4,376.6,160.4z"/>
		</g>
	</g>
	<g>
		<path d="M171.5,322.2c-0.5,2.6-2.6,5.1-0.5,6.8c2.1,1.6,4.2,1.6,6.8,0.9c2.6-0.7,3.5-2.1,4.9-3.3c1.4-1.2,6.4-2.5,7.5-4.1
			c1.2-1.6,3.1-6.9,1.1-7.6c-1.2-0.4-3.9,0.4-11.1,2.4L171.5,322.2z"/>
		<path class="st11" d="M175.1,270.4c0,0-6.9,42.8-6.3,52.8c13.4,1.1,20-4,19.8-7c-0.2-3,7.4-43,7.7-45.2c0.2-2.2,3.8-16.7-2.2-19.7
			C174,241.1,175.1,270.4,175.1,270.4z"/>
		<g>
			<path d="M195.1,319c-1.2,3.8-3.5,8.2-2.3,10.6c1.2,2.4,5.4,2.2,8.7,0.6c2-0.9,9.5-2.1,11.6-2.9c5.7-2,7.3-7.1,3.7-7.4
				c-4-0.3-9.7-0.5-11.5-2C203.5,316.3,195.1,319,195.1,319z"/>
			<path class="st11" d="M192.7,258.4c24-8.3,26.1,1.5,21.9,17c-2.1,7.9-3.4,40.2-1.4,45.1c-9.8,5.1-21.7,5.4-21.7,5.4
				s1.7-38.7,4.4-46.9C197.3,275.1,192.7,258.4,192.7,258.4z"/>
		</g>
		<path class="st12" d="M161.2,168.4c0.3,2.7-1.6,12-3.4,15.8c-1.7,3.7-7.5,8.1-7.5,8.1l21.2,8.5c0,0,1-15.3,5.7-17.3
			C180,182.3,161.2,168.4,161.2,168.4z"/>
		<path class="st7" d="M183.4,164.1c0.1,1.3-0.4,3.8-0.3,5.1c0,1,0.9,2.1,0.8,3.2c-0.1,7.1-1.7,12.3-4.2,12.6
			c-1.5,0.2-5.6,1.9-8.2,1.1c-4.5-1.5-8.8-6.9-10.5-11.7c-2.7-7.5,0.1-15.9,7.8-17.4C177.3,155.4,182.7,156.2,183.4,164.1z"/>
		<g>
			<polygon class="st6" points="123.3,342.5 120.9,342.5 128.4,278.3 129.5,270.3 170.3,277.1 167.8,349.1 164.8,348.9 163.3,285 
				134.2,280.4 			"/>
			<g>
				<path class="st6" d="M206.6,264l-25.1-1.8l-53,4.7l-0.2,8c-0.4,0.9,0,4.3,3.2,4.7c0,0,33,7.1,36.9,5.9l40.2-12L206.6,264z"/>
				<path class="st3" d="M172.1,273.7c-5.6,1.2-5.7,0.1-10.5-0.4l-26.8-4.5c-10.1-1.1-7.2-1.5-2.4-3.4l4-0.9
					c4-1.6,23.8-4.3,29.1-3.7L204,262c5.7,0.6,2.7,2.5,1.9,2.7L172.1,273.7z"/>
			</g>
			<polygon class="st6" points="206,271.3 212.4,338.7 210.5,338.5 200.5,275.7 			"/>
		</g>
		<path class="st13" d="M156.6,184.2c9.3-1.1,13.5,0.9,18.7,3.1c1,1.3,1.4,5.8,1.4,5.8s-19.8-6.1-20.3-7
			C155.6,185.3,156.6,184.2,156.6,184.2z"/>
		<path class="st14" d="M185.5,156.3c0.2,1.5-0.5,1.7-0.9,1.7c1.1-1.5,0.2-4.6,0.2-4.6c-3.7,4.2-14.5-7-25.2,0.7
			c-1.1,0.8,0.2,1.2-0.6,1.9c-7.3,5.5-7.5,9-5.7,14.2c2.1,5.8,3,8.1,2.3,11.1c-0.5,2.4,15,2.3,15,2.3s3.2-1.4,4.2-3.8
			c0.7-1.6,2.6-4.5,2.3-5.1c-2.3-5.3,1.1-6.8,2.1-4.5c0.8,1.8,0.5,2.9,0.5,2.9l1.8-1c0,0-1.3-5.7,0-8.2c0.3-0.6,1.4-2.2,2.6-3.9
			C186.6,159.5,185.3,154.2,185.5,156.3z"/>
		<path class="st11" d="M173.4,269.2c3.2,0.2,22-6.2,22-6.2l8-2.1c0,0-6.1-8.6-9.5-9.9c-3.4-1.3-16,7-16,7L173.4,269.2z"/>
		<path class="st11" d="M193.2,205.3c-1.2-2.2-4.6-8-4.6-8s1.4,1.3-11.7-5c-4.4-2.1-8.3-3.9-8.3-3.9l-12.7-2.9
			c-5.5,4.4-12.1,6.2-16,6.7c0,0-2.9,0.2-3.4,1.3c-6.6,15.9,7.2,28.4,6.5,34.7c-2.9,25.6,4.9,34.6,5.8,37.9
			c0.4,1.6,8.3,3.2,17.6,3.3c5,1.6,29.1-5.8,30.8-7.2c0.8-2.2-6.7-1.9-10.3-23c-0.4-2.5-0.4-7.8,0.8-13.5
			C189,209.7,199.1,214.2,193.2,205.3z"/>
		<g>
			<path class="st6" d="M171.1,266.1c0.1,3.7-3.4,6-9.7,5.5l-28.4-4.5c-7.2-0.9-6.2-1.6-7-5.4l-5.6-53.6c-1.3-5.8,2.5-10.5,10.8-9.7
				l25.8,2.3c8.2,0.8,9.1,5,9.2,10.6L171.1,266.1z"/>
			<path class="st3" d="M161.2,202.7c2.5-0.2,6.8,2.4,7.3,6.6c0.4,4.2,8.1,55.8,6,59.1c-2.1,3.4-7.2,3.9-7,2.4
				c2.1-13.7-4-60.7-5.5-63.5C160.6,204.7,161.2,202.7,161.2,202.7z"/>
		</g>
		<g>
			<path class="st11" d="M155.3,185.1l-3.7,3.5c0,0,4.8-0.3,8.2,0.5c7.2,1.9,19.6,5.7,19.6,5.7l-1.8-4.4c0,0-7.6-3.1-15.9-4.9
				C158.7,184.8,155.3,185.1,155.3,185.1z"/>
			<path class="st15" d="M178.7,193.2l-1.2-2.9c0,0-9.8-4.5-15.9-4.9c12.4,4.5,11.7,6.6,13,7.1C175.9,193,178.7,193.2,178.7,193.2z"
				/>
		</g>
	</g>
	<g>
		<rect x="199.3" y="253.4" class="st16" width="9.4" height="98.1"/>
		<rect x="371.3" y="254.1" class="st16" width="9.4" height="98.1"/>
		<polygon class="st13" points="402.5,249.1 402.5,253.6 172.9,253.6 172.9,249.1 205.5,218.4 368.2,218.4 		"/>
		<rect x="172.7" y="249.1" class="st16" width="229.8" height="8.7"/>
	</g>
	<g>
		<path class="st11" d="M181.9,218.8c2.1,7.2,13.1,16.2,15.2,16.6c2.1,0.4,7.8,2.8,9.9,1.3c1.5-1.1,1.9-2.4,2.1-6.1
			c0.2-3.7-1.6-8.7-2.2-9.9c-0.8-1.9-4.3-4.3-4.3-4.3s-10.7-15.1-12.8-16.8C187.7,198,181.9,218.8,181.9,218.8z"/>
		<path class="st15" d="M188.8,198.6c-2.5-0.6-5.3,1-5.9,4.2c-0.6,3.2,3.8,2.7,7,6.3c3.2,3.6,12.4,17.3,15.8,19.4
			c3.4,2.1,4.2-4.4,3.8-6.1c-0.4-1.7-2.1-1.9-3.4-2.5c-1.3-0.6-6.1-6.7-8.9-10.1C194.5,206.4,190.5,199,188.8,198.6z"/>
	</g>
	<polygon class="st17" points="317.8,233.1 319.8,225.9 359.8,225.8 367.7,232.9 	"/>
	<g>
		<g>
			<path class="st8" d="M354.8,227.7c-1.2,0.4-6.8-0.6-7.8-0.7c-0.5,0-2.5,0.9-2.8,1.1c-0.5,0.3-2.9,1.5-2.2,1.9
				c0.4,0.3,1.8-0.6,2.8-0.9c1.2-0.3,2.9-0.3,2.9-0.3s-2.3,0.2-2.9,0.4c-0.7,0.3-3.7,1.7-2.9,2.2c0.8,0.5,3-0.9,3-0.9l3.5-0.1
				c0,0-2.5,0.2-2.9,0.4c-0.6,0.3-2.8,0.9-2.4,1.4c0.2,0.3,2-0.2,3.1-0.3c1-0.1,2.5,0.2,2.5,0.2s-3.6-0.2-4.1,0.3
				c-0.5,0.5,2.5,0.9,3.9,0.9c1.4,0,6.3-0.3,7.4-0.2C357.3,233.4,354.8,227.7,354.8,227.7z"/>
			<path class="st13" d="M353.3,227.1c1.1,1.9,0.8,4.8,0,8.2l5.8-0.8c0,0,2.1-4.3-2.1-7.3C356.5,227,353.3,227.1,353.3,227.1z"/>
		</g>
		<g>
			<g>
				<path d="M392.6,196.9c3.4-1,10.7,3.9,9.1,10.5c-3.1,12.9-9.3,21.8-11.7,24.7c-4.4,5.2-33,3.8-33,3.8l-1.7-9.3
					c0,0,25.4-4.2,26-5.2c1.8-3.1,3.5-14.6,5.7-18.6C389.2,198.8,392.6,196.9,392.6,196.9z"/>
			</g>
		</g>
		<path class="st5" d="M397.4,207c-0.6,1.2,0,17.1-9.2,26c-2.7,2.6,1.8-1.8,4.5-9C395.5,216.2,397.4,207,397.4,207z"/>
	</g>
	<g>
		<linearGradient id="SVGID_4_" gradientUnits="userSpaceOnUse" x1="195.725" y1="91.3151" x2="254.9028" y2="353.1002">
			<stop  offset="0" style="stop-color:#FFFFFF"/>
			<stop  offset="0.4195" style="stop-color:#BBBBBB"/>
			<stop  offset="0.7802" style="stop-color:#878787"/>
			<stop  offset="0.956" style="stop-color:#737373"/>
		</linearGradient>
		<path class="st18" d="M275.4,266.6c-0.2-2.7-0.7-5.6-0.8-7.3c-0.1-2.1-5-12.3-8.6-21.8c-3.4-8.8-4.8-17.9-9-17.9c0,0,0,0,0,0.1
			c-1.6-0.4-8.4-2.3-16.5-6.7l-1.4-2.8c0,0-0.5,0-1.4,0.1c-0.1-0.5-0.2-0.9-0.5-1.2c-0.1,0-0.2,0-0.4,0c0-0.7,0.1-1.4,0.3-2
			c1.8,0.1,3.4,0,4.3-0.5c2.5-1.3,2.5-6.9,1.6-13c0-0.1-0.1-0.2-0.1-0.3c0.3-0.1,0.7-0.2,0.9-0.5c1-1,0.6-3,0.4-3.9
			c-0.1-0.5-1.2-0.7-2.3-0.7c0-0.3-0.1-0.7-0.3-1.1c-0.5-1.6-1.1-3-1.7-4.2c0.5-1.4,0.6-3.2,0.5-4.8c0.8-0.5,1.4-1.3,1.3-2.8
			c-0.2,0.4-0.7,0.8-1.5,1.2c0,0,0-0.1,0-0.1c0.2-0.4,0.2-1.4,0.2-3.3c-0.1,0.5-0.3,0.9-0.5,1.2c0-0.2-0.1-0.3-0.1-0.3
			c-0.2,0.4-0.5,0.6-1.1,0.7c0.2-0.3,0.3-0.6,0.4-1c-0.3,0.5-1.1,0.8-1.8,1c-0.4-0.1-0.7-0.1-1.2-0.2c0.5-0.2,1-0.4,1.5-0.8
			c-0.8,0.7-2.4,0.5-4.2,0c-0.5-0.2-1.1-0.3-1.7-0.5c-1.3-0.4-2.6-0.8-3.6-1c-2.1-0.5-3.8-0.6-4.5-0.6c-4.2-0.3-8.3,0.6-10.8,4.8
			c-0.7,1.1-0.1,1.9-0.3,2c-0.3,0.3-0.8,0.4-1.5,0.9c-4.3,3.1-2.4,11.2,0.4,15.6c3.5,5.6,5.8,8.3,5,10.7c-0.1,0.3,0.1,0.5,0.5,0.7
			c-0.2,0.3-0.4,0.6-0.6,0.9c-0.1,0-0.2,0-0.2,0l-2.9,4.1c-3.5,2-8.1,4.7-13.5,7.2c0,0-3.1,1.3-3.6,2.5c-1.9,5.2-1.4,9.4,0,13
			c0,0.4,0,0.8,0.1,1.3l10.6,56.2c0.3,1.6,1.2,3.2,2.6,4.4c-0.3,1.5-0.3,3.1,0.4,4.1l-2.6,64.9h2.3l5.9-62.6
			c2.5,0.5,5.4,0.9,8.4,1.1l-1.3,49.9l1.3,0l5.1-49.6c1.7,0.1,3.3,0.1,4.9,0.2c0.8,10.7,1.8,23.8,2.5,29.1c0.9,0.1,1.8,0.2,2.6,0.2
			c0.1,0.5,0.1,1,0.2,1.5c0.5,2.3-2.5,6.4-3.1,8.7c-0.4,1.9-0.4,5.3,2.4,6.5c1.6,0.7,2.8,1.6,9.1,2.6c1.6,0.3,3.3,0.8,3.5-1
			c0.3-2,0.1-4.8-0.1-8.9c1.3,2,2.4,5,3.5,6.4c3.4,4.3,18,2.8,17.3-1.5c-0.5-3.7-3.4-5.5-11.6-12c-0.3-0.2-0.7-0.6-1.3-1
			c1.7-0.5,3.5-1.1,5.1-2c-0.6-1.1,0.4-4,2.2-7.9l10,39.8h2.3l-9.1-46c1.7-3.2,3.6-6.6,5.6-10.2l11,44h1.3l-8.8-50.3
			c4.4-8.1,8.4-15.9,9.1-20.3C289.3,272.3,284.5,266.6,275.4,266.6z M243.4,192.7c-0.2,0.2-0.5,0.3-0.7,0.4
			c-0.2-0.5-0.6-1.1-0.7-1.6c0,0,0-0.1,0-0.1l2,0C244,191.9,243.8,192.4,243.4,192.7z M241.9,188.7c1,0,1.8,0.2,1.9,0.6
			c0,0.1,0,0.2,0.1,0.3c-0.3,0.2-1,0.3-2,0.4C241.9,189.5,241.9,189.2,241.9,188.7z M263.5,268.7c-0.7,0.2-1.4,0.3-2.1,0.5
			c-0.6-1.8-1-3.4-1.3-4.7C261.2,266.1,262.3,267.5,263.5,268.7z"/>
		<g>
			<polygon class="st17" points="235.5,242.3 283,242.3 289.2,233.9 246.6,233.8 			"/>
			<g>
				<path d="M236.2,285.3c0,0,0,36.5,0.6,46.6c13.5,1.1,23.9,1.5,23.8-1.4c-0.2-3-1.9-34.5-1.6-36.7c0.3-2.3,5.5-18.9-0.6-22
					C238.1,261.4,236.2,285.3,236.2,285.3z"/>
				<path d="M243,273c7.8-2.7,29.1-9.2,34.3-9.9c11-1.4,16.5,4.5,14.2,15.3c-2.6,12-28.9,47.8-26.8,52.8c-9.9,5.2-21.4,3.2-21.4,3.2
					s15.7-41.1,16.6-45.1C260.8,285.3,243,273,243,273z"/>
				<path class="st7" d="M228.6,189.6c0.8,2.6,0.7,12.2-0.3,16.2c-1,4-5.8,9.5-5.8,9.5l24,4.3c0,0-3.3-15.4,0.9-18.3
					C250,199.6,228.6,189.6,228.6,189.6z"/>
				<path d="M225.5,206.9c-3.8,2.1-9.6,5.9-16.9,9.4c0,0-3.1,1.3-3.6,2.5c-6.7,16,8.4,22.9,7.7,29.2c-2.9,25.8,7.4,34.4,8.3,37.6
					c0.4,1.6,9.5,3.6,18.8,3.7c5,1.6,26.1-4.7,27.8-6.1c0.8-2.2,1.3-5.1,0-10.5c-3.3-13.6-3.6-15.2-3.1-22.2
					c0.4-5.2,5.8-5.7,7.4-8.6c1.6-3-6.9-25.9-6.9-25.9s-8.1-1.8-17.6-7.1c-2.3-1.3-10.2-0.2-10.2-0.2L225.5,206.9z"/>
				<path class="st13" d="M227.1,202.8c0.7,0.4,11.9,3.7,18.7,3.1c1,1.3-0.2,4.5-0.2,4.5s-20.2-2.7-20.8-3.5
					C224.2,206,227.1,202.8,227.1,202.8z"/>
				<path d="M225.4,204.7l-4.1,5.4c0,0,8.2,0.2,11.6,0.9c7.3,1.7,16.5-0.1,16.5-0.1l-1.7-4c0,0-6.5,0.8-14.9-0.7
					C229.8,205.6,225.4,204.7,225.4,204.7z"/>
				<polygon class="st6" points="205.7,364.9 208,364.9 219.2,294.4 213.2,294.4 				"/>
				<polygon class="st6" points="275,364.5 277.2,364.5 268,294 262.1,294 				"/>
				<g>
					<polygon class="st6" points="221.7,352.9 223,352.9 232.4,296.1 227,296.1 					"/>
					<polygon class="st6" points="285.6,351.7 286.9,351.7 279.9,288.2 275.2,294.9 					"/>
				</g>
				<path class="st6" d="M214.4,290.7c2.2-2.1,3.1-2.8,4.7-3.9c0.7-0.5,8.2-7.4,8.2-7.4l49.6,2.9c0,0,1.5,0.3,3.1,0.9
					c1,0.4,1.6,3.3,1.5,5.7c-0.1,2.6-4.6,7.4-8.7,10c-5.8,3.7-22,3-24.3,3c-0.2,0-2.8,0-3.1,0c-2.3,0-26,0.6-31.8-3.1
					C211.4,297.5,212.6,292.5,214.4,290.7z"/>
				<path d="M282.3,278.5c-4.7,4.3-15.1,10.9-19.4,12c-4.3,1.2-20.9-4.3-23.3-9.3c-2.3-5,19.8-11.6,26.8-11.6
					C273.4,269.6,282.3,278.5,282.3,278.5z"/>
				<path d="M264.6,215.9c4.2-0.1,5,9,7.8,17.8c3,9.5,7.2,19.8,7.2,21.9c0,4.1,2,15.5-3.1,14.7c-7.8-1.2-11.5-8.5-16.7-17.9
					C254.6,243.2,264.6,215.9,264.6,215.9z"/>
				<g>
					<path class="st5" d="M245.3,184.5l1.5,4.2c0,0,2.1,0.3,3.1-0.8c1-1.1,0.5-3,0.3-4C249.9,183,246.2,183.7,245.3,184.5z
						 M249.5,187.8c-0.9,1-2.7,0.7-2.7,0.7l-1.3-3.7c0.8-0.7,4.1-1.3,4.3-0.5C250,185.1,250.4,186.8,249.5,187.8z"/>
					<path class="st7" d="M248.1,182.5c0.7,2,0,2.1,0.5,4.2c0.2,0.7,0.8,1.4,0.9,2.1c1.1,6,1.1,11.5-1.2,13.1
						c-3.4,2.3-16.2,0.9-20.7-5.8c-4.5-6.6-1.2-17.7,5.9-21.1C241.2,171.3,245.3,175,248.1,182.5z"/>
					<path d="M246,169.9c-1.4,4-19.6-6.5-26,5.6c-0.6,1.1-0.1,1.9-0.3,2.1c-0.3,0.3-0.7,0.5-1.4,1c-4.1,3.5-2,11.3,0.7,15.4
						c3.5,5.2,3.6,7,2.9,9.5c-0.7,2.3,20.7,2,20.7,2s3.4-10.8,2.5-11.9c-3.6-4.3-1.8-8.1-0.2-6.1c1.2,1.5,0.8,2.2,0.8,2.2l0.8,0.2
						c0,0-3.6-7.3-1.5-9.2C248.2,177.7,246,169.9,246,169.9z"/>
					<path class="st5" d="M234.6,169.5c2.8,0.3,7.8,1.9,9.2,0.3c-1.3,1.2-2.9,1.4-2.9,1.4s3.6-0.1,4.4-1.6c-0.3,2.1-1.9,2.5-1.9,2.5
						s2.9-1,3.1-3.3c0.1,3.8,0.2,3.7-1.8,3.9c-3,0.3-9.1-3-14.3-3.2C229.1,169.5,231.4,169.2,234.6,169.5z"/>
					<path class="st5" d="M241.5,174.4c2.4,0.5,6.6,0.4,6.4-3.5c-0.6,1.4-4.9,4.1-8.3,2.4C236.2,171.5,241.5,174.4,241.5,174.4z"/>
					<path class="st5" d="M242,186.7c0,0,7-1.5,7.9-2.1c0.5-0.4,0.2,1.8,0.2,1.8l-7,1L242,186.7z"/>
				</g>
				<g>
					<path d="M250.8,326.3c-0.6-4-6.3-4.8-8.4-3.7c-2.6,1.5-3.5,6.9-2.9,11c0.3,2.4-2.9,6.6-3.7,9.1c-0.6,2-0.8,5.5,2,6.7
						c1.6,0.7,2.7,1.6,8.9,2.6c1.6,0.3,3.2,0.8,3.6-1.1c0.5-2.5,0.4-6.1,0.6-12C251,336.3,250.8,326.3,250.8,326.3z"/>
					<polygon class="st5" points="239.7,330.8 248.6,332.2 248.2,333.9 239.4,332.9 					"/>
					<path class="st5" d="M240.7,326.1c1.6-1.3,9-0.5,9.2,2c0.9-2.6-1.1-5-4.8-5.4C241.4,322.4,240.7,326.1,240.7,326.1z"/>
				</g>
				<g>
					<path class="st5" d="M250.7,326.4c-3.5-2-7.8,1.8-8.1,4.2c-0.5,3,3.2,7.1,6.7,9.2c2.1,1.3,3.2,6.5,4.7,8.6
						c3.1,4.5,17.9,2.9,17.5-1.6c-0.3-3.8-3.1-5.8-10.9-12.4C258.6,332.6,250.7,326.4,250.7,326.4z"/>
					<polygon points="247.2,337.8 253.9,331.8 255,333.3 248.7,339.4 					"/>
					<path d="M244.2,334.2c0-2,5.3-7.3,7.4-5.8c-1.5-2.3-4.6-2.3-7.2,0.3C241.8,331.3,244.2,334.2,244.2,334.2z"/>
				</g>
				<path class="st3" d="M248.2,225.6c3.2,1,10.9,2.9,11.5,10.6c0.6,7.7,5.2,52.8,3.9,55.8c-1.6,3.8-6.1,3.9-7.7,1.9
					c-1.6-1.9-10.9-65.2-10-66.1C247,226.9,248.2,225.6,248.2,225.6z"/>
				<path class="st6" d="M260.9,290.7c0,4.1-4.4,7.3-9.9,7.2l-30.2-0.7c-5.4-0.1-10.1-3.5-10.4-7.6l-6.3-56.5
					c-0.4-4.9,4.2-8.8,10.2-8.7l31.4,1c6.1,0.1,11,4.2,11,9.1L260.9,290.7z"/>
			</g>
		</g>
	</g>
</g>
<g>
	
		<linearGradient id="SVGID_5_" gradientUnits="userSpaceOnUse" x1="665.1315" y1="52.7489" x2="701.056" y2="288.0797" gradientTransform="matrix(-1 0 0 1 749.6683 0)">
		<stop  offset="0" style="stop-color:#FFFFFF"/>
		<stop  offset="0.4195" style="stop-color:#BBBBBB"/>
		<stop  offset="0.7802" style="stop-color:#878787"/>
		<stop  offset="0.956" style="stop-color:#737373"/>
	</linearGradient>
	<path class="st19" d="M25.2,320.4c1.8-15.5,1.5-31.4,4.1-46.7c0.4-2.4,0.3-4.5,0.1-6.9c-0.1-1-0.1-1.9-0.1-2.9
		c-0.1-2.3-0.5-1.6-2.3-2.2c-0.9-0.3-0.9-0.5-0.9-1.4c0.4-6.7,2.1-13.4,3.4-20c3-15.1,5.1-29.9-0.6-44.7c-0.9-2.4-1.3-5-1.1-7.6
		c0.3-3.1,1-9.4,4.6-10.2c1.6-0.4,2.5-1.7,3.8-2.7c2.1-1.8,4.4-3.3,6.6-5c-0.1,0-0.1,0-0.1,0c0.8-1.1,1.7-2.2,2.5-3.3
		c1.5-1.9,3.6-0.2,4-3c-4-0.1-2.7-0.9-3.9-3.7c-1.2-2.7-2.8-5.3-3.3-8.2c-0.8-5.5-0.4-13.1,5.1-15.8c2.7-1.4,4.6-3.6,7.7-4.5
		c2-0.6,5,0.2,6.8-0.5c5.5-2.2,13.8,6.5,10.2,11.8c0-0.3-0.1-0.5-0.1-0.8c0,0.2-0.1,0.4-0.1,0.5c0,0-0.4-0.5-1-0.9
		c0.4,1.7,0.4,3.4-0.1,5.1c-0.5,1.5,0.3,3.4,0.3,5c0,2.9,0,9.5-3.1,11.2c-7.7,4.6,3.9,9.3,7.7,10.9c1.4,0.6,2.6,0.5,3.8,1.9
		c1.7,2,2.6,4.7,3.3,7.2c1.6,5.4,2.4,11,4.6,16.3c2.1,5.1,7.7,17.7,0.8,21.9c-5.5,3.4-10.1-0.9-12.7-5.6c-0.2,3.9-1,7.6-0.7,11.6
		c0.2,2,0.4,3.9,0.7,5.9c0.3,2,1.2,3.2,1.5,5c0.3,2-0.2,3.5,0.1,5.2c0.3,2.3,0.6,4.6,0.9,6.8c0.2,1.7,1.6,8.1-0.5,9
		c-2,1-4.1,0.2-4.1,2.9c0,2.2-0.1,4.3-0.3,6.5c-0.2,2.6-0.4,5.2-0.7,7.9c-0.6,7.3-1.3,14.7-2,22c-0.5,4.9-0.9,9.8-1.4,14.6
		c-0.7,5.8-3,11-3.9,16.7c-2.1,14.1-1.7,28.9-1.5,43.1c2.1-0.2,4.1-0.7,6.2-0.5c5,0.4-1.8,7.9-3.4,8.7c-2.2,1.1-4.4,0.9-6.4,2.3
		c-2.5,1.7-5.5,2.7-8.5,2.9c-2.3,0.2-4.6-0.2-5-2.8c-1.3,0.1-2-1.5-2.1-3c-0.2-3.4-1-4.4-1-7.7c-0.1-14.3,0.9-28.6,3.4-42.7
		c2.5-14.2,2.5-28.6,2.5-43c-2.4,12.6-2.9,25.8-7.6,37.7c-2.9,7.4-2.8,16.2-3.4,24c-0.6,7.5-1.1,15-1.4,22.6
		c2.9-0.6,5.9-0.5,4.3,3.2c-1.5,3.5-4,4.3-7.2,5.8c-2.7,1.2-4.3,3.9-7.3,4.7c-1.7,0.5-3.5,0.8-5.2,0.2c-1.7-0.5-4.6-1-4.6-3.1
		C17.4,361.4,19,340.4,25.2,320.4z"/>
	<g>
		<g>
			<path d="M18,375.9c-0.6,3.1-3.1,6.1-0.6,8.1c2.5,1.9,5,1.9,8.1,1.1c3.1-0.8,4.2-2.5,5.8-3.9c1.7-1.4,6.1-2.2,7.5-4.2
				c1.4-1.9,3.2-5.9,0.7-6.3c-3.5-0.6-6.5,2.1-15.6,0.1L18,375.9z"/>
			<path d="M51.3,237.2c2,9.2-2.3,19.7-2.9,24.9c-0.7,5.2-6.6,43.5-6.8,45.8c-0.7,6.2-1.3,10.2-3.3,16.1c-2,5.9-3.3,46.9-2.6,51.5
				c0.7,4.6-20.7,7.5-20.7,7.5s-0.2-41.7,6.5-65.3c1.9-23.6,1.4-43.1,2.7-49.7c0.5-2.2-3.6-17.1,2.9-27.6
				C32.7,231.6,51.3,237.2,51.3,237.2z"/>
			<path class="st5" d="M47.7,260.6c-1,9.2-6.1,52.1-6.5,54.8c-0.4,2.4-0.7,2.4-2.9,8.6c-2.2,6.3-2.9,48.7-2.6,50.1
				c0.3,1.4-4.9,3.2-4.9,3.2s-1.2-33.4,4.3-53.6c1-3.8,3.5-8,4.2-12.7C40,306.4,47.7,260.6,47.7,260.6z"/>
		</g>
		<g>
			<path d="M48.1,375.3c-1.4,4.4-2.6,6.7-1.3,9.5c1.4,2.8,8,1.8,11.8-0.1c2.3-1.1,3.2-2.7,5.8-2.8c5.6-0.2,10.5-9.3,5.9-9.7
				c-4.6-0.4-7.7,1.5-9.8-0.2C58.5,370.3,48.1,375.3,48.1,375.3z"/>
		</g>
		<path class="st12" d="M40.1,146.9c0.7,2.4,0.7,11.2-0.2,14.9c-0.9,3.7-5.4,8.7-5.4,8.7l20.8,3.9c0,0-1.8-14.1,2.1-16.7
			C59.7,156.1,40.1,146.9,40.1,146.9z"/>
		<path d="M37.4,163.1c-3.3,1.9-6.2,4.6-13,9.5c0,0-2.5,0.1-3,1.2c-5.8,13.9,1,18,1.9,23.5c1.9,10.7,2.8,19.9,1.4,27.6
			c-2.3,13-5.1,30.4-4.6,32.2c0.2,0.7,20.7,5.8,33.1,3.9c11.2-1.7,19.5-3.8,20.2-4.4c-1.1-10.1-4.3-27.9-4.6-34.7
			c-0.5-10.2,1.5-16.5,1.9-21.1c0.5-4.6-1.2-10.9-0.7-11.8c1.4-2.6-0.2-16-0.2-16s-5.8-2.9-14-7.6c-2-1.1-7.1,0.5-7.1,0.5
			L37.4,163.1z"/>
		<path d="M36.9,161.4l-3.1,4.1c0,0,7.1-0.3,11.1,0.1c6.5,0.6,13.2,1.5,13.2,1.5l-1.5-4.1c0,0-2.6-1.1-12.1-1.7
			C41.9,161,36.9,161.4,36.9,161.4z"/>
		<path class="st5" d="M68.9,171.9c-2.7,1.4-3.9,3.2-3.9,3.2s-1.1-4.4-13.2-5.7c-20-2.2-27.4,3.2-27.4,3.2s8.4-7.3,10.4-7.3
			c2,0,12.9-1.5,22.6,1.1c2,0.5,7.8,3.8,8.7,4.3L68.9,171.9z"/>
		<g>
			<path class="st12" d="M61.6,139.5c0.8,3.9-0.6,4.1-0.1,5.7c1.2,4,0.6,13.1-2.2,14.5c-1.3,0.6-3.7,2.1-6.1,1.3
				c-4.2-1.4-9.2-6.5-11.3-10.6c-3.3-6.6-1.6-14.6,5.3-16.9C54.6,131,60.1,132.3,61.6,139.5z"/>
			<path class="st14" d="M62.4,139.6c1.9-6.4-14.4-16.6-23.2-9.4c-0.9,0.8-0.6,0.3-1.3,0.9c-0.7,0.7-1.9,0.8-2.5,1.2
				c-4.2,2.7-4,13.7-2,17.8c2.5,5.1,3.8,6.7,3.2,8c-0.9,2.1,14.7,1.4,14.7,1.4l2.7-7.5l2.5-1.7l1.8-3.8l1.5-1.5c0,0-0.5-3.7-0.3-5.7
				C59.8,136.7,62.4,139.6,62.4,139.6z"/>
			<path class="st20" d="M41.6,130c1.7-0.9,6.4,0.3,7.1,2.6c0.8,2.5-0.1-2-0.1-2s1.8,1.1,1.6,3.7c2.6-1.4,1-2.8,1-2.8l1.3,3.1l2-1.2
				c0,0,4.1,2.4,2,4.6c5.4-2,1.8-4.9,1.8-4.9s3.8,2.2,4.3,6.6c2.2-3.3,0.1-7.8-5.2-10.8c-4.2-2.3-5.8-1.5-5.8-1.5s-6.8-1.5-11.6,2.1
				c-1.8,1.4-2.6,2.5-2.6,2.5L41.6,130z"/>
			<path class="st12" d="M57.3,144.3c-2.1-0.5-3.9,1-2.6,4.6c1.3,3.6,2.5,4.3,4,3.3C60.2,151.3,57.3,144.3,57.3,144.3z"/>
		</g>
		<path d="M67.1,241.5c2,9.2,2.2,19.2,2,24.5c-0.3,9.9-2.1,43.5-2.4,45.8c-0.7,6.2-0.8,7.7-2.7,13.6c-2,5.9-0.4,48.5,0.2,53.1
			c0.7,4.6-20.9,5.1-20.9,5.1s-3.6-32.6,2.3-64.1c0.4-30.9-1.6-47.3-0.9-57.8C45.4,251.4,67.1,241.5,67.1,241.5z"/>
		<path class="st5" d="M38.4,238.8c0,1.9-4.2,20.3-4.2,20.3l2.6-0.2L38.4,238.8z"/>
		<path class="st5" d="M67.8,181c-3.3,3-3.4,32.8-2.9,40.9c0.5,8.1,4.2,30.7,4.7,32.8c0.5,2.1-12.9,4.7-12.9,4.7s15-1.4,16.9-2.8
			c1.9-1.4-2.4-20.7-3.1-24.4c-0.6-3.7-2.1-10.9-1.5-14.3c0.7-3.5-0.1-12.2,0.8-17.5L67.8,181z"/>
		<path d="M67.3,172c4.7-2.7,7.8,6.6,10.1,15.4c1.5,5.8,3.4,9.6,4.2,11.2c6.1,12.9,3.5,18.7,1,20.1c-9.4,5.6-16-10.2-17.7-17.5
			C61.6,187.9,67.3,172,67.3,172z"/>
		<path class="st5" d="M74,177.6c-0.3,4.7-4,10-3.7,10c1.4-0.2,5.2-4.1,5.2-4.1s0.2,0.7,0,2.5c-0.1,1.2-0.8,5.2-1.8,6.3
			c-1,1.1,3.1-3.4,3.1-5.1C76.8,185.5,74,177.6,74,177.6z"/>
		<path class="st5" d="M62.4,234.1c-0.7,3.7-0.9,6.5,0.5,6.5c1.4,0,8.8-1.4,8.8-1.4l0.3,1.1c0,0-8.2,2.4-9.6,1.4
			c-1.4-0.9-1.2-3.5-1.2-5.3C61.2,234.6,62.4,234.1,62.4,234.1z"/>
		<path d="M62.4,234.1c2.1-0.5,7.9-1.9,8.8-0.7c0.9,1.2,0.9,3.6,1.3,5.3c0.3,1.2-9.2,1.8-9.2,1.8L62.4,234.1z"/>
	</g>
</g>
<g>
	
		<linearGradient id="SVGID_6_" gradientUnits="userSpaceOnUse" x1="624.7313" y1="97.7007" x2="630.4372" y2="306.2646" gradientTransform="matrix(-1 0 0 1 749.6683 0)">
		<stop  offset="0" style="stop-color:#FFFFFF"/>
		<stop  offset="0.4195" style="stop-color:#BBBBBB"/>
		<stop  offset="0.7802" style="stop-color:#878787"/>
		<stop  offset="0.956" style="stop-color:#737373"/>
	</linearGradient>
	<path class="st21" d="M90,201c0.8,1.8,1.2,3.4,1.4,5.4c-0.8,0.6-1.2,1.3-1.5,2.2c-1.5,3.5-2.4,9.9-1.9,13.6
		c0.3,2.2,1.1,7.9,4.3,7.8c4.9-0.1,9.2-11,10.5-14.8c0.1,4.7,1.3,11.1-0.4,15.6c-2.1,5.3-4.4,10.5-5.8,16.1c-0.1,0,0-0.3,0-0.4
		c0.1,0.5-0.6,0.8,0,1.3c1.6,1.1,2.3,0.6,1.5,2.8c-1.3,3.9-2.1,8-2.2,12.1c-0.1,6.9,0.4,13.8,0.8,20.7c0.3,5.6,1.3,11.9-0.4,17.4
		c-0.7,2.3-6.6,9.8-0.7,10.2c0,0,0,0,0,0c0.2-0.1,2.1-0.7,2.2-0.7c-4.5,14.5-1.6,28.3,1.3,42.7c0.6,3.2,1.3,6.6,1,9.8
		c-0.2,2.4-1.3,4.5-2,6.7c-0.9,3,0.2,4.7,0.6,7.6c0.5,3.2,0.5,6.4,0.3,9.6c2.2,0.3,1.4-1.2,1.4-2.9c0-2.2,0-4.4,0.1-6.6
		c2.4,2.8,1.6,9,5.5,9.8c2.1,0.4,5.5,1,7.4-0.3c1-0.6,2.5-3,1.4-4.1c-2.3-2.3-4.6,0.4-5.3-3.6c-0.5-2.7-1-5.3-1.4-8
		c-0.6-3.5-1.3-7-1.2-10.6c0.2-8.2,1.8-16.4,3.2-24.4c0.8-4.4,1.8-8.8,2.3-13.3c0.3-2.6,0.6-5.3,0.6-7.9c0.1-2.4,3.5-1.3,5.2-0.8
		c-3.8,13.9-1.1,27,1.6,40.8c0.6,3.1,1.3,6.5,1,9.7c-0.2,2.3-1.3,4.4-2,6.6c-0.9,2.9,0.2,4.7,0.6,7.5c0.4,3.2,0.5,6.4,0.2,9.6
		c2,0.3,1.4-0.7,1.4-2.3c0-2.4,0-4.8,0.2-7.1c2.3,2.8,1.6,8.9,5.4,9.7c2.1,0.4,5.4,1,7.3-0.4c1-0.6,2.5-3,1.4-4.1
		c-2.3-2.3-4.5,0.4-5.2-3.6c-0.4-2.3-0.8-4.5-1.2-6.8c-0.6-3.6-1.4-7.3-1.4-11c0.2-16.5,6.8-32.5,6.2-49c1.8,0.7,3.3,0.6,5.2,0.5
		c-2.1-9.3-1.8-17.4-0.4-26.7c1.6-11.1,4-22.5,2.9-33.7c1.7,0,1.8,5.7,2.2,7.5c0.6,2.8,0.4,4.7,3.5,3.8c0.2,3,1.8,4.9,3.2,7.4
		c0.5,0.9,0.8,4.4,1.6,4.5c0.7,0,0.2-4.9-0.2-5.4c0.8,0.9,0.8,3.1,1,4.2c0.1,0.4,1.2,3.4,1.4,2.5c0.2-0.9-0.2-5.9-0.2-6.6
		c0-0.7,0.8,6.1,1,6.5c0.4,1.2,0.7-2.7,0.7-2.9c-0.1-1.3-0.1-2.5-0.3-3.8c0.1,0.6,1.4,5.4,1.6,5.3c0.1-0.3,0.1-0.5,0.2-0.8
		c-0.1-4.9-2.5-8.2-4.2-12.7c3.4-1.2,2.5-1.7,1.9-5c-0.5-3.5-1.1-7.1-1.6-10.6c-1-6.2-2.3-12.6-2.7-18.9c-0.3-5.8-0.1-11.6-0.4-17.4
		c-0.3-4.3-0.6-8.6-1.2-12.8c-0.2-1.2-2.2-8.3-1.6-8.8c-1.9-0.7-4-3.6-4.6-5.5c-0.9-2.7-1.2-5.6-1.3-8.4c-0.3-6.1,1-12.5,0-18.5
		c-0.7-4.5-3.3-9.8-7.9-11.3c-2-0.7-4.3-0.6-6.4-1.1c-2.7-0.7-5.2-0.7-7.8,0.6c-6.7,3.6-8.3,15.2-9.9,21.6
		c-1.3,4.8-2.7,9.5-4.6,14.1c-1,2.2-3,3-5,4.3c-1.8,1.1-2.6,4.8-3.2,6.6c0,0.2,0.3-3.8-0.8-2.5c-0.6,0.6-0.9,2.6-0.9,3.7
		c0-0.7-4.2-8.5-5-8.2c-0.4,0.2,2.2,5,1.7,5.1c-0.4,0.1-2.5-6-3.2-5.8c-1.3,0.5,1.5,5.4,1.1,6.3c-0.3-0.8-1.3-4.4-2.2-4.6
		c-1.6-0.2,2.1,6,1.1,6c-0.8,0-1.6-4.1-2.4-3.5c-0.4,0.3,1.3,5,1.3,5C88,196.1,89,198.6,90,201z"/>
	<g>
		<path class="st8" d="M91.3,199.9c0.1-1.1,0.2-3.1,0.6-4.1c0.3-1-0.9-3.9-0.5-5.8c0.1-0.7-0.3-1.5-0.9-0.9
			c-0.5,0.6-0.8,2.6-0.8,3.7c0,0.6-1.5-2.3-1.8-3.3c-0.3-0.8-2.7-4.7-3.2-4.4c-0.4,0.2,2.2,4.7,1.7,4.8c-0.4,0.1-2.5-5.7-3.1-5.4
			c-1.2,0.6,1.6,5.2,1.1,6c0,0-0.5-1.1-1.1-2.4c-0.5-1.1-0.8-1.9-1.1-1.9c-1.6-0.1,2.2,5.7,1.2,5.8c-0.8,0.1-1.6-3.8-2.3-3.2
			c-0.3,0.3,1.3,4.8,1.3,4.8s2.6,6.1,3.7,8.4c0.7,1.4,0.9,6.4,0.9,6.4l5-3.2C92,205.2,91.1,201.8,91.3,199.9z"/>
		<path class="st5" d="M92.5,203c-6.6,1.8-7.1,5-7.1,5s-2.9,13.4-0.6,16.4c2.3,3,8.7-12.5,9-14.5C94.1,208,92.5,203,92.5,203z"/>
		<g>
			<g>
				<path class="st12" d="M107.7,300.6c2.4,2.4,3.6,12.7,1.2,26.5c-1.4,8.5-4.3,29-3.6,34.9c0.8,6.9,2.1,11.4,4,22.4
					c0.3,1.6-10-8.6-10.3-10.6c-0.4-2.7-2.5-4.4-1.9-6.4c0.7-2.3,1.8-3.9,1.3-8.2c-1-10.4-5.1-18.7-5.5-32.6
					C92.6,312.1,98,290.8,107.7,300.6z"/>
			</g>
			<g>
				<path d="M97.2,367.5c0.7-2.2,6-1.2,7.1,3.3c0,0,1.3,2.8,3.7,8.3c0.3,0.8,0.7,1.4,1.1,2c2.3,0.2,4.8,0.6,4.8,1.9
					c0.1,1.6-0.7,3-1.6,3.6c-1.5,1.1-5.4,1-8.8,0c-1-0.3-1-2.8-2.4-6.8c-0.6-1.8-2.6-3.7-3.9-5.4C95.8,372.7,96.2,370.8,97.2,367.5z
					"/>
				<path d="M96.6,373.1c0.8,1.8,1.7,6.9,1.4,13.6c0.8,0.1,1.4,0,1.4,0s-0.5-11.1,0.3-12.5C100.6,372.8,96.6,373.1,96.6,373.1z"/>
			</g>
		</g>
		<g>
			<g>
				<path class="st12" d="M128.3,302.1c2.4,2.4,3.6,12.7,1.2,26.5c-1.4,8.5-4.3,29-3.6,34.9c0.8,6.9,2.1,11.4,4,22.4
					c0.3,1.6-10-8.6-10.3-10.6c-0.4-2.7-2.5-4.4-1.9-6.4c0.7-2.4,1.8-3.9,1.3-8.2c-1-10.4-5.1-18.7-5.5-32.6
					C113.3,313.6,118.6,292.2,128.3,302.1z"/>
			</g>
			<g>
				<path d="M117.8,369c0.7-2.2,6-1.2,7.1,3.3c0,0,1.3,2.8,3.7,8.3c0.3,0.8,0.7,1.4,1.1,2c2.3,0.2,4.8,0.6,4.8,1.9
					c0.1,1.6-0.7,3-1.6,3.6c-1.4,1.1-5.4,1-8.8,0c-1-0.3-1-2.8-2.4-6.8c-0.6-1.8-2.6-3.7-3.9-5.4C116.5,374.2,116.8,372.3,117.8,369
					z"/>
				<path d="M117.3,374.5c0.8,1.8,1.7,6.9,1.4,13.6c0.8,0.1,1.4,0,1.4,0s-0.5-11.1,0.3-12.5C121.2,374.3,117.3,374.5,117.3,374.5z"
					/>
			</g>
		</g>
		<path d="M130.4,228.7c2.9,5.5,6.7,18.1,6.7,29.2c0,11-4.1,35.1-3.4,41.7c0.7,6.6,2.2,12.1,2.2,12.1s-1.1,0.1-2.9,0.2
			c-0.8,0.1-2.5-1.7-3.6-1.5c-2.2,0.4-1.7,2.4-2.7,2.4c-3.3,0.2-5.8-0.1-8.7-0.1c-1.4,0-3.6-1.6-4.6-1.6c-4.1-0.1-3.9,1.3-4.4,1.2
			c-3-0.2-6.7-1.2-10.4-1.9c-1.1-0.2-1.3-1.6-2.3-1.8c-0.8-0.2-2.8,1.2-3.5,1c-2.2-0.8-3.2-2.2-2.6-3c0.3-0.5,4-5.9,4-12.5
			c0-6.6-1.9-22.9-1.9-34c0-11,7.3-24.9,10.2-29.3C105.3,226.4,130.4,228.7,130.4,228.7z"/>
		<path class="st5" d="M98.7,279.9c0.5,5.9-2.4,26-5.8,29.7c3-1.2,3.1-1.3,5.2,0.7C100.3,312.3,98.7,279.9,98.7,279.9z"/>
		<path class="st5" d="M131.4,279.5c-1.4,6.9,0.2,30.4,1.7,32.4c-2.7,0.1-2.9-2.3-6.1,1C126.1,313.7,131.4,279.5,131.4,279.5z"/>
		<path class="st5" d="M109.1,312.3c2.4-2,8.8,0.4,8.8,0.4s-4-12.4-2.4-25.6C115.4,287,114,308.6,109.1,312.3z"/>
		<path d="M94.2,184.9c3.1-2.3,3.7-2.8,11.6-7.3l18.8-2c8.7,8.1,11,6.4,14.2,8.7c3.1,2.2,0.9,14.5-1.8,17.9
			c0.9,4.2,0.9,9.3-3.3,13.7c-0.1,2.7-0.5,11.1-0.2,13.4c0.5,4.7,4,10.8,5.6,20.8c0.1,0.5-10-0.1-21.3-0.1
			c-20.4-0.1-25.3-3.4-25.3-3.6c2.4-11.2,6.1-17,5.9-19.1c-0.2-3.9-0.3-18.3-1.1-19.3c-1-1.2,5.9-0.5-4.6,16.8
			c-7,11.5-8.9-3.6-8.9-3.6S91.1,187.1,94.2,184.9z"/>
		<path class="st12" d="M151.5,273.4c0-0.8-0.5-5.4-0.5-5.9c0-0.2,0.5,1.4,0.6,2c0.2,1.1,0.3,1.5,0.4,2.1c0.2,1.1,0.9,1.8,0.9,0.3
			c-0.1-1.4,0.1-2.3,0-2.8c-0.1-0.5-0.6-2-1.3-3.4c-0.2-0.5-3-5.5-3.5-7c-0.7-2.1-2.6-24.5-2.3-25.4c0.4-1.3-8.4-5.7-8.9-2.1
			c-1.2,8.6,5.7,27.9,5.7,28c0,5.8,2,7.1,2.9,8.5c1.3,2,1,1.6,1.3,2.7c0.6,2.3,0.6,2.7,1,2.7c0.5,0,0.2-1.5,0.2-2.8
			c0-1.4-0.9-3-0.6-2.7c0.3,0.4,1.2,4.6,1.4,5.3c0.2,0.8,1.1,2.4,1.2,1.4c0.1-0.9-0.3-6-0.4-6.7c0-0.7,1,6.1,1.2,6.6
			C151,274.9,151.5,274.6,151.5,273.4z"/>
		<path class="st5" d="M139,249.9c-0.4,0.8-8.3,0.2-17.3,0.2c-9.7,1.1-24,0.5-29.5-4.1c0.5-1.7,0.4-0.5,0.4-0.5s8.7,4.1,22.5,3.7
			C126.1,248.9,139,249.9,139,249.9z"/>
		<path d="M139.1,184.6c4.2,2.2,5.9,37,5.7,38.2c-0.2,1.2,0.8,7.8,1.4,10.5c0.2,0.7,4.6,24.9,4.6,24.9s-8.8,3.7-10.4,3.7
			c-2.9-6.6-5.4-30.3-5.9-32.1c-0.5-1.7-1.9-15.2-2-22.5C132.4,197.4,138.5,184.3,139.1,184.6z"/>
		<g>
			<g>
				<path class="st22" d="M131.4,185.1c0.9,3,3.6,3.7,7.4,2.6c0.8-0.5,1-1.1,1.8-1.8c-7.3-2.2-6.4-16.8-6.4-28.5
					c0-6.2-4.4-14.5-11.2-13.4c-1.8,0.3-6.4-2.3-10.8,0.7c0,0-5.1,3-8.1,17.1c-4.1,19.7-7.7,23.6-7.7,23.6s0.3,3.5,0.8,5.4
					c0.8-1.3,1.6-2.8,2.6-5.4c0.8-2.6,1.5-4.7,1.5-4.2c0,0.5-0.7,2.2-1.5,4.2c-0.9,2.8-1.9,6.1-2.4,7.6c0.6,0.4,1.4,1,2.4,1.5
					c0.8-1.2,2.6-4.1,3.1-4.9c0.5-0.9-1.3,4.3-1.8,5.7c0.5,0.3,0.9,0.5,1.4,0.8l0.6-1.3l0,1.6c0.5,0.2,1,0.5,1.5,0.7
					c0.3-0.6,1.1-2.4,1.7-4.1c0.5-2.4,1-4.6,0.9-3.3c-0.1,0.9-0.5,2.1-0.9,3.3c-0.4,1.7-0.7,3.5-0.9,4.5c0.1,0,0.1,0.1,0.2,0.1
					c0.7-1.2,2.4-4.2,2.6-5.2c-0.2,0.7-1.1,4.6-1.3,5.7c0.5,0.2,1,0.4,1.5,0.6c0.2-0.7,2.8-8.1,3.4-10.4c0.5-2-1.4,7.6-2.1,10.9
					c2.5,0.9,5.3,1.6,8.1,1.8c0-1.5-0.2-4.9,0.7-12.2c1.1-9.1-0.1,7.6,0.3,12.3c0.8,0,1.6,0,2.5,0c-0.2-2-0.7-8.2-0.6-9.5
					c0.7,3.4,1.4,7.5,1.7,9.4c0.1,0,0.1,0,0.2,0l0-7.1l1.5,6.9l0,0c0.4-0.1,4.3-2.9,4.7-3c0.1-1.9-0.8-6.4-0.9-6.9
					c-0.1-0.6,1.8,4.9,2.2,6.4c1.2-0.4,4.5-4.4,5.6-5C135.4,190.7,131.1,188.6,131.4,185.1z"/>
			</g>
		</g>
	</g>
</g>
</svg>
