<?xml version="1.0" encoding="utf-8"?>
<!-- Generator: Adobe Illustrator 21.0.0, SVG Export Plug-In . SVG Version: 6.00 Build 0)  -->
<svg version="1.1" xmlns="http://www.w3.org/2000/svg" xmlns:xlink="http://www.w3.org/1999/xlink" x="0px" y="0px"
	 viewBox="0 0 500 500" style="enable-background:new 0 0 500 500;" xml:space="preserve">
<style type="text/css">
	.st0{fill:#ABD5FD;}
	.st1{fill:#FFC000;}
	.st2{opacity:0.5;fill:#FFC000;}
	.st3{fill:#FFDB4C;}
	.st4{fill:#FFFFFF;}
	.st5{fill:#D9EEFF;}
	.st6{fill:#2343BA;}
	.st7{fill:#4C9FFF;}
	.st8{fill:#2460DA;}
	.st9{opacity:0.79;fill:#002176;}
	.st10{opacity:0.5;fill:#ABD5FD;}
	.st11{fill:#27DEBF;}
	.st12{fill:#1BBC9D;}
	.st13{opacity:0.5;fill:#1BBC9D;}
	.st14{fill:#FFA8A7;}
	.st15{fill:#002176;}
	.st16{fill:#F28F8F;}
</style>
<g id="Objects">
	<path id="XMLID_17823_" class="st0" d="M204,381.8c22.7,10.8,59.4,10.8,82,0c22.7-10.8,22.7-28.3,0-39.1c-22.7-10.8-59.4-10.8-82,0
		C181.3,353.5,181.3,371,204,381.8z"/>
	<path id="XMLID_17865_" class="st0" d="M400.2,355.1l-81,46.8c-1.2,0.7-3.1,0.7-4.3,0l-101.3-58.5c-1.2-0.7-1.2-1.8,0-2.5l81-46.8
		c1.2-0.7,3.1-0.7,4.3,0l101.3,58.5C401.4,353.3,401.4,354.4,400.2,355.1z"/>
	<g id="XMLID_17599_">
		<g id="XMLID_17726_">
			<g id="XMLID_17727_">
				<g id="XMLID_17731_">
					<g id="XMLID_17756_">
						<path id="XMLID_17783_" class="st0" d="M384.7,344.1l-2-1.1l1.4-0.6c0,0,1.1,0.3,1.1,0.3c0,0.1-0.1,0.8-0.1,0.8L384.7,344.1z"
							/>
						<path id="XMLID_17780_" class="st1" d="M384.7,344.1l-2-1.1l1.4-0.6c0,0,1.1,0.3,1.1,0.3c0,0.1-0.1,0.8-0.1,0.8L384.7,344.1z"
							/>
						<path id="XMLID_17777_" class="st2" d="M384.7,344.1l-2-1.1l1.4-0.6c0,0,1.1,0.3,1.1,0.3c0,0.1-0.1,0.8-0.1,0.8L384.7,344.1z"
							/>
						<path id="XMLID_17776_" class="st3" d="M310.3,381.6c1.6,0.9,4.1,0.9,5.7,0l64.1-37l-96-55.4l-2.2-1.3l-64.1,37
							c-1.6,0.9-1.6,2.4,0,3.3L310.3,381.6z"/>
						<path id="XMLID_17773_" class="st0" d="M334.3,311.6l22.4,12.9l14.5-8.4l16.8,9.7c0,0,0,10.7,0,12.1c0,1.5-1.7,3.6-2.3,3.2
							c0,0-1.3,0.3-3.2,1.1c-1.9,0.9-4.6,3.4-4.6,3.4l-51.4-29.7L334.3,311.6z"/>
						<path id="XMLID_17772_" class="st3" d="M334.3,311.6l22.4,12.9l14.5-8.4l16.8,9.7c0,0,0,10.7,0,12.1c0,1.5-1.7,3.6-2.3,3.2
							c0,0-1.3,0.3-3.2,1.1c-1.9,0.9-4.6,3.4-4.6,3.4l-51.4-29.7L334.3,311.6z"/>
						<path id="XMLID_17769_" class="st1" d="M334.3,311.6l22.4,12.9l14.5-8.4l16.8,9.7c0,0,0,10.7,0,12.1c0,1.5-1.7,3.6-2.3,3.2
							c0,0-1.3,0.3-3.2,1.1c-1.9,0.9-4.6,3.4-4.6,3.4l-51.4-29.7L334.3,311.6z"/>
						<path id="XMLID_17766_" class="st2" d="M334.3,311.6l22.4,12.9l14.5-8.4l16.8,9.7c0,0,0,10.7,0,12.1c0,1.5-1.7,3.6-2.3,3.2
							c0,0-1.3,0.3-3.2,1.1c-1.9,0.9-4.6,3.4-4.6,3.4l-51.4-29.7L334.3,311.6z"/>
						<path id="XMLID_17763_" class="st1" d="M316,381.6l3.9-2.2l58.1-33.5c0-0.7,0.3-1.4,0.8-2.1c0.7-0.9,1.6-1.7,2.5-2.2
							c0.7-0.4,1.7-0.9,2.7-0.9c0.7,0,1.3,0.2,1.8,0.6c0.4-0.5,1.1-2.5,1.1-4.8h2.2c0,3-1,6.1-2.2,6.8l-1.1,0.6
							c-0.6,0.4-1.1,0.4-1.1,0v-0.6c0-0.7-1-0.6-2.2,0.1c-1.2,0.7-2.2,1.8-2.2,2.5v0.6c0,0.3-0.9,1.1-1.9,1.7l-56.2,32.4l-6.1,3.5
							c0,0,0,0,0,0c-0.8,0.4-1.8,0.7-2.8,0.7v-2.5C314.1,382.3,315.2,382.1,316,381.6z"/>
						<path id="XMLID_17760_" class="st1" d="M216.5,326.5v2.6c0,0.6,0.4,1.2,1.1,1.6l0,0l86.5,49.9l6.1,3.5v0c0,0,0,0,0,0
							c0.8,0.4,1.8,0.7,2.8,0.7v-2.5c-1,0-2.1-0.2-2.9-0.7l-3.9-2.2h0l-88.7-51.2C216.9,327.7,216.5,327.1,216.5,326.5z"/>
						<path id="XMLID_17757_" class="st2" d="M216.5,326.5v2.6c0,0.6,0.4,1.2,1.1,1.6l0,0l86.5,49.9l6.1,3.5v0c0,0,0,0,0,0
							c0.8,0.4,1.8,0.7,2.8,0.7v-2.5c-1,0-2.1-0.2-2.9-0.7l-3.9-2.2h0l-88.7-51.2C216.9,327.7,216.5,327.1,216.5,326.5z"/>
					</g>
					<path id="XMLID_17755_" class="st4" d="M313.1,365.2V380c0.7,0,1.4-0.1,1.9-0.5l7-4.1l53.6-30.9l0-15.5L313.1,365.2z"/>
					<path id="XMLID_17752_" class="st5" d="M219.3,312.9v11.4c0,1.2,0.9,2.7,1.9,3.3l83,47.9l7,4.1c0.5,0.3,1.2,0.5,1.9,0.5v-13.3
						L219.3,312.9z"/>
					<path id="XMLID_17750_" class="st3" d="M375.6,344.5c0-0.7,0.3-1.4,0.8-2.1c0.7-0.9,1.6-1.7,2.5-2.2c0.7-0.4,1.7-0.9,2.7-0.9
						c0.7,0,1.3,0.2,1.8,0.6v-15.5l-7.9,4.5L375.6,344.5z"/>
					<path id="XMLID_17747_" class="st5" d="M378.8,340.3c-0.8,0.5-1.7,1.2-2.3,2.1c-0.5,0.6-0.8,1.4-0.8,2.1l0-14.8h3.1V340.3z"/>
					<g id="XMLID_17732_">
						<path id="XMLID_17744_" class="st1" d="M284.1,271l96,55.4c0,0,0,0.6,0,1.3c0,0.7,1,1,2.2,0.3c1.2-0.7,2.2-1.6,2.2-2.8
							l0.1-1.2l-97.8-56.5l-0.4-0.2c-0.1,0.2-0.2,0.4-0.2,0.6v0.6C286.3,269.2,285.3,270.3,284.1,271z"/>
						<path id="XMLID_17743_" class="st3" d="M316,363.5l62.7-36.2c0.8-0.4,1.5-0.8,1.8-0.6l-0.4-0.2l-96-55.4c0,0-0.6-0.3-1.1-0.6
							c-0.6-0.4-2-0.2-3,0.4l-62.2,35.9c-1.6,0.9-1.6,2.4,0,3.3l92.5,53.4C311.8,364.4,314.4,364.4,316,363.5z"/>
						<path id="XMLID_17742_" class="st3" d="M286.5,267.3l0.4,0.2l97.8,56.5c0,0,0.1-0.2,0.2-0.3c0.1-0.1,0.2-0.1,0.3-0.2l0.7-0.4
							c0.3-0.2,0.6-0.3,0.9-0.5c0.4-0.2,0.8-0.2,1.1,0.1c0,0,0.1,0.1,0.1,0.1c0.1,0.1,0.2,0.3,0.3,0.4c0.1,0.2,0.2,0.4,0.3,0.5
							c0.1,0.2,0.1,0.4,0.2,0.6c0.1,0.2,0.1,0.5,0.1,0.7c0,0.1,0,0.3,0.1,0.5c0,0.1,0,0.2,0,0.4c0,0.3,0,0.6,0,0.9v-2.7
							c0-1.5-1.3-3.5-2.9-4.4l-92.6-53.4c-1.6-0.9-3.9-1.1-5.1-0.4l-1.2,0.7l0,0c-0.1,0.1-0.3,0.2-0.5,0.3c0,0,0,0,0,0
							C286.7,266.9,286.6,267.1,286.5,267.3z"/>
						<path id="XMLID_17739_" class="st1" d="M315.9,363.5C316,363.5,316,363.5,315.9,363.5l3.9-2.3l44.6-25.7l14.2-8.2
							c1-0.6,1.8-0.8,1.9-0.5c0,0,0,0,0,0v0.6c0,0.7,1,0.7,2.2,0c1.2-0.7,1.7-1.6,1.8-2.2v-0.7c0-0.4,0.1-0.7,0.3-0.8
							c0.1-0.1,0.2-0.1,0.3-0.2c0.2-0.1,0.4-0.3,0.7-0.4c0.3-0.2,0.6-0.3,0.9-0.5c0.4-0.2,0.8-0.2,1.1,0.1c0,0,0.1,0.1,0.1,0.1
							c0.1,0.1,0.1,0.2,0.2,0.3c0,0,0.1,0.1,0.1,0.1c0.1,0.2,0.2,0.4,0.3,0.5c0.1,0.2,0.1,0.4,0.2,0.6c0.1,0.2,0.1,0.5,0.1,0.7
							c0,0.1,0,0.3,0.1,0.5c0,0.1,0,0.2,0,0.4c0,0.3,0,0.6,0,0.9v9.6h-2.2v-9.6c0-0.2,0-0.5,0-0.7l-0.1-0.5c0,0,0,0,0-0.1
							c-0.2,1.7-1.9,3.3-3.3,4.1c-0.6,0.4-1.6,0.8-2.7,0.8c-0.8,0-1.5-0.3-2-0.7l-0.2,0.1c-0.1,0.1-0.3,0.2-0.4,0.2l-56.2,32.4
							L316,366c0,0,0,0,0,0c0,0,0,0,0,0c-0.8,0.4-1.8,0.6-2.8,0.6v-2.5C314.2,364.2,315.1,363.9,315.9,363.5z"/>
						<path id="XMLID_17736_" class="st1" d="M216.5,308.4v2.6c0,0.6,0.4,1.2,1.1,1.6l0,0l86.5,49.9l6.1,3.5v0c0,0,0,0,0,0
							c0.8,0.4,1.8,0.7,2.8,0.7v-2.5c-1,0-2.1-0.2-2.9-0.7l-3.9-2.2h0l-88.7-51.2C216.9,309.6,216.5,309,216.5,308.4z"/>
						<path id="XMLID_17733_" class="st2" d="M216.5,308.4v2.6c0,0.6,0.4,1.2,1.1,1.6l0,0l86.5,49.9l6.1,3.5v0c0,0,0,0,0,0
							c0.8,0.4,1.8,0.7,2.8,0.7v-2.5c-1,0-2.1-0.2-2.9-0.7l-3.9-2.2h0l-88.7-51.2C216.9,309.6,216.5,309,216.5,308.4z"/>
					</g>
				</g>
				<path id="XMLID_17728_" class="st1" d="M279.9,270.8c1.1-0.6,2.4-0.8,3-0.4c0.6,0.3,1.1,0.6,1.1,0.6c1.2-0.7,2.2-1.9,2.2-2.6
					v-0.6c0-0.2,0.1-0.4,0.2-0.6c0.1-0.2,0.2-0.3,0.4-0.4c0,0,0,0,0,0c0.2-0.1,0.4-0.2,0.5-0.3l0,0l1.2-0.7c1.2-0.7,3.5-0.5,5.1,0.4
					l92.6,53.4c0,0,0.1,0,0.1,0.1l-65.4,37.8c-1.1,0.6-2.8,0.6-3.8,0l-93.2-54.3L279.9,270.8z"/>
			</g>
		</g>
		<g id="XMLID_17677_">
			<g id="XMLID_17681_">
				<path id="XMLID_17723_" class="st6" d="M326.1,352l-2.5-1.4c0,0,1.4-0.5,2.1-0.1C326.4,350.8,326.1,352,326.1,352z"/>
				<path id="XMLID_17720_" class="st6" d="M327.8,350.5c0,0-2-2.2-4.4,0c-2.4,2.2-2.5,4.4-3.5,4.4c-1,0-1-17.7-1-17.7l9.5,8.8
					L327.8,350.5z"/>
				<path id="XMLID_17717_" class="st7" d="M228.4,286.4l-0.2-0.1l1.5-0.9l65.5-37.8l95.4,61.7c1.6,0.9,1.9,2.2,0.6,2.9l-2.2,1.3
					L327.8,349l-0.4-0.3L228.4,286.4z"/>
				<path id="XMLID_17716_" class="st3" d="M319.7,328.8l4.7-1v19c-2.9,1.2-4.7,2.4-5,4.8L319.7,328.8z"/>
				<path id="XMLID_17715_" class="st5" d="M326.5,347.1l60.6-35c1.1-0.6,1.9-2.1,1.9-3.3v-18.7l-61.2,35.7c0,0-0.7,2.6-2.9,3.5
					c-2.2,0.8-0.5,1.7-0.5,1.7v16C326.3,346.6,326.5,347.1,326.5,347.1z"/>
				<path id="XMLID_17712_" class="st8" d="M320.9,328.2c0.6-0.4,1.1-0.4,1.1,0v0.6c0,0.7,1,0.6,2.2-0.1c1.2-0.7,2.2-1.8,2.2-2.5
					v-0.6c0-0.3,0.8-1.1,1.9-1.7l-98.6-56.5c-0.6,0.3-1.5,0.9-1.5,0.9c-0.3,0.2-0.4,0.7-0.4,0.8v0.6c0,0.7-1,1.8-2.2,2.5
					c-1.2,0.7-2.2,0.7-2.2,0.1v-0.6c0-0.3-0.5-0.3-1.1,0L320.9,328.2z"/>
				<path id="XMLID_17709_" class="st7" d="M228.4,268.3l-0.2-0.1l1.5-0.9l65.5-37.8l95.4,55.1c1.6,0.9,1.9,2.2,0.6,2.9l-2.2,1.3
					l-61.2,36.9L228.4,268.3z"/>
				<path id="XMLID_17706_" class="st7" d="M223.4,271.1l98.6,56.9l-3.5,2.7l-98.2-56.7c0.4-1,0.9-1.5,1.3-1.8L223.4,271.1z"/>
				<g id="XMLID_17699_">
					<path id="XMLID_17703_" class="st6" d="M220.6,299.4c-0.1,0-0.1-0.1-0.2-0.1c0,0-0.1-0.1-0.1-0.1c-0.1-0.1-0.1-0.2-0.2-0.3
						c0,0-0.1-0.1-0.1-0.1c-0.1-0.2-0.2-0.4-0.3-0.5c-0.1-0.2-0.1-0.4-0.2-0.6c-0.1-0.2-0.1-0.5-0.1-0.7c0-0.1,0-0.3-0.1-0.5
						c0-0.1,0-0.2,0-0.4c0-0.3,0-0.6,0-0.9v-16.3c0-1.8,0.4-3.6,0.9-5l98.2,56.7l0.4,25.5L220.6,299.4L220.6,299.4z"/>
					<path id="XMLID_17700_" class="st9" d="M318.5,330.7L318.5,330.7c0,0-77.4-36.2-84.4-39.5c-4.6-2.2-6.9,2.4-5.8,7.2
						c1,4.2,5.1,8.4,5.1,8.4l0,0l-12.7-7.3l0,0c-0.1,0-0.1-0.1-0.2-0.1c0,0-0.1-0.1-0.1-0.1c-0.1-0.1-0.1-0.2-0.2-0.3
						c0,0-0.1-0.1-0.1-0.1c-0.1-0.2-0.2-0.4-0.3-0.5c-0.1-0.2-0.1-0.4-0.2-0.6c-0.1-0.2-0.1-0.5-0.1-0.7c0-0.1,0-0.3-0.1-0.5
						c0-0.1,0-0.2,0-0.4c0-0.3,0-0.6,0-0.9v-16.3c0-1.8,0.4-3.6,0.9-5L318.5,330.7z"/>
				</g>
				<g id="XMLID_17682_">
					<g>
						<g id="XMLID_74_">
							<path id="XMLID_75_" class="st8" d="M317.6,335.6h2.2c0-2.4,0.7-4.3,1.1-4.8c0.5,0.4,1.1,0.6,1.8,0.6c1,0,2.1-0.5,2.7-0.9
								c0.9-0.5,1.9-1.3,2.5-2.2c0-0.1,0.1-0.1,0.1-0.2c0.4-0.6,0.6-1.2,0.7-1.9l58.1-33.5l2-1.1l2.5-1.5c0.5-0.3,0.8-0.7,0.8-1.1
								v-2.6c0,0.5-0.3,0.9-0.8,1.2l0,0l-6.7,3.8l-56.2,32.4c-1,0.6-1.9,1.4-1.9,1.7v0.6c0,0.3-0.2,0.7-0.5,1c-0.4,0.5-1,1-1.7,1.4
								c-1.2,0.7-2.2,0.7-2.2,0.1v-0.6c0-0.3-0.5-0.3-1.1,0l-1.1,0.6C318.6,329.6,317.6,332.6,317.6,335.6z"/>
						</g>
						<g id="XMLID_72_">
							<path id="XMLID_73_" class="st8" d="M319.8,335.6v16.3c0,0.2,0,0.5,0,0.7l0.1,0.5c0,0,0,0,0,0.1c0.2-1.7,1.9-3.3,3.3-4.1
								c0.6-0.4,1.6-0.8,2.7-0.8c0.8,0,1.5,0.3,2,0.7l0.2-0.1c0.1-0.1,0.3-0.2,0.4-0.2l56.2-32.4c0,0,1.5-0.8,3.2-1.9
								c0.3-0.2,0.6-0.4,0.9-0.5c0.9-0.5,1.9-1.1,2.7-1.6c0.4-0.3,0.6-0.6,0.6-1.1v0.7v1.9c0,0.4-0.2,0.7-0.6,1c0,0,0,0,0,0
								c-0.3,0.2-0.7,0.4-1,0.6c-0.2,0.1-0.4,0.2-0.6,0.4c-0.4,0.2-0.7,0.4-1.1,0.6c-0.2,0.1-0.5,0.3-0.7,0.4
								c-0.2,0.1-0.3,0.2-0.5,0.3c-0.5,0.3-0.8,0.5-0.8,0.5l-44.6,25.7l-14.2,8.2c-1,0.6-1.8,0.8-1.9,0.5c0,0,0-0.1,0-0.1v-0.6
								c0-0.7-1-0.7-2.2,0c-1.2,0.7-1.7,1.6-1.8,2.2v0.7c0,0.4-0.1,0.7-0.3,0.8c-0.1,0.1-0.2,0.1-0.3,0.2c-0.2,0.1-0.4,0.3-0.7,0.4
								c-0.3,0.2-0.6,0.3-0.9,0.5c-0.4,0.2-0.8,0.2-1.1-0.1c0,0-0.1-0.1-0.1-0.1c-0.1-0.1-0.1-0.2-0.2-0.3v0c0,0-0.1-0.1-0.1-0.1
								c-0.1-0.2-0.2-0.4-0.3-0.5c-0.1-0.2-0.1-0.4-0.2-0.6c-0.1-0.2-0.1-0.5-0.1-0.7c0-0.1,0-0.3-0.1-0.5c0-0.1,0-0.2,0-0.4
								c0-0.3,0-0.6,0-0.9v-16.3H319.8z"/>
						</g>
					</g>
				</g>
			</g>
			<path id="XMLID_17678_" class="st8" d="M220.3,273.9l93.4,53.9l70.6-40.8c1.1-0.6,1.1-1.6,0-2.2l-92.4-53.4l-62,35.8h0
				c-0.6,0.4-1.5,0.9-1.5,0.9c-0.3,0.2-0.4,0.7-0.4,0.8v0.6c0,0.7-1,1.8-2.2,2.5c-0.1,0-0.1,0.1-0.2,0.1l-2.1-1.2l-1,0.6
				c0,0-0.1,0-0.1,0.1l0,0l-0.7,0.4C221.1,272.4,220.7,272.9,220.3,273.9z"/>
		</g>
		<g id="XMLID_17601_">
			<path id="XMLID_17674_" class="st0" d="M379,287.5l-2.8-1.5l2.6-0.6C379.2,286,379.3,286.7,379,287.5z"/>
			<path id="XMLID_17664_" class="st10" d="M379,287.5l-2.8-1.5l2.6-0.6C379.2,286,379.3,286.7,379,287.5z"/>
			<g id="XMLID_17653_">
				<path id="XMLID_17661_" class="st11" d="M304.5,325c1.6,0.9,4.1,0.9,5.7,0l64.1-37l-96-60.7l-2.2-1.3L212,268.2
					c-1.6,0.9-1.6,2.4,0,3.3L304.5,325z"/>
				<path id="XMLID_17658_" class="st12" d="M328.6,249.8l48.5,32.8l-26.1-20l14.5-8.4l16.8,9.7c0,0,0,15.9,0,17.4
					c0,1.5-1.7,3.6-2.3,3.2c0,0-1.3,0.3-3.2,1.1c-1.9,0.9-4.6,3.4-4.6,3.4l-51.4-34.9L328.6,249.8z"/>
				<path id="XMLID_17654_" class="st10" d="M210.8,269.9v2.6c0,0.6,0.4,1.2,1.1,1.6l0,0l86.5,49.9l6.1,3.5v0c0,0,0,0,0,0
					c0.8,0.4,1.8,0.7,2.8,0.7v-2.5c-1,0-2.1-0.2-2.9-0.7l-3.9-2.2h0L212,271.5C211.1,271.1,210.8,270.5,210.8,269.9z"/>
			</g>
			<path id="XMLID_17650_" class="st4" d="M307.4,303.3v20.1c0.7,0,1.4-0.1,1.9-0.5l7-4.1l53.6-30.9l0-20.7L307.4,303.3z"/>
			<path id="XMLID_17647_" class="st5" d="M213.6,251v16.7c0,1.2,0.9,2.7,1.9,3.3l83,47.9l7,4.1c0.5,0.3,1.2,0.5,1.9,0.5v-18.5
				L213.6,251z"/>
			<path id="XMLID_17642_" class="st11" d="M369.9,287.9c0-0.7,0.3-1.4,0.8-2.1c0.7-0.9,1.6-1.7,2.5-2.2c0.7-0.4,1.7-0.9,2.7-0.9
				c0.7,0,1.3,0.1,1.8,0.4v-20.5l-7.9,4.5L369.9,287.9z"/>
			<path id="XMLID_17638_" class="st5" d="M373.1,283.7c-0.8,0.5-1.7,1.2-2.3,2.1c-0.5,0.6-0.8,1.4-0.8,2.1l0-20h3.1V283.7z"/>
			<g id="XMLID_17602_">
				<path id="XMLID_17633_" class="st12" d="M278.4,209.2l96,55.4c0,0,0,0.6,0,1.3c0,0.7,1,1,2.2,0.3c1.2-0.7,2.2-1.6,2.2-2.8
					l0.1-1.2l-97.8-56.5l-0.4-0.2c-0.1,0.2-0.2,0.4-0.2,0.6v0.6C280.6,207.3,279.6,208.4,278.4,209.2z"/>
				<path id="XMLID_17629_" class="st11" d="M310.2,301.6l62.7-36.2c0.8-0.4,1.5-0.8,1.8-0.6l-0.4-0.2l-96-55.4c0,0-0.6-0.3-1.1-0.6
					c-0.6-0.4-2-0.2-3,0.4L212,244.9c-1.6,0.9-1.6,2.4,0,3.3l92.5,53.4C306.1,302.6,308.7,302.6,310.2,301.6z"/>
				<path id="XMLID_17623_" class="st11" d="M280.8,205.4l0.4,0.2l97.8,56.5c0,0,0.1-0.2,0.2-0.3c0.1-0.1,0.2-0.1,0.3-0.2l0.7-0.4
					c0.3-0.2,0.6-0.3,0.9-0.5c0.4-0.2,0.8-0.2,1.1,0.1c0,0,0.1,0.1,0.1,0.1c0.1,0.1,0.2,0.3,0.3,0.4c0.1,0.2,0.2,0.4,0.3,0.5
					c0.1,0.2,0.1,0.4,0.2,0.6c0.1,0.2,0.1,0.5,0.1,0.7c0,0.1,0,0.3,0.1,0.5c0,0.1,0,0.2,0,0.4c0,0.3,0,0.6,0,0.9v-2.7
					c0-1.5-1.3-3.5-2.9-4.4l-92.6-53.4c-1.6-0.9-3.9-1.1-5.1-0.4l-1.2,0.7l0,0c-0.1,0.1-0.3,0.2-0.5,0.3c0,0,0,0,0,0
					C281,205.1,280.8,205.2,280.8,205.4z"/>
				<path id="XMLID_17616_" class="st12" d="M310.2,325l3.9-2.2l58.1-33.5c0-0.7,0.3-1.4,0.8-2.1c0.7-0.9,1.6-1.7,2.5-2.2
					c0.7-0.4,1.7-0.9,2.7-0.9c0.7,0,1.3,0.2,1.8,0.6c0.4-0.5,1.1-2.5,1.1-4.8h2.2c0,3-1,6.1-2.2,6.8l-1.1,0.6
					c-0.6,0.4-1.1,0.4-1.1,0v-0.6c0-0.7-1-0.6-2.2,0.1c-1.2,0.7-2.2,1.8-2.2,2.5v0.6c0,0.3-0.9,1.1-1.9,1.7L316.3,324l-6.1,3.5
					c0,0,0,0,0,0c-0.8,0.4-1.8,0.7-2.8,0.7v-2.5C308.4,325.7,309.5,325.4,310.2,325z"/>
				<path id="XMLID_17613_" class="st12" d="M310.2,301.7C310.2,301.7,310.2,301.6,310.2,301.7l3.9-2.3l44.6-25.7l14.2-8.2
					c1-0.6,1.8-0.8,1.9-0.5c0,0,0,0,0,0v0.6c0,0.7,1,0.7,2.2,0c1.2-0.7,1.7-1.6,1.8-2.2v-0.7c0-0.4,0.1-0.7,0.3-0.8
					c0.1-0.1,0.2-0.1,0.3-0.2c0.2-0.1,0.4-0.3,0.7-0.4c0.3-0.2,0.6-0.3,0.9-0.5c0.4-0.2,0.8-0.2,1.1,0.1c0,0,0.1,0.1,0.1,0.1
					c0.1,0.1,0.1,0.2,0.2,0.3c0,0,0.1,0.1,0.1,0.1c0.1,0.2,0.2,0.4,0.3,0.5c0.1,0.2,0.1,0.4,0.2,0.6c0.1,0.2,0.1,0.5,0.1,0.7
					c0,0.1,0,0.3,0.1,0.5c0,0.1,0,0.2,0,0.4c0,0.3,0,0.6,0,0.9v14.9h-2.2v-14.9c0-0.2,0-0.5,0-0.7l-0.1-0.5c0,0,0,0,0-0.1
					c-0.2,1.7-1.9,3.3-3.3,4.1c-0.6,0.4-1.6,0.8-2.7,0.8c-0.8,0-1.5-0.3-2-0.7l-0.2,0.1c-0.1,0.1-0.3,0.2-0.4,0.2l-56.2,32.4
					l-6.1,3.5c0,0,0,0,0,0c0,0,0,0,0,0c-0.8,0.4-1.8,0.6-2.8,0.6v-2.5C308.5,302.3,309.4,302.1,310.2,301.7z"/>
				<path id="XMLID_17544_" class="st13" d="M310.2,325l3.9-2.2l58.1-33.5c0-0.7,0.3-1.4,0.8-2.1c0.7-0.9,1.6-1.7,2.5-2.2
					c0.7-0.4,1.7-0.9,2.7-0.9c0.7,0,1.3,0.2,1.8,0.6c0.4-0.5,1.1-2.5,1.1-4.8h2.2c0,3-1,6.1-2.2,6.8l-1.1,0.6
					c-0.6,0.4-1.1,0.4-1.1,0v-0.6c0-0.7-1-0.6-2.2,0.1c-1.2,0.7-2.2,1.8-2.2,2.5v0.6c0,0.3-0.9,1.1-1.9,1.7L316.3,324l-6.1,3.5
					c0,0,0,0,0,0c-0.8,0.4-1.8,0.7-2.8,0.7v-2.5C308.4,325.7,309.5,325.4,310.2,325z"/>
				<path id="XMLID_17543_" class="st13" d="M310.2,301.7C310.2,301.7,310.2,301.6,310.2,301.7l3.9-2.3l44.6-25.7l14.2-8.2
					c1-0.6,1.8-0.8,1.9-0.5c0,0,0,0,0,0v0.6c0,0.7,1,0.7,2.2,0c1.2-0.7,1.7-1.6,1.8-2.2v-0.7c0-0.4,0.1-0.7,0.3-0.8
					c0.1-0.1,0.2-0.1,0.3-0.2c0.2-0.1,0.4-0.3,0.7-0.4c0.3-0.2,0.6-0.3,0.9-0.5c0.4-0.2,0.8-0.2,1.1,0.1c0,0,0.1,0.1,0.1,0.1
					c0.1,0.1,0.1,0.2,0.2,0.3c0,0,0.1,0.1,0.1,0.1c0.1,0.2,0.2,0.4,0.3,0.5c0.1,0.2,0.1,0.4,0.2,0.6c0.1,0.2,0.1,0.5,0.1,0.7
					c0,0.1,0,0.3,0.1,0.5c0,0.1,0,0.2,0,0.4c0,0.3,0,0.6,0,0.9v14.9h-2.2v-14.9c0-0.2,0-0.5,0-0.7l-0.1-0.5c0,0,0,0,0-0.1
					c-0.2,1.7-1.9,3.3-3.3,4.1c-0.6,0.4-1.6,0.8-2.7,0.8c-0.8,0-1.5-0.3-2-0.7l-0.2,0.1c-0.1,0.1-0.3,0.2-0.4,0.2l-56.2,32.4
					l-6.1,3.5c0,0,0,0,0,0c0,0,0,0,0,0c-0.8,0.4-1.8,0.6-2.8,0.6v-2.5C308.5,302.3,309.4,302.1,310.2,301.7z"/>
				<path id="XMLID_17606_" class="st12" d="M210.8,246.5v2.6c0,0.6,0.4,1.2,1.1,1.6l0,0l86.5,49.9l6.1,3.5v0c0,0,0,0,0,0
					c0.8,0.4,1.8,0.7,2.8,0.7v-2.5c-1,0-2.1-0.2-2.9-0.7l-3.9-2.2h0L212,248.2C211.1,247.7,210.8,247.1,210.8,246.5z"/>
				<path id="XMLID_17603_" class="st12" d="M210.8,269.9v2.6c0,0.6,0.4,1.2,1.1,1.6l0,0l86.5,49.9l6.1,3.5v0c0,0,0,0,0,0
					c0.8,0.4,1.8,0.7,2.8,0.7v-2.5c-1,0-2.1-0.2-2.9-0.7l-3.9-2.2h0L212,271.5C211.1,271.1,210.8,270.5,210.8,269.9z"/>
			</g>
		</g>
	</g>
	<g id="XMLID_17521_">
		<g id="XMLID_17789_">
			<polygon id="XMLID_971_" class="st14" points="250.7,179.1 241.6,195.5 255,202.6 264.7,188.1 			"/>
			<path id="XMLID_970_" class="st12" d="M283.3,142.3c-5.1-0.9-12.8-1.1-17.8,7.5c-5,8.6-15.8,29.9-15.8,29.9s6.3,8.2,15.5,9.7
				l15-23.7L283.3,142.3z"/>
			<rect id="XMLID_17822_" x="259.9" y="342.6" class="st14" width="11.4" height="19.5"/>
			<polygon id="XMLID_17821_" class="st14" points="238.2,337.9 226.8,338.3 226.2,317.6 237.6,317.2 			"/>
			<path id="XMLID_17803_" class="st15" d="M259.9,356.6v-1.6c-1.1,0.5-3.6,10.2-8.2,14.3c-3.6,3.3-8.5,7.1-9.8,10.7
				c-1.3,3.8,6.8,5.9,10.2,5.3c3.9-0.7,10.7-3.4,12.4-6c1.7-2.6,2.5-6.3,3.9-8.2c1.4-1.9,4.6-4,5.3-6.1c0.4-1.2-0.1-3.8-0.7-6
				c-0.5-2-1.1-4.2-1.8-4c0,0.2,0,1.2,0,1.2c-0.8,0.9-3.1,1.8-5.7,1.9C263.9,358.2,259.8,357.8,259.9,356.6z"/>
			<path id="XMLID_17802_" class="st15" d="M226.7,334.7c-0.6,0-1.1,0.9-2.4,2.3c-1.6,1.7-4.2,3.6-6.7,4.8
				c-4.3,2.1-12.6,5.4-16.4,7.1c-2.4,1.1-2.2,3.9,0.2,5.5c2.4,1.6,8.3,2.8,15.3,1.2c3.8-0.9,8.8-4.4,12-4.2
				c3.2,0.2,9.1,0.1,11.4-1.5c2.3-1.6,1.4-5,0.7-8c-0.7-3.2-1.8-8.2-2.8-7.9l0,1c-1.4,2.1-8.4,2.9-11.4,1.4L226.7,334.7z"/>
			<path id="XMLID_17546_" class="st8" d="M317.3,223.8c2.5,17.6-0.9,21-17.6,37.9c-9,9.1-23.6,22.4-23.6,22.4s0.2,5.6,0.3,18.3
				c0.1,11.1-4.5,47.4-4.5,47.4s-7.6,3.2-12.8-0.1c0,0-2.3-26.9-3.6-41c-1.7-19-2.6-28.6-1.6-32.7c0.9-3.6,17.9-25.2,21.9-31.2
				l-36.3,21.1c0,0,1.2,9.2,1.1,16.1c-0.4,15.1-2.3,45.3-2.3,45.3s-8.3,3.7-12.4,0.5c0,0-10.5-66-10.5-71.4
				c0-8.2,35.7-32.8,42.5-38.5c3.9-3.3,8.2-6.8,8.2-6.8L317.3,223.8z"/>
			<path id="XMLID_17545_" class="st6" d="M275.7,244.7c0,0-5.8-4.3-8.3-11.8c0,0,0.3,5.1,1.3,9c1,3.9-29.3,23.9-29.3,23.9
				L275.7,244.7z"/>
			<circle id="XMLID_17826_" class="st15" cx="280.1" cy="107" r="16.2"/>
			<path id="XMLID_17819_" class="st15" d="M314.1,152.1c0,0,4,3.3,4,13.6v22.4l-0.6,37.6c-8,8.7-44,5.4-52.9-13.6
				c0,0,0.1-39.7,0.1-48.6c0-8.9,5-20.5,18.6-21.2l17.6,4.1L314.1,152.1z"/>
			<g id="XMLID_17804_">
				<g id="XMLID_17812_">
					<path id="XMLID_17818_" class="st15" d="M308.1,118.5c0,0-2.6,12.3-3.7,14.4c-1.1,2-3.2,2.6-3.2,2.6l0.2-8.7L308.1,118.5z"/>
					<path id="XMLID_17817_" class="st15" d="M304.8,100.9c0,0,2.8-0.5,5,1.8c2.2,2.2,1,9.1-1.7,15.9l-4.9,0.6L304.8,100.9z"/>
					<path id="XMLID_17816_" class="st14" d="M301.6,119.1c1,0.6,2.4-1.3,3.6-2.6c1.2-1.3,5.2-3,7.2,1.2c2,4.3-1.8,9.9-4.9,10.9
						c-5.4,1.7-6.2-1.8-6.2-1.8l-0.4,19.5c-4.7,5.2-20.6,4-17.6-0.5l0-5.9c0,0-4.9,0.7-7.3,0.4c-4-0.6-6.5-3.8-7.7-8.1
						c-1.9-6.9-2.7-12.5-1-26.2c1.8-14.9,19.2-15.1,28.6-9.2C305.2,102.8,301.6,119.1,301.6,119.1z"/>
					<g id="XMLID_17790_">
						<g id="XMLID_17794_">
							<path class="st15" d="M287.8,122.5H287c-3,0-5.5-2.5-5.5-5.5c0-3,2.5-5.5,5.5-5.5h0.9c3,0,5.5,2.5,5.5,5.5
								C293.4,120.1,290.9,122.5,287.8,122.5z M287,112.4c-2.5,0-4.6,2.1-4.6,4.6c0,2.5,2.1,4.6,4.6,4.6h0.9c2.5,0,4.6-2.1,4.6-4.6
								c0-2.5-2.1-4.6-4.6-4.6H287z"/>
						</g>
						<g id="XMLID_17566_">
							<path class="st15" d="M271,122.5h-0.9c-3,0-5.5-2.5-5.5-5.5c0-3,2.5-5.5,5.5-5.5h0.9c3,0,5.5,2.5,5.5,5.5
								C276.5,120.1,274,122.5,271,122.5z M270.1,112.4c-2.5,0-4.6,2.1-4.6,4.6c0,2.5,2.1,4.6,4.6,4.6h0.9c2.5,0,4.6-2.1,4.6-4.6
								c0-2.5-2.1-4.6-4.6-4.6H270.1z"/>
						</g>
						<g id="XMLID_17792_">
							<path class="st15" d="M281.5,115.9c-0.5-0.8-1.7-1.4-2.9-1.5c-1.1-0.1-2,0.3-2.5,1l-0.7-0.6c0.7-0.9,1.9-1.4,3.3-1.3
								c1.6,0.1,3,0.8,3.7,1.9L281.5,115.9z"/>
						</g>
						<g id="XMLID_17791_">
							<rect x="292.9" y="115.9" class="st15" width="11.8" height="0.9"/>
						</g>
					</g>
					<path id="XMLID_17815_" class="st15" d="M301.6,120.8c0.5,0,2.4-3.1,3.6-4.3c1.7-1.6-0.5-15.7-0.5-15.7s1.6-3.5-1.7-7.1
						c-2.3-2.6-6.3-2.9-13-3.9c-3.5-0.6-8.8-1.5-12.3-2.2c-4.2-0.8-7.7-1.6-10.6,1c-2.3,2-3.3,5.5-2.1,8.3c0.3,0.7,0.7,1.2,1.2,1.8
						c0.8,0.9,1.8,1.7,3,2.1c0,0,1.8,1.6,8.2,2.4c6.3,0.8,16.2-0.1,17.6-0.3c1.8-0.3,2.2,1.5,3.2,6.4
						C299.2,113.5,300,120.7,301.6,120.8z"/>
					<path id="XMLID_17814_" class="st15" d="M304.8,102l6-3.2c-0.9-1.7-2.9-2.4-4.5-1.5C304.6,98.1,303.9,100.2,304.8,102z"/>
					<path id="XMLID_17813_" class="st16" d="M283.3,139.9c0,0,8.9-1.8,12-3.4c2.1-1.1,3.8-3,4.3-4.3c0,0-0.6,2.6-2.4,5
						c-2.3,2.9-13.9,5-13.9,5L283.3,139.9z"/>
				</g>
				<g id="XMLID_17805_">
					
						<ellipse id="XMLID_17811_" transform="matrix(1 -2.776209e-03 2.776209e-03 1 -0.3234 0.7979)" class="st15" cx="287.2" cy="116.9" rx="1.8" ry="1.9"/>
					<path id="XMLID_17810_" class="st15" d="M288.3,109.5l3.8,2.1c0.6-1.1,0.2-2.5-0.9-3C290.2,108,288.9,108.4,288.3,109.5z"/>
					<path id="XMLID_17809_" class="st16" d="M284.1,129.2l-4.1,1.5c0.4,1.2,1.6,1.8,2.8,1.3C283.9,131.7,284.5,130.4,284.1,129.2z"
						/>
					<path id="XMLID_17808_" class="st15" d="M269.1,111.1l3.5-2.7c-0.7-1-2.1-1.2-3-0.5C268.6,108.7,268.4,110.1,269.1,111.1z"/>
					
						<ellipse id="XMLID_17807_" transform="matrix(1 -2.804252e-03 2.804252e-03 1 -0.3253 0.7644)" class="st15" cx="272.4" cy="116.4" rx="1.8" ry="1.9"/>
					<polygon id="XMLID_17806_" class="st16" points="279.4,114.9 279.2,125.8 272.8,124.4 					"/>
				</g>
			</g>
		</g>
		<g id="XMLID_17519_">
			<g id="XMLID_17710_">
				<g id="XMLID_17711_">
					<path id="XMLID_17734_" class="st8" d="M268.5,204.8v1c0,1-0.6,2-1.5,2.5l-27.8,16c-0.4,0.3-1,0.4-1.5,0.4
						c-0.5,0-1-0.1-1.5-0.4l-50.9-29.4c-0.9-0.5-1.5-1.5-1.5-2.5v-0.7l53.9,31.1L268.5,204.8z"/>
					<path id="XMLID_17730_" class="st7" d="M184,191.7l30.2-17.4c0.5-0.3,1.2-0.3,1.7,0l52.4,30.3c0.3,0.1,0.3,0.5,0,0.7
						l-30.5,17.6L184,191.7z"/>
					<polygon id="XMLID_17729_" class="st8" points="238.1,220.2 254.4,210.8 206.8,183.3 190.4,192.7 					"/>
					<polygon id="XMLID_17725_" class="st6" points="246.1,194.1 245.8,194.3 237.8,198.9 223.6,190.7 223.3,190.5 231.6,185.7 
											"/>
					<polygon id="XMLID_17722_" class="st8" points="245.8,194.3 237.8,198.9 223.6,190.7 231.6,186.1 					"/>
					<path id="XMLID_17721_" class="st6" d="M237.8,222.8v1.9c-0.5,0-1-0.1-1.5-0.4l-50.9-29.4c-0.9-0.5-1.5-1.5-1.5-2.5v-0.7
						L237.8,222.8z"/>
					<path id="XMLID_17718_" class="st7" d="M237,223.2c-1,0.4-2.1,0.3-3-0.2l-50.7-29.3c-0.9-0.5-1.5-1.4-1.7-2.4l-5.6-33.1
						c0-0.2,0-0.4,0-0.6c0-0.9,0.4-1.8,1-2.5l52.7,30.4c0.7,0.4,1.1,1,1.2,1.8L237,223.2z"/>
					<path id="XMLID_17714_" class="st0" d="M237.8,222.8l-0.3,0.2c-0.2,0.1-0.3,0.2-0.5,0.2l-6-35.8c-0.1-0.7-0.6-1.4-1.2-1.8
						l-52.7-30.4c0.2-0.2,0.4-0.4,0.7-0.5l52.8,30.5c0.7,0.4,1.1,1,1.2,1.8L237.8,222.8z"/>
					<path id="XMLID_17713_" class="st5" d="M208.4,192.7c-0.4-2.2-2.7-5.2-5.1-6.6c-2.5-1.4-4.1-0.8-3.8,1.5
						c0.4,2.2,2.7,5.2,5.1,6.6C207.1,195.5,208.8,194.9,208.4,192.7z"/>
				</g>
			</g>
			<path id="XMLID_974_" class="st14" d="M218.8,214.2c0,0-0.1-1.8-0.9-4.2c-0.8-2.5-3.1-11.9-8.4-13.3c-0.6-0.2-1.3-0.2-1.9-0.1
				c-1.5,0.4-2.1,1.9-2.4,3.3c-0.4,2-0.1,4.1,0,6.1c-0.8-0.9-1.8-1.7-2.8-2.4c-1-0.6-2-1.2-3.3-1.2c-0.3,0-0.7,0.1-0.8,0.4
				c-0.2,0.4,0,0.8,0.3,1.1c0.5,0.6,1.2,1.2,1.7,1.8c0.4,0.5,0.8,1.1,1.2,1.7c0.7,1.1,1.4,2.1,2.2,3.1c1.5,2.1,3.2,4.1,5.3,5.5
				c1.3,0.9,4.5,2.8,8,3.2c3.9,0.5,7.6,0.4,10.1-0.4L218.8,214.2z"/>
		</g>
		<g id="XMLID_17520_">
			<path id="XMLID_17688_" class="st14" d="M313.1,152.4c-3.6-1.8-8.8,5.5-7.1,13.1c1.7,7.6,9.8,34.4,9.8,34.4s-37,3.3-40.1,3.7
				c-2.2,0.3-4.6-0.8-6.7-1.5c-2.8-0.9-5.5-1.6-8.3-2.6c-0.5-0.2-1-0.4-1.5-0.3c-0.5,0.1-1,0.4-1.1,0.9c0,0.3,0.1,0.6,0.2,0.9
				c0.9,1.8,2.2,3.3,3.8,4.4c0.8,0.5,1.6,1,2.2,1.6c0.4,0.4,1.4,1.6,1,2.3l-14.7,8.5c0,0,3.4,2.9,15.6-0.5
				c8.5-2.4,12.9-4.6,12.9-4.6s43.5,1.8,51.4-0.6c2.8-0.8,3.8-2.8,1.9-11.8c-2.2-10.4-8.4-29.3-9.8-34.3
				C319.7,155.2,319,155.4,313.1,152.4z"/>
			<path id="XMLID_30_" class="st12" d="M311.2,150.8c0,0,5.9,1.7,8.4,5c2.4,3.2,12.4,35.7,12.4,35.7s-7.6,7-18.7,5
				c0,0-7.9-22.4-8.7-28.3C303.1,158.9,307.7,151.6,311.2,150.8z"/>
		</g>
		<g id="XMLID_17565_">
			<path id="XMLID_17579_" class="st11" d="M279.4,172.5c-0.5-2.5,1.1-3.8,3.5-3c2.4,0.8,4.7,3.5,5.2,6
				C288.5,178.1,279.9,175,279.4,172.5z"/>
			<path id="XMLID_17568_" class="st11" d="M295.9,180.3l-7.1-4.5c0.4,1.9-2.2,1.7-4.6,0.8c-2.3-0.8-5.2-2.4-5.5-4.4l-6.2-0.1
				c-0.6,0-0.6,0.7,0,1.4c1.5,1.7,5.1,4.7,12.6,7.3c7.5,2.6,10.4,1.8,11.4,1C296.8,181.6,296.5,180.7,295.9,180.3z"/>
		</g>
	</g>
</g>
<g id="Designed_by_Freepik">
</g>
</svg>
