<?xml version="1.0" encoding="utf-8"?>
<!-- Generator: Adobe Illustrator 21.0.0, SVG Export Plug-In . SVG Version: 6.00 Build 0)  -->
<svg version="1.1" id="Layer_1" xmlns="http://www.w3.org/2000/svg" xmlns:xlink="http://www.w3.org/1999/xlink" x="0px" y="0px"
	 viewBox="0 0 450 450" style="enable-background:new 0 0 450 450;" xml:space="preserve">
<style type="text/css">
	.st0{fill:#485A61;}
	.st1{fill:#FFFFFF;}
	.st2{fill:#4289C3;}
	.st3{fill:#1E54C1;}
	.st4{fill:#337751;}
	.st5{fill:#5FBD8A;}
	.st6{fill:#E2E2E2;}
	.st7{fill:#F2F2F2;}
	.st8{fill:#BC4343;}
	.st9{fill:#E26F6F;}
	.st10{fill:#64B2E8;}
	.st11{fill:#AFAFAF;}
	.st12{fill:#1B303A;}
	.st13{fill:#BABABA;}
</style>
<g>
	<circle class="st0" cx="109.6" cy="122.5" r="15.1"/>
	<circle class="st0" cx="152.1" cy="39.7" r="20.8"/>
	<circle class="st0" cx="403.8" cy="177.9" r="20.8"/>
	<circle class="st0" cx="393.8" cy="329.4" r="17.1"/>
	<circle class="st0" cx="389.9" cy="139" r="8.5"/>
	<circle class="st0" cx="88.8" cy="377.1" r="8.5"/>
	<circle class="st0" cx="50.6" cy="210.7" r="12.4"/>
	<circle class="st0" cx="137.1" cy="215" r="15"/>
	<circle class="st0" cx="170.3" cy="280" r="17.7"/>
	<circle class="st0" cx="174.5" cy="152.3" r="7"/>
	<circle class="st0" cx="59.3" cy="56.6" r="13.3"/>
	<circle class="st0" cx="282.7" cy="140.6" r="12.3"/>
	<circle class="st0" cx="289.7" cy="250.4" r="12.3"/>
	<circle class="st0" cx="237.1" cy="340.7" r="19.8"/>
	<circle class="st0" cx="335.7" cy="191.7" r="8.9"/>
	<circle class="st0" cx="325.3" cy="246.9" r="7.5"/>
	<circle class="st0" cx="399.6" cy="244.9" r="6.1"/>
</g>
<g>
	<path class="st1" d="M160.1,350.6c0,0,6.7-0.4,6.7,5.9s0,11,0,11h-4.3c0,0-0.3-8.5-0.3-10.2s-2.1-2.1-2.1-2.1s-1.4-0.4-1.4-2.4
		C158.7,351.1,160.1,350.6,160.1,350.6z"/>
	
		<rect x="166.2" y="366" transform="matrix(-1 -1.224647e-16 1.224647e-16 -1 334.8429 737.0257)" class="st2" width="2.5" height="5.1"/>
	
		<rect x="162.6" y="366" transform="matrix(-1 -1.224647e-16 1.224647e-16 -1 327.7034 737.0257)" class="st2" width="2.5" height="5.1"/>
	<polygon class="st3" points="166.2,366 166.2,368.5 166.2,371.1 164.7,371.1 164.7,368.5 162.6,368.5 162.6,371.1 161.1,371.1 
		161.1,368.5 161.1,366 	"/>
	<rect x="154.8" y="349.5" class="st3" width="6.5" height="6.5"/>
	<g>
		<path class="st4" d="M140.1,328.8c-9.8,0-17.8,6.9-17.8,15.4c0,0,0,0.1,0,0.1h7.9c0-0.1,0-0.2,0-0.3
			C130.3,337.3,134.3,331.6,140.1,328.8z"/>
		<path class="st5" d="M158,344.2c0-8.5-8-15.4-17.8-15.4c0,0-0.1,0-0.1,0c-5.8,2.8-9.8,8.5-9.8,15.2c0,0.1,0,0.2,0,0.3L158,344.2
			C158,344.2,158,344.2,158,344.2z"/>
	</g>
	<path class="st3" d="M136.9,336.6c-2.3,0-4.1,3.7-4,5.8c1.4,0,9.4,0,13.4,0c4,0,9.8,0,9.8,0s0.3-3.8-1.6-5.4c-1.9-1.5-4,2-7.8,2
		C142.9,339,141.1,336.6,136.9,336.6z"/>
	<rect x="122.5" y="347.5" class="st4" width="35.5" height="26.1"/>
	<rect x="130.3" y="347.5" class="st5" width="27.7" height="26.1"/>
	<rect x="120.7" y="373.5" class="st2" width="39.2" height="6.4"/>
	<rect x="120.7" y="373.5" class="st3" width="9.5" height="6.4"/>
	<g>
		<path class="st2" d="M157.7,366.5c0.6,0,1-0.5,1-1c0-0.6-0.5-1-1-1h-27.4v2H157.7z"/>
		<path class="st2" d="M158.7,367.5c0-0.6-0.5-1-1-1h-27.4v2h27.4C158.2,368.5,158.7,368.1,158.7,367.5z"/>
		<path class="st2" d="M130.3,370.5h27.4c0.6,0,1-0.5,1-1c0-0.6-0.5-1-1-1h-27.4V370.5z"/>
		<path class="st3" d="M121.5,365.5c0,0.6,0.5,1,1,1h7.7v-2h-7.7C122,364.5,121.5,364.9,121.5,365.5z"/>
		<path class="st3" d="M121.5,367.5c0,0.6,0.5,1,1,1h7.7v-2h-7.7C122,366.5,121.5,366.9,121.5,367.5z"/>
		<path class="st3" d="M122.5,368.5c-0.6,0-1,0.5-1,1c0,0.6,0.5,1,1,1h7.7v-2H122.5z"/>
	</g>
	<g>
		<rect x="121.5" y="344.3" class="st6" width="8.8" height="3.2"/>
		<rect x="130.3" y="344.3" class="st1" width="28.4" height="3.2"/>
	</g>
	<rect x="118.9" y="349.5" class="st2" width="5.6" height="6.5"/>
	<rect x="122.5" y="349.5" class="st3" width="5.2" height="6.5"/>
	<polygon class="st4" points="132.9,347.5 145.4,354.3 156.2,347.5 	"/>
	<path class="st1" d="M120.1,351.1c0,0-6.7-0.4-6.7,5.9c0,6.2,0,10.6,0,10.6h4.3c0,0,0.3-8.5,0.3-10.2s2.1-2.1,2.1-2.1
		s1.4-0.1,1.4-2.1C121.5,351.4,120.1,351.1,120.1,351.1z"/>
	<rect x="111.5" y="366" class="st2" width="2.5" height="5.1"/>
	<rect x="115.1" y="366" class="st2" width="2.5" height="5.1"/>
	<polygon class="st3" points="114,366 114,368.5 114,371.1 115.5,371.1 115.5,368.5 117.6,368.5 117.6,371.1 119.1,371.1 
		119.1,368.5 119.1,366 	"/>
</g>
<g>
	<g>
		<g>
			<g>
				<rect x="302.4" y="19.6" class="st1" width="2.4" height="3.1"/>
				<rect x="298.9" y="19.6" class="st6" width="3.5" height="2.7"/>
			</g>
			<g>
				<rect x="298.4" y="19.6" class="st1" width="2.4" height="3.1"/>
				<rect x="294.9" y="19.6" class="st6" width="3.5" height="2.7"/>
			</g>
			<g>
				<rect x="294.1" y="19.6" class="st1" width="2.4" height="3.1"/>
				<rect x="290.7" y="19.6" class="st6" width="3.5" height="2.7"/>
			</g>
			<g>
				<rect x="290.1" y="19.6" class="st1" width="2.4" height="3.1"/>
				<rect x="286.6" y="19.6" class="st6" width="3.5" height="2.7"/>
			</g>
			<g>
				<rect x="286.1" y="19.6" class="st1" width="2.4" height="3.1"/>
				<rect x="280.4" y="19.6" class="st6" width="5.7" height="2.7"/>
			</g>
		</g>
		<rect x="282.6" y="21.9" class="st5" width="26.8" height="13.4"/>
		<path class="st1" d="M302.5,32.3h-12c-2,0-3.7-1.7-3.7-3.7l0,0c0-2,1.7-3.7,3.7-3.7h12c2,0,3.7,1.7,3.7,3.7l0,0
			C306.2,30.7,304.5,32.3,302.5,32.3z"/>
		<rect x="274.6" y="21.9" class="st4" width="8" height="13.4"/>
		<circle class="st3" cx="289.5" cy="28.6" r="4.6"/>
		<circle class="st3" cx="302.7" cy="28.6" r="4.6"/>
		<circle class="st1" cx="289.5" cy="28.6" r="2"/>
		<circle class="st1" cx="302.8" cy="28.6" r="2"/>
		<ellipse class="st3" cx="278.7" cy="28.6" rx="2.9" ry="3.7"/>
		<rect x="275.8" y="24.9" class="st3" width="2.8" height="7.4"/>
		<ellipse class="st2" cx="275.8" cy="28.6" rx="2.9" ry="3.7"/>
		<rect x="274.5" y="15.7" class="st1" width="0.9" height="13"/>
		<rect x="273.8" y="15.7" class="st6" width="0.9" height="13"/>
	</g>
	<g>
		<rect x="309.9" y="42.3" class="st2" width="3.2" height="17.3"/>
		<rect x="312.1" y="42.3" class="st3" width="3.2" height="17.3"/>
		<rect x="312.5" y="59.6" class="st3" width="4" height="4.9"/>
		<rect x="308.8" y="59.6" class="st3" width="4" height="4.9"/>
		<rect x="308" y="59.6" class="st2" width="5.6" height="1.9"/>
		<rect x="308" y="61.5" class="st2" width="1.5" height="3.1"/>
		<rect x="312.1" y="61.5" class="st2" width="1.5" height="3.1"/>
	</g>
	<g>
		<ellipse class="st3" cx="309.3" cy="43.3" rx="2.9" ry="3.7"/>
		<rect x="306.8" y="39.6" class="st3" width="2.6" height="7.4"/>
		<ellipse class="st2" cx="306.5" cy="43.3" rx="2.9" ry="3.7"/>
	</g>
	<rect x="280.9" y="35.3" class="st2" width="18.7" height="1.7"/>
	<rect x="285.6" y="35.3" class="st3" width="18.7" height="1.7"/>
	<rect x="274.5" y="37.1" class="st4" width="26.8" height="26.8"/>
	<rect x="282.6" y="37.1" class="st5" width="26.8" height="26.8"/>
	<rect x="286.7" y="41.7" class="st2" width="16.4" height="17.1"/>
	<rect x="288.4" y="41.7" class="st3" width="16.4" height="17.1"/>
	<rect x="290.1" y="43.7" class="st5" width="5.8" height="13.4"/>
	<rect x="297.6" y="43.7" class="st5" width="5.5" height="13.4"/>
	<rect x="291" y="45.1" class="st1" width="4" height="1.1"/>
	<rect x="298.4" y="45.1" class="st1" width="4" height="1.1"/>
	<rect x="298.4" y="47.2" class="st1" width="4" height="1.1"/>
	<g>
		<rect x="291" y="47.2" class="st1" width="1.6" height="1.5"/>
		<rect x="293.4" y="47.2" class="st1" width="1.6" height="1.5"/>
		<rect x="291" y="49.5" class="st1" width="1.6" height="1.5"/>
		<rect x="293.4" y="49.5" class="st1" width="1.6" height="1.5"/>
		<rect x="291" y="51.9" class="st1" width="1.6" height="1.5"/>
		<rect x="293.4" y="51.9" class="st1" width="1.6" height="1.5"/>
		<rect x="291" y="54.2" class="st1" width="1.6" height="1.5"/>
		<rect x="293.4" y="54.2" class="st1" width="1.6" height="1.5"/>
	</g>
	<rect x="298.4" y="49.5" class="st3" width="4" height="6.2"/>
	<rect x="274.5" y="63.9" class="st2" width="26.8" height="2.3"/>
	<rect x="282.6" y="63.9" class="st3" width="26.8" height="2.3"/>
	<rect x="279.7" y="66.2" class="st4" width="5.9" height="18.2"/>
	<rect x="284.5" y="66.2" class="st5" width="5.9" height="18.2"/>
	<rect x="293.5" y="66.2" class="st4" width="5.9" height="18.2"/>
	<rect x="298.4" y="66.2" class="st5" width="5.9" height="18.2"/>
	<g>
		<path class="st3" d="M295.4,84v5.6h15.1c0,0-0.7-5.6-5.6-5.6S295.4,84,295.4,84z"/>
		<path class="st2" d="M290.1,84v5.6h15.1c0,0-0.7-5.6-5.6-5.6S290.1,84,290.1,84z"/>
	</g>
	<g>
		<path class="st3" d="M281.5,84v5.6h15.1c0,0-0.7-5.6-5.6-5.6S281.5,84,281.5,84z"/>
		<path class="st2" d="M276.2,84v5.6h15.1c0,0-0.7-5.6-5.6-5.6S276.2,84,276.2,84z"/>
	</g>
	<g>
		<ellipse class="st3" cx="278" cy="43.3" rx="2.9" ry="3.7"/>
		<rect x="275.4" y="39.6" class="st3" width="2.6" height="7.4"/>
		<ellipse class="st2" cx="275.2" cy="43.3" rx="2.9" ry="3.7"/>
		<rect x="270.1" y="42.3" class="st2" width="3.2" height="17.3"/>
		<rect x="272.3" y="42.3" class="st3" width="3.2" height="17.3"/>
		<rect x="272.7" y="59.6" class="st3" width="4" height="4.9"/>
		<rect x="269" y="59.6" class="st3" width="4" height="4.9"/>
		<rect x="268.2" y="59.6" class="st2" width="5.6" height="1.9"/>
		<rect x="268.2" y="61.5" class="st2" width="1.5" height="3.1"/>
		<rect x="272.3" y="61.5" class="st2" width="1.5" height="3.1"/>
	</g>
</g>
<g>
	<g>
		<g>
			<g>
				<g>
					<path class="st3" d="M407.1,46.9c0-1.4-1.2-2.5-2.6-2.5h-70.1c-1.4,0-2.6,1.1-2.6,2.5v43.7h75.3V46.9z"/>
				</g>
			</g>
			<g>
				<g>
					<path class="st6" d="M334.4,98.8h70.1c1.4,0,2.6-1.1,2.6-2.5v-5.7h-75.3v5.7C331.8,97.6,332.9,98.8,334.4,98.8z"/>
				</g>
			</g>
		</g>
		<g>
			<g>
				<g>
					<rect x="361.6" y="97.7" class="st3" width="18.8" height="9"/>
				</g>
			</g>
			<g>
				<g>
					<rect x="363.9" y="97.7" class="st2" width="18.8" height="9"/>
				</g>
			</g>
			<g>
				<g>
					<rect x="356.3" y="105.8" class="st6" width="23.3" height="2.5"/>
				</g>
			</g>
			<g>
				<g>
					<rect x="363.9" y="105.8" class="st1" width="23.3" height="2.5"/>
				</g>
			</g>
			<g>
				<g>
					<g>
						<path class="st2" d="M410.9,46.9c0-1.4-1.2-2.5-2.6-2.5h-70.1c-1.4,0-2.6,1.1-2.6,2.5v43.7h75.3V46.9z"/>
					</g>
				</g>
				<g>
					<g>
						<path class="st1" d="M338.2,98.8h70.1c1.4,0,2.6-1.1,2.6-2.5v-5.7h-75.3v5.7C335.6,97.6,336.8,98.8,338.2,98.8z"/>
					</g>
				</g>
			</g>
		</g>
		<g>
			<g>
				<rect x="338.5" y="48" class="st7" width="69.6" height="1.3"/>
			</g>
			<g>
				<rect x="338.5" y="51.6" class="st1" width="69.6" height="35.3"/>
			</g>
		</g>
		<g>
			<path class="st5" d="M377.4,94.9c0,0.4-0.3,0.7-0.7,0.7h-4.1c-0.4,0-0.7-0.3-0.7-0.7l0,0c0-0.4,0.3-0.7,0.7-0.7h4.1
				C377.1,94.1,377.4,94.5,377.4,94.9L377.4,94.9z"/>
		</g>
	</g>
	<g>
		<path class="st2" d="M347.5,85.4c-1.1,0-2.1-0.9-2.1-2.1c0-1.1,0.9-2.1,2.1-2.1s2.1,0.9,2.1,2.1C349.5,84.5,348.6,85.4,347.5,85.4
			z M347.5,82.2c-0.6,0-1.2,0.5-1.2,1.2c0,0.6,0.5,1.2,1.2,1.2c0.6,0,1.2-0.5,1.2-1.2C348.6,82.7,348.1,82.2,347.5,82.2z"/>
		<path class="st2" d="M345.9,58.6c-1.1,0-2.1-0.9-2.1-2.1c0-1.1,0.9-2.1,2.1-2.1c1.1,0,2.1,0.9,2.1,2.1
			C347.9,57.7,347,58.6,345.9,58.6z M345.9,55.4c-0.6,0-1.2,0.5-1.2,1.2c0,0.6,0.5,1.2,1.2,1.2s1.2-0.5,1.2-1.2
			C347,55.9,346.5,55.4,345.9,55.4z"/>
		<path class="st2" d="M401.8,83.8c-1.1,0-2.1-0.9-2.1-2.1c0-1.1,0.9-2.1,2.1-2.1s2.1,0.9,2.1,2.1C403.8,82.9,402.9,83.8,401.8,83.8
			z M401.8,80.6c-0.6,0-1.2,0.5-1.2,1.2c0,0.6,0.5,1.2,1.2,1.2s1.2-0.5,1.2-1.2C402.9,81.1,402.4,80.6,401.8,80.6z"/>
		<path class="st2" d="M403.4,74.9c-1.1,0-2.1-0.9-2.1-2.1s0.9-2.1,2.1-2.1c1.1,0,2.1,0.9,2.1,2.1S404.5,74.9,403.4,74.9z
			 M403.4,71.7c-0.6,0-1.2,0.5-1.2,1.2c0,0.6,0.5,1.2,1.2,1.2c0.6,0,1.2-0.5,1.2-1.2C404.5,72.2,404,71.7,403.4,71.7z"/>
		<path class="st2" d="M343.5,78.8c-1.1,0-2.1-0.9-2.1-2.1c0-1.1,0.9-2.1,2.1-2.1c1.1,0,2.1,0.9,2.1,2.1
			C345.5,77.9,344.6,78.8,343.5,78.8z M343.5,75.6c-0.6,0-1.2,0.5-1.2,1.2c0,0.6,0.5,1.2,1.2,1.2s1.2-0.5,1.2-1.2
			C344.6,76.1,344.1,75.6,343.5,75.6z"/>
		<polygon class="st2" points="351.9,77.4 345.1,77.4 345.1,76.5 351,76.5 351,72.8 351.9,72.8 		"/>
		<polygon class="st2" points="403.8,71.2 402.9,71.2 402.9,59.6 395.3,59.6 395.3,58.7 403.8,58.7 		"/>
		<polygon class="st2" points="400.1,82.2 391.1,82.2 391.1,72.1 392,72.1 392,81.3 400.1,81.3 		"/>
		<polygon class="st2" points="352.3,63.3 345.4,63.3 345.4,58.2 346.3,58.2 346.3,62.4 352.3,62.4 		"/>
		<polygon class="st2" points="356.8,86.9 355.9,86.9 355.9,77.9 361.6,77.9 361.6,78.8 356.8,78.8 		"/>
		<polygon class="st2" points="354.3,84 349.1,84 349.1,83.1 353.4,83.1 353.4,74.3 354.3,74.3 		"/>
		<polygon class="st2" points="387.3,86.9 386.4,86.9 386.4,78.8 377.8,78.8 377.8,77.9 387.3,77.9 		"/>
		<rect x="368" y="49.8" class="st2" width="0.9" height="6.7"/>
		<rect x="383.9" y="49.8" class="st2" width="0.9" height="6.7"/>
	</g>
	<g>
		<g>
			<path class="st3" d="M377.5,76.1l-0.4,0H359c0.5,1.9,2.4,5.7,8.6,5.7h3.2v-0.4C376.3,80.2,377.5,76.1,377.5,76.1z"/>
		</g>
		<g>
			<path class="st2" d="M361.9,76c0.5,1.9,2.4,5.7,8.6,5.7c8.2,0,9.9-5.7,9.9-5.7l-0.4,0H361.9z"/>
		</g>
		<g>
			<polygon class="st8" points="382.1,56.5 362.7,56.5 353.5,56.6 349.1,72.2 353,76.8 370.8,76.8 373.2,73 382.1,73 			"/>
		</g>
		<g>
			<polygon class="st9" points="394,56.5 363.4,56.5 359,72.1 362.9,76.8 380.7,76.8 383.1,72.9 393.8,72.9 400.1,65.2 			"/>
		</g>
		<g>
			<g>
				<polygon class="st1" points="382.1,74.9 378,71.4 378.6,70.8 382.5,74 				"/>
			</g>
		</g>
		<g>
			<g>
				<path class="st1" d="M350.2,65.1v1h3.1l-1.8,6.1l4.1,4.6h1.3l-4.3-4.8l1.7-5.9h2.6l-1.8,6.4l3.8,4.3h1.3l-4.1-4.5l1.8-6.1l0,0
					h12.9v6.7h-6.8v-3h1.5c0.2,0.9,1,1.6,2,1.6c1.1,0,2.1-0.9,2.1-2.1s-0.9-2.1-2.1-2.1c-1,0-1.8,0.7-2,1.6h-2.5v4.9h8.7v-8.6H350.2
					z M367.4,68.2c0.6,0,1.1,0.5,1.1,1.1c0,0.6-0.5,1.1-1.1,1.1s-1.1-0.5-1.1-1.1C366.3,68.7,366.8,68.2,367.4,68.2z"/>
			</g>
			<g>
				<path class="st1" d="M381.2,63.6c-0.9,0-1.7,0.6-2,1.5h-6v11.7h1V66.1h5c0.2,1,1,1.7,2,1.7c1.1,0,2.1-0.9,2.1-2.1
					C383.2,64.6,382.3,63.6,381.2,63.6z M381.2,66.8c-0.6,0-1.1-0.5-1.1-1.1c0-0.6,0.5-1.1,1.1-1.1s1.1,0.5,1.1,1.1
					C382.3,66.3,381.8,66.8,381.2,66.8z"/>
			</g>
			<g>
				<path class="st1" d="M393.2,59.5c-1.1,0-2.1,0.9-2.1,2.1c0,0.4,0.1,0.7,0.3,1l-2.8,2.8v7.5h1v-7.1l2.5-2.5
					c0.3,0.2,0.7,0.3,1.1,0.3c1.1,0,2.1-0.9,2.1-2.1C395.3,60.5,394.4,59.5,393.2,59.5z M393.2,62.7c-0.6,0-1.1-0.5-1.1-1.1
					c0-0.6,0.5-1.1,1.1-1.1c0.6,0,1.1,0.5,1.1,1.1C394.4,62.2,393.9,62.7,393.2,62.7z"/>
			</g>
			<g>
				<path class="st1" d="M377.3,68c-1.1,0-2.1,0.9-2.1,2.1c0,1.1,0.9,2.1,2.1,2.1c1.1,0,2.1-0.9,2.1-2.1
					C379.4,68.9,378.5,68,377.3,68z M377.3,71.2c-0.6,0-1.1-0.5-1.1-1.1c0-0.6,0.5-1.1,1.1-1.1s1.1,0.5,1.1,1.1
					C378.4,70.7,377.9,71.2,377.3,71.2z"/>
			</g>
			<g>
				<polygon class="st1" points="376.5,56.4 375.5,56.4 375.5,62 365.8,62 365.8,56.5 364.8,56.5 364.8,62.9 376.5,62.9 				"/>
			</g>
			<g>
				<polygon class="st1" points="380.7,56.5 379.8,56.5 379.8,61.2 386.3,61.2 386.3,72.9 387.3,72.9 387.3,60.3 380.7,60.3 				"/>
			</g>
		</g>
	</g>
</g>
<g>
	<g>
		<path class="st3" d="M81.7,256.2c-0.1,0-0.2,0-0.3,0h-2.5v0.5c-4.1,1.5-7.1,6.4-7.1,12.1c0,5.7,3,10.6,7.1,12.1v0.5h2.8
			c5.4,0,9.9-5.7,9.9-12.6S87.2,256.2,81.7,256.2z"/>
		<ellipse class="st1" cx="78.4" cy="268.8" rx="9.9" ry="12.6"/>
	</g>
	<g>
		<rect x="75.2" y="230.9" class="st6" width="4.3" height="12.4"/>
		<rect x="78.9" y="230.9" class="st1" width="4.3" height="12.4"/>
		<g>
			<path class="st2" d="M81.1,225.3h-3.7v2.3c-0.6,1-1,2.3-1,3.6h1h3.7h4.8C85.8,228,83.7,225.3,81.1,225.3z"/>
			<path class="st2" d="M82.2,231.3c-0.1-3.3-2.2-5.9-4.8-5.9c-2.6,0-4.7,2.6-4.8,5.9H82.2z"/>
		</g>
		<path class="st2" d="M76.1,241.5v3.9c0,0,1.2,4.9,7,4.9c5.8,0,16.4,0,16.4,0v-8.9H76.1z"/>
		<g>
			<path class="st3" d="M71.3,241.5v3.9c0,0,1.2,4.9,7,4.9c5.8,0,16.4,0,16.4,0v-8.9H71.3z"/>
			<rect x="100" y="243.3" class="st1" width="7.6" height="5.3"/>
			<rect x="97" y="243.3" class="st6" width="7.6" height="5.3"/>
		</g>
	</g>
	<path class="st5" d="M80.7,221.6l-13.7,0.2l-13.7-0.2c0,0-3.2,7.1-3.2,16.5c0,9.4,6.6,15.3,6.6,15.3h6.8h6.9h6.8
		c0,0,6.6-5.9,6.6-15.3C83.9,228.7,80.7,221.6,80.7,221.6z"/>
	<path class="st1" d="M67,199.9c-1.7,0-3.4,0.3-4.9,0.9c-5.3,2-9.1,7.2-9.1,13.2v8.3h18.3h9.8V214C81.1,206.2,74.7,199.9,67,199.9z"
		/>
	<rect x="51.7" y="209.3" class="st2" width="31.3" height="9.1"/>
	<rect x="51.7" y="209.3" class="st3" width="11.1" height="9.1"/>
	<path class="st1" d="M68.1,217.1c-1.8,0-3.2-1.4-3.2-3.2c0-1.8,1.4-3.2,3.2-3.2s3.2,1.4,3.2,3.2C71.3,215.6,69.9,217.1,68.1,217.1z
		 M68.1,212.4c-0.8,0-1.5,0.7-1.5,1.5c0,0.8,0.7,1.5,1.5,1.5c0.8,0,1.5-0.7,1.5-1.5C69.6,213,68.9,212.4,68.1,212.4z"/>
	<path class="st1" d="M78.1,217.1c-1.8,0-3.2-1.4-3.2-3.2c0-1.8,1.4-3.2,3.2-3.2s3.2,1.4,3.2,3.2C81.3,215.6,79.9,217.1,78.1,217.1z
		 M78.1,212.4c-0.8,0-1.5,0.7-1.5,1.5c0,0.8,0.7,1.5,1.5,1.5c0.8,0,1.5-0.7,1.5-1.5C79.6,213,78.9,212.4,78.1,212.4z"/>
	<rect x="60.8" y="236.4" class="st3" width="23.1" height="2.7"/>
	<g>
		<rect x="48.6" y="230.9" class="st6" width="4.3" height="12.4"/>
		<rect x="52.4" y="230.9" class="st1" width="4.3" height="12.4"/>
		<g>
			<path class="st2" d="M54.5,225.3h-3.7v2.3c-0.6,1-1,2.3-1,3.6h1h3.7h4.8C59.2,228,57.1,225.3,54.5,225.3z"/>
			<path class="st3" d="M55.6,231.3c-0.1-3.3-2.2-5.9-4.8-5.9c-2.6,0-4.7,2.6-4.8,5.9H55.6z"/>
		</g>
		<path class="st2" d="M49.5,241.5v3.9c0,0,1.2,4.9,7,4.9c5.8,0,16.4,0,16.4,0v-8.9H49.5z"/>
		<g>
			<path class="st3" d="M44.7,241.5v3.9c0,0,1.2,4.9,7,4.9s16.4,0,16.4,0v-8.9H44.7z"/>
			<rect x="73.4" y="243.3" class="st1" width="7.6" height="5.3"/>
			<rect x="70.5" y="243.3" class="st6" width="7.6" height="5.3"/>
		</g>
	</g>
	<polygon class="st2" points="70.5,253.3 63.6,253.3 56.8,253.3 59.3,257.7 63.7,257.7 70.5,257.7 74.8,257.7 77.4,253.3 	"/>
	<rect x="55.8" y="257.7" class="st1" width="26.7" height="22.1"/>
	<path class="st3" d="M56.3,256.2c-0.1,0-0.2,0-0.3,0h-2.5v0.5c-4.1,1.5-7.1,6.4-7.1,12.1c0,5.7,3,10.6,7.1,12.1v0.5h2.8
		c5.4,0,9.9-5.7,9.9-12.6S61.8,256.2,56.3,256.2z"/>
	<ellipse class="st6" cx="53" cy="268.8" rx="9.9" ry="12.6"/>
	<ellipse class="st3" cx="52.6" cy="268.8" rx="3.2" ry="4.6"/>
	<rect x="69.5" y="266" class="st3" width="11.4" height="2.8"/>
</g>
<g>
	<g>
		<g>
			<path class="st3" d="M405.6,226.9v-44.7c0-1.8-1.4-3.2-3.2-3.2h-59c-1.8,0-3.2,1.4-3.2,3.2v44.7H405.6z"/>
		</g>
		<g>
			<path class="st2" d="M409.8,226.9v-44.7c0-1.8-1.4-3.2-3.2-3.2h-59c-1.8,0-3.2,1.4-3.2,3.2v44.7H409.8z"/>
		</g>
		<g>
			<rect x="340.2" y="226.9" class="st3" width="62.1" height="4.9"/>
		</g>
		<g>
			<rect x="361.7" y="226.9" class="st10" width="62.1" height="4.9"/>
		</g>
		<g>
			<rect x="352.2" y="223.5" class="st1" width="6.2" height="3.5"/>
		</g>
		<g>
			<rect x="397.5" y="223.5" class="st1" width="6.2" height="3.5"/>
		</g>
		<g>
			<g>
				<rect x="348.8" y="183.8" class="st1" width="56.8" height="35.8"/>
			</g>
		</g>
	</g>
	<g>
		<path class="st2" d="M392.8,203.7h-3.4l-0.7,2.6h-2.6l3.5-11.1h3l3.5,11.1h-2.7L392.8,203.7z M392.3,201.7l-0.3-1
			c-0.3-1.1-0.6-2.4-0.9-3.6h-0.1c-0.3,1.2-0.6,2.5-0.9,3.6l-0.3,1H392.3z"/>
		<path class="st2" d="M397.3,195.2h2.5v11.1h-2.5V195.2z"/>
	</g>
	<g>
		<rect x="382.1" y="183.8" class="st2" width="0.8" height="35.8"/>
		<rect x="379.7" y="183.8" class="st2" width="0.8" height="35.8"/>
		<polygon class="st2" points="380.2,190 369.6,190 360.7,181.1 361.3,180.5 370,189.1 380.2,189.1 		"/>
		<polygon class="st2" points="380.2,193.4 368.5,193.4 357,182.1 357.6,181.5 368.8,192.6 380.2,192.6 		"/>
		<polygon class="st2" points="380.2,197.1 367.2,197.1 362.7,192.7 363.3,192.1 367.5,196.3 380.2,196.3 		"/>
		<path class="st2" d="M361.9,193.7c-1.2,0-2.3-1-2.3-2.3c0-1.2,1-2.3,2.3-2.3c1.2,0,2.3,1,2.3,2.3
			C364.2,192.7,363.1,193.7,361.9,193.7z M361.9,190c-0.8,0-1.4,0.6-1.4,1.4c0,0.8,0.6,1.4,1.4,1.4c0.8,0,1.4-0.6,1.4-1.4
			C363.3,190.7,362.7,190,361.9,190z"/>
		<polygon class="st2" points="361.3,222.9 360.7,222.3 369.6,213.5 380.2,213.5 380.2,214.3 370,214.3 		"/>
		<polygon class="st2" points="357.6,221.9 357,221.3 368.5,210 380.2,210 380.2,210.9 368.8,210.9 		"/>
		<polygon class="st2" points="363.3,211.3 362.7,210.7 367.2,206.3 380.2,206.3 380.2,207.2 367.5,207.2 		"/>
		<path class="st2" d="M361.9,214.3c-1.2,0-2.3-1-2.3-2.3c0-1.2,1-2.3,2.3-2.3c1.2,0,2.3,1,2.3,2.3
			C364.2,213.3,363.1,214.3,361.9,214.3z M361.9,210.6c-0.8,0-1.4,0.6-1.4,1.4c0,0.8,0.6,1.4,1.4,1.4c0.8,0,1.4-0.6,1.4-1.4
			C363.3,211.2,362.7,210.6,361.9,210.6z"/>
		<polygon class="st2" points="355.1,211.7 354.5,211.1 362.9,202.8 380.2,202.8 380.2,203.6 363.2,203.6 		"/>
		<polygon class="st2" points="380.2,200.3 362.9,200.3 354.5,191.9 355.1,191.3 363.2,199.4 380.2,199.4 		"/>
		<path class="st2" d="M353.6,215c-1.2,0-2.3-1-2.3-2.3c0-1.2,1-2.3,2.3-2.3c1.2,0,2.3,1,2.3,2.3C355.9,214,354.9,215,353.6,215z
			 M353.6,211.3c-0.8,0-1.4,0.6-1.4,1.4c0,0.8,0.6,1.4,1.4,1.4c0.8,0,1.4-0.6,1.4-1.4C355,212,354.4,211.3,353.6,211.3z"/>
		<path class="st2" d="M353.6,192.5c-1.2,0-2.3-1-2.3-2.3c0-1.2,1-2.3,2.3-2.3c1.2,0,2.3,1,2.3,2.3
			C355.9,191.5,354.9,192.5,353.6,192.5z M353.6,188.9c-0.8,0-1.4,0.6-1.4,1.4c0,0.8,0.6,1.4,1.4,1.4c0.8,0,1.4-0.6,1.4-1.4
			C355,189.5,354.4,188.9,353.6,188.9z"/>
	</g>
</g>
<g>
	<g>
		<rect x="164.6" y="75.1" class="st3" width="4.1" height="5.1"/>
		<rect x="167.4" y="75.1" class="st2" width="4.1" height="5.1"/>
	</g>
	<g>
		<rect x="180.1" y="75.1" class="st3" width="4.1" height="5.1"/>
		<rect x="182.9" y="75.1" class="st2" width="4.1" height="5.1"/>
	</g>
	<g>
		<path class="st1" d="M186.6,15.8c-5.7-6.8-22.3-4.7-24.5,0c0,0,0,0,0,0c1.9,0.1,5.7,0.8,6.5,4.4c1.1,5.2,0.7,11.3-0.3,15.3h19.6
			C188.2,32.7,190.5,20.4,186.6,15.8z"/>
		<path class="st6" d="M168.6,20.2c-0.8-3.6-4.6-4.3-6.5-4.4c-1.9,4-0.5,16.4-0.1,19.7h6.3C169.3,31.4,169.7,25.4,168.6,20.2z"/>
	</g>
	<path class="st3" d="M170.4,35.5h15.9c0.1-1.4,1.6-12.4-0.8-16.9c-2.9-5.6-11-3.9-14.5-2.8c-0.9,0.3-1.3,1.2-1.1,2
		c0.5,1.6,1.1,4.4,1.3,8.4C171.4,30.6,170.7,34.2,170.4,35.5z"/>
	<rect x="169.3" y="35.5" class="st2" width="13.5" height="2.7"/>
	<g>
		<g>
			
				<rect x="194.2" y="50.1" transform="matrix(-0.8896 0.4567 -0.4567 -0.8896 399.4851 24.0542)" class="st1" width="5.3" height="20.5"/>
			
				<rect x="195.5" y="67.1" transform="matrix(-0.9472 -0.3206 0.3206 -0.9472 361.0055 214.2402)" class="st1" width="5.3" height="20.5"/>
			<path class="st2" d="M189.1,53.1l-2.2-12c0,0,8-3.9,9.5,3.9C197.7,51.6,189.1,53.1,189.1,53.1z"/>
		</g>
		<circle class="st2" cx="201.3" cy="68.2" r="4.3"/>
		<path class="st3" d="M198.5,87.4c0,0,0.3,4.5-2.1,9.6c-2.4,5.1-5.1,5.2-6.3,4.9c-2.3-0.6,3.1-9.3,0.9-9c-1.3,0.2-1.7,2.1-2.6,2.9
			c-0.9,0.8-1.9,0.3-1.3-1.7c1.2-4,5.5-9.1,5.5-9.1S196.6,84.3,198.5,87.4z"/>
	</g>
	<path class="st4" d="M183.1,40.3c-0.5-1.4-1.8-2.3-3.3-2.3h-7.3h-0.1H162c-2,0-3.6,1.4-3.9,3.3l-1.8,11.2c-0.2,1.1-0.3,2.1-0.3,3.2
		v16.1h16.9h2.6h11.3V55.5c0-0.9-0.1-1.9-0.4-2.8L183.1,40.3z"/>
	<path class="st5" d="M189.6,40.3c-0.5-1.4-1.8-2.3-3.3-2.3H179h-0.1h-10.5c-2,0-3.6,1.4-3.9,3.3l-1.8,11.2
		c-0.2,1.1-0.3,2.1-0.3,3.2v16.1h16.9h2.6h11.3V55.5c0-0.9-0.1-1.9-0.4-2.8L189.6,40.3z"/>
	<circle class="st1" cx="175.3" cy="23.9" r="2.4"/>
	<circle class="st1" cx="183.3" cy="23.9" r="2.4"/>
	<circle class="st3" cx="175.5" cy="23.9" r="1.3"/>
	<circle class="st3" cx="183.5" cy="23.9" r="1.3"/>
	<rect x="161" y="71.8" class="st2" width="32.3" height="4.3"/>
	<rect x="156" y="71.8" class="st3" width="6.4" height="4.3"/>
	<rect x="166.8" y="65" class="st3" width="22.1" height="4"/>
	<g>
		<rect x="177" y="102.2" class="st3" width="11.7" height="5.2"/>
		<ellipse class="st2" cx="177" cy="104.7" rx="1.9" ry="2.6"/>
		<ellipse class="st3" cx="188.7" cy="104.7" rx="1.9" ry="2.6"/>
		<rect x="175.1" y="80.2" class="st6" width="11.7" height="24.6"/>
		<rect x="178.9" y="80.2" class="st1" width="11.7" height="24.6"/>
		<rect x="180.3" y="80.2" class="st5" width="8.9" height="6.1"/>
	</g>
	<g>
		<rect x="161.5" y="102.2" class="st3" width="11.7" height="5.2"/>
		<ellipse class="st2" cx="161.5" cy="104.7" rx="1.9" ry="2.6"/>
		<ellipse class="st3" cx="173.2" cy="104.7" rx="1.9" ry="2.6"/>
		<rect x="159.6" y="80.2" class="st6" width="11.7" height="24.6"/>
		<rect x="163.4" y="80.2" class="st1" width="11.7" height="24.6"/>
		<rect x="164.9" y="80.2" class="st5" width="8.9" height="6.1"/>
	</g>
	<g>
		<g>
			<path class="st3" d="M157.9,52.6l2.2-12c0,0-8-3.9-9.5,3.9C149.2,51.1,157.9,52.6,157.9,52.6z"/>
			<polygon class="st3" points="157.9,52.6 161.1,52.6 161.1,48.4 157.4,49.5 			"/>
			
				<rect x="147.3" y="50.1" transform="matrix(0.8896 0.4567 -0.4567 0.8896 44.0988 -61.8261)" class="st1" width="5.3" height="20.5"/>
			
				<rect x="146" y="67.1" transform="matrix(0.9472 -0.3206 0.3206 0.9472 -16.969 51.7436)" class="st1" width="5.3" height="20.5"/>
			<polygon class="st3" points="155.7,39.7 159.3,39.7 158.9,41.2 156,41.2 			"/>
			<path class="st2" d="M161.1,52.6l2.2-12c0,0-8-3.9-9.5,3.9C152.5,51.1,161.1,52.6,161.1,52.6z"/>
		</g>
		<circle class="st2" cx="146" cy="68.2" r="4.3"/>
		<path class="st3" d="M148.2,87.4c0,0-0.3,4.5,2.1,9.6c2.4,5.1,5.1,5.2,6.3,4.9c2.3-0.6-3.1-9.3-0.9-9c1.3,0.2,1.7,2.1,2.6,2.9
			c0.9,0.8,1.9,0.3,1.3-1.7c-1.2-4-5.5-9.1-5.5-9.1S150.2,84.3,148.2,87.4z"/>
	</g>
	<g>
		<rect x="175.1" y="107.3" class="st6" width="11.7" height="24.6"/>
		<rect x="178.9" y="107.3" class="st1" width="11.7" height="24.6"/>
		<rect x="180.4" y="125.9" class="st5" width="8.9" height="6.1"/>
	</g>
	<g>
		<rect x="159.6" y="107.3" class="st6" width="11.7" height="24.6"/>
		<rect x="163.4" y="107.3" class="st1" width="11.7" height="24.6"/>
		<rect x="164.9" y="125.9" class="st5" width="8.9" height="6.1"/>
	</g>
	<g>
		<rect x="179" y="131.9" class="st2" width="15.5" height="4.5"/>
		<rect x="175.1" y="131.9" class="st3" width="6.7" height="4.5"/>
	</g>
	<g>
		<rect x="163.4" y="131.9" class="st2" width="15.5" height="4.5"/>
		<rect x="159.6" y="131.9" class="st3" width="6.6" height="4.5"/>
	</g>
</g>
<g>
	<path class="st3" d="M97.3,77.3c-0.3-7.9-3.1-14.2-8-18.4c-3.7-3.1-8.4-4.7-13.3-4.7v0h-7.3v0c-0.8,0-1.5,0.1-2.3,0.2
		c-16.6,2.3-19.1,21.4-19.4,26.6c-0.1,0.8-0.1,4.7-0.1,4.7l7.5,0c0,0,0-3.8,0-4.5c0.3-4.7,2.5-23.5,18.3-26c3.4,0.6,6.7,2,9.3,4.2
		c4.8,4,7.5,10.2,7.7,17.8l0.3,0v0H97v0L97.3,77.3z"/>
	<path class="st2" d="M88.2,77.4v-2.1c0-0.7,0.6-1.3,1.2-1.3h7.3c0.7,0,1.2,0.6,1.2,1.3v2.1h1.2v-2.1c0-1.5-1.1-2.6-2.5-2.6h-7.3
		c-1.4,0-2.5,1.2-2.5,2.6v2.1H88.2z"/>
	<path class="st2" d="M45.8,85.3v-2.1c0-0.7,0.6-1.3,1.2-1.3h7.3c0.7,0,1.2,0.6,1.2,1.3v2.1h1.2v-2.1c0-1.5-1.1-2.6-2.5-2.6H47
		c-1.4,0-2.5,1.2-2.5,2.6v2.1H45.8z"/>
	<g>
		<path class="st3" d="M77.6,77.2c0,0-10.8,0.3-14.4,1.5c-1.9,0.6-4.5,2.5-4.5,6.9s0,5.7,0,7.4c0,1.7,0.7,6,4.7,6.9
			c4.8,1,15.6,1.5,15.6,1.5L77.6,77.2z"/>
		<path class="st6" d="M123.8,89c-0.1-5.8-0.7-11.2-4.5-11.9c-2.6-0.5-17.1-0.4-23.3-0.3c-5.7-0.1-15.9-0.1-18.5,0.3
			c-3.8,0.7-4.4,6-4.5,11.9c0,0.1,0,0.1,0,0.2c0,0.1,0,0.1,0,0.2c0.1,5.8,0.7,11.2,4.5,11.9c2.6,0.5,12.8,0.4,18.5,0.3
			c6.1,0.1,20.7,0.1,23.3-0.3c3.8-0.7,4.4-6,4.5-11.9c0-0.1,0-0.1,0-0.2C123.8,89.2,123.8,89.1,123.8,89z"/>
		<path class="st1" d="M121.7,89.1c-0.1-4.6-0.6-8.7-3.9-9.2c-2.2-0.4-14.8-0.3-20.1-0.3c-5-0.1-13.8-0.1-16,0.3
			c-3.3,0.5-3.8,4.7-3.9,9.2c0,0,0,0.1,0,0.1c0,0,0,0.1,0,0.1c0.1,4.6,0.6,8.7,3.9,9.2c2.2,0.4,11.1,0.3,16,0.3
			c5.3,0.1,17.9,0.1,20.1-0.3c3.3-0.5,3.8-4.7,3.9-9.2c0,0,0-0.1,0-0.1C121.7,89.2,121.7,89.1,121.7,89.1z"/>
		<path class="st9" d="M119.8,89.2c0-3.9-0.5-7.4-3.5-7.9c-2-0.3-13.3-0.3-18-0.2C93.9,81,86,81,84,81.3c-2.9,0.4-3.4,4-3.5,7.9
			c0,0,0,0.1,0,0.1c0,0,0,0.1,0,0.1c0,3.9,0.5,7.4,3.5,7.9c2,0.3,9.9,0.3,14.4,0.2c4.7,0,16,0.1,18-0.2c2.9-0.4,3.4-4,3.5-7.9
			c0,0,0-0.1,0-0.1C119.8,89.2,119.8,89.2,119.8,89.2z"/>
		<path class="st2" d="M70.9,89.2c0-4.4,0.7-8.3-0.4-8.3c-1.6,0-1.7,5.4-1.7,8.3c0,3.4,0.1,8.4,1.7,8.4
			C71.6,97.6,70.9,93.4,70.9,89.2z"/>
	</g>
	<path class="st11" d="M60.7,84.4c-1,0-1.2,2.4-1.2,4.8c0,2.5,0.1,4.7,1.2,4.7c1,0,0.7-3,0.7-4.9C61.3,86.9,61.6,84.4,60.7,84.4z"/>
	<path class="st2" d="M40.5,93.2h19.1c0.5,0,0.8-0.4,0.8-0.8v-6.2c0-0.5-0.4-0.8-0.8-0.8H40.5V93.2z"/>
	<path class="st8" d="M93.7,83.7h-6c-0.4,0-0.7-0.3-0.7-0.7l0,0c0-0.4,0.3-0.7,0.7-0.7h6c0.4,0,0.7,0.3,0.7,0.7l0,0
		C94.4,83.4,94.1,83.7,93.7,83.7z"/>
	<path class="st8" d="M113.8,83.7h-6c-0.4,0-0.7-0.3-0.7-0.7l0,0c0-0.4,0.3-0.7,0.7-0.7h6c0.4,0,0.7,0.3,0.7,0.7l0,0
		C114.6,83.4,114.2,83.7,113.8,83.7z"/>
	<path class="st8" d="M93.7,96.2h-6c-0.4,0-0.7-0.3-0.7-0.7l0,0c0-0.4,0.3-0.7,0.7-0.7h6c0.4,0,0.7,0.3,0.7,0.7l0,0
		C94.4,95.9,94.1,96.2,93.7,96.2z"/>
	<path class="st8" d="M113.8,96.2h-6c-0.4,0-0.7-0.3-0.7-0.7l0,0c0-0.4,0.3-0.7,0.7-0.7h6c0.4,0,0.7,0.3,0.7,0.7l0,0
		C114.6,95.9,114.2,96.2,113.8,96.2z"/>
</g>
<g>
	<path class="st4" d="M240.1,372.5l-1.6-0.7c-0.9-0.5-1.5-1.3-1.8-2.2c-0.4-1.3-0.7-3.9-0.5-6.3c0.3-4,3.5-0.9,3.5-0.9L240.1,372.5z
		"/>
	<path class="st4" d="M289,375.3l-1.6-0.7c-0.9-0.5-1.5-1.3-1.8-2.2c-0.4-1.3-0.8-3.8-0.9-6.9c-0.2-4,3.9-0.3,3.9-0.3L289,375.3z"/>
	<path class="st3" d="M274.8,372.2c0,0,2.6-1.1,3.8-4.2c1.1-3.1,1.7-5.7,2.8-5.9c1.5-0.3,2.3,2.7,2.8,5.3c0.6,2.8,3.3,4.8,3.3,4.8
		s2.7-8-1.7-11c-4.4-3.1-6.5-3.7-8.8,1.5C274.6,367.9,274.8,372.2,274.8,372.2z"/>
	<path class="st5" d="M281.5,360.2c-2.8,0-3,2.6-4,5.5c-1,2.9-1.6,3.9-2.6,6.5c-1,2.6-3.2,5.1-9.2,4.9c-6-0.2-24.8-2.7-26.7-5.6
		s-0.8-12.4-0.8-12.4l18.1-3.1h51.9c0,0-0.4,7.8-1.4,11.9c-0.9,4.1-8.7,6.6-12.2,7.7c-2.7,0.8-6.4,0.9-7.4-2.5
		c-0.9-3.4-1.7-6.6-2.2-8.3C284.5,362.5,283.9,360.2,281.5,360.2z"/>
	<rect x="221" y="352.8" class="st2" width="87.2" height="3.2"/>
	<rect x="206.1" y="352.8" class="st3" width="36.4" height="3.2"/>
	<path class="st3" d="M206.1,365c0,3.4,2.5,2.6,3.1-0.1c0.6-2.7,0.8-4.6,1.3-6.1c0.3-1.2,0.7-2.8,3.1-2.8c-1-2.5-7.6-1.6-7.6-1.6
		S206.1,361.6,206.1,365z"/>
	<path class="st6" d="M245.5,356h-22.2c-1.2,0-2.3,1-2.3,2.3v3.8c0,1.2,1,2.3,2.3,2.3h22.2V356z"/>
	<rect x="266.3" y="357.6" class="st3" width="4.3" height="5.1"/>
	<rect x="245.5" y="356" class="st1" width="20.9" height="8.3"/>
	<circle class="st8" cx="258.4" cy="360.1" r="2.5"/>
	<circle class="st9" cx="258.5" cy="360.2" r="1"/>
</g>
<g>
	<g>
		<path class="st6" d="M120.1,290.4v-0.4h-1.7c-2.3,0-4.1,1.9-4.1,4.1s1.9,4.1,4.1,4.1c2.3,0,4.1-1.9,4.1-4.1
			C122.6,292.5,121.6,291.1,120.1,290.4z"/>
		<path class="st6" d="M137.1,306.5l-1.5-1.3c0,0-2,1.5-4.4,2.7c-0.8,0.4-2.7,0.4-4-2.4c-2.1-4.5-4.6-12.9-4.6-12.9l-7.2,4.1
			c0,0,5.7,9.3,8.6,13c1.1,1.4,2.4,1.9,3.7,2v0h1.2v-0.1c1.6-0.3,3-1.2,3.8-1.8C134.4,308.4,137.1,306.5,137.1,306.5z"/>
		<path class="st2" d="M102.4,304.1c0,0,2.8,9.4,4.7,12.1c3.5,5.2,8.8,6.7,8.8,6.7l-9.6-16.4c0,0,3.3-2.9,6.2-5.5
			c3-2.6,5.3-5.9,5.3-5.9l-1.2-2.1c0,0-3,3.9-6.5,6.6C106,302.7,102.4,304.1,102.4,304.1z"/>
		<path class="st3" d="M118,293c0,0-3.4,4.7-6.5,7.3c-2.7,2.2-7.2,4.5-7.2,4.5s1.4,6.3,4,11.1c2.4,4.5,7.8,7.1,7.8,7.1
			s-6.5-11.6-7.2-16c2.4-1.8,9.7-6.5,11.7-9.9C122.2,294.1,118,293,118,293z"/>
		<circle class="st1" cx="120.1" cy="294.2" r="4.1"/>
		<path class="st1" d="M116.7,296.5c0,0,5.7,9.3,8.6,13c2.9,3.7,7.2,1.2,8.8,0c1.6-1.2,4.3-3.1,4.3-3.1l-1.5-1.3c0,0-2,1.5-4.4,2.7
			c-0.8,0.4-2.7,0.4-4-2.4c-2.1-4.5-4.6-12.9-4.6-12.9L116.7,296.5z"/>
		<circle class="st3" cx="120.1" cy="294.2" r="2.4"/>
		<circle class="st1" cx="120.1" cy="294.2" r="1.7"/>
	</g>
	<g>
		<path class="st6" d="M176.9,290.4v-0.4h1.7c2.3,0,4.1,1.9,4.1,4.1s-1.9,4.1-4.1,4.1s-4.1-1.9-4.1-4.1
			C174.4,292.5,175.4,291.1,176.9,290.4z"/>
		<path class="st6" d="M159.9,306.5l1.5-1.3c0,0,2,1.5,4.4,2.7c0.8,0.4,2.7,0.4,4-2.4c2.1-4.5,4.6-12.9,4.6-12.9l7.2,4.1
			c0,0-5.7,9.3-8.6,13c-1.1,1.4-2.4,1.9-3.7,2v0H168v-0.1c-1.6-0.3-3-1.2-3.8-1.8C162.6,308.4,159.9,306.5,159.9,306.5z"/>
		<path class="st2" d="M194.6,304.1c0,0-2.8,9.4-4.7,12.1c-3.5,5.2-8.8,6.7-8.8,6.7l9.6-16.4c0,0-3.3-2.9-6.2-5.5
			c-3-2.6-5.3-5.9-5.3-5.9l1.2-2.1c0,0,3,3.9,6.5,6.6C191,302.7,194.6,304.1,194.6,304.1z"/>
		<path class="st3" d="M179,293c0,0,3.4,4.7,6.5,7.3c2.7,2.2,7.2,4.5,7.2,4.5s-1.4,6.3-4,11.1c-2.4,4.5-7.8,7.1-7.8,7.1
			s6.5-11.6,7.2-16c-2.4-1.8-9.7-6.5-11.7-9.9C174.8,294.1,179,293,179,293z"/>
		<circle class="st1" cx="176.9" cy="294.2" r="4.1"/>
		<path class="st1" d="M180.3,296.5c0,0-5.7,9.3-8.6,13c-2.9,3.7-7.2,1.2-8.8,0c-1.6-1.2-4.3-3.1-4.3-3.1l1.5-1.3c0,0,2,1.5,4.4,2.7
			c0.8,0.4,2.7,0.4,4-2.4c2.1-4.5,4.6-12.9,4.6-12.9L180.3,296.5z"/>
		<circle class="st3" cx="176.9" cy="294.2" r="2.4"/>
		<circle class="st1" cx="176.9" cy="294.2" r="1.7"/>
	</g>
	<g>
		<path class="st1" d="M165.8,285.3c-1.5-3.5-4-9.8-7.3-15.4c-2.2-3.7-5.8-5.7-9.5-5.5c-3.7-0.2-7.2,1.8-9.5,5.5
			c-3.4,5.6-11.1,26.5-11.1,26.5s1.6,10.6,14,13.6h13.1c12.4-3,14.1-13.6,14.1-13.6S168.1,290.8,165.8,285.3z"/>
		<path class="st6" d="M158.3,274.4c-1.4-3.6-4.8-7.5-9.1-7.5v0c0,0,0,0,0,0c0,0,0,0,0,0v0c-4.2,0-7.6,3.8-9.1,7.5
			c-1.4,3.6-8.6,21.9-8.6,21.9s4.2,11.2,11.5,11.2c3.8,0,5.3,0,5.9,0c0.4,0,0.4,0,0.4,0c0.6,0,2.1,0,5.9,0
			c7.3,0,11.5-11.2,11.5-11.2S159.7,278.1,158.3,274.4z"/>
		<path class="st8" d="M149.1,274.4C149.1,274.4,149.1,274.4,149.1,274.4c-0.1,0-0.1,0-0.1,0c-4.6,0-8.3,3.7-8.3,8.3
			c0,2,0.7,3.9,1.9,5.3c0,0,3,4.3,3,7h3.4h3.4c0-2.7,3-7,3-7c1.2-1.4,1.9-3.3,1.9-5.3C157.4,278.1,153.7,274.4,149.1,274.4z"/>
		<g>
			<path class="st3" d="M157.5,295.1h-17c-1.7,0-3,1.6-2.7,3.2c0.1,0.7,0.3,1.4,0.5,2.1h21.2c0.2-0.7,0.4-1.3,0.6-2
				C160.6,296.8,159.3,295.1,157.5,295.1z"/>
			<path class="st2" d="M148.6,309c6.5,0,9.5-4.5,11-8.5h-21.2C139.6,304.6,142.4,309,148.6,309z"/>
		</g>
		<rect x="143.1" y="307.4" class="st3" width="11.2" height="2.7"/>
		<path class="st9" d="M151.6,295.1v-12.9c0-1.3-1.1-2.3-2.3-2.3c-1.3,0-2.3,1.1-2.3,2.3v12.9H151.6z"/>
	</g>
	<g>
		<rect x="147.9" y="290.1" class="st2" width="2.8" height="21.4"/>
		<rect x="147.9" y="295.1" class="st3" width="2.8" height="27.8"/>
	</g>
</g>
<g>
	<rect x="35.2" y="353.5" class="st3" width="59.4" height="3.5"/>
	<g>
		<path class="st1" d="M70.7,311c-4,0-10.9-2.3-10.9-5.9c0-3.5,3.6-4.1,8.9-4.1h6.1c-2.2-3.4-5.9-5.7-10.1-5.7
			c-6.7,0-12.2,5.8-12.2,13c0,7.2,5.4,13,12.2,13c6.6,0,11.9-5.6,12.1-12.5C75.2,309.9,72.8,311,70.7,311z"/>
		<path class="st3" d="M59.9,305.1c0,3.5,6.9,5.9,10.9,5.9c2.1,0,4.4-1.1,6.2-2.2c0-0.2,0-0.3,0-0.5c0-2.7-0.8-5.2-2.1-7.3h-6.1
			C63.5,301,59.9,301.6,59.9,305.1z"/>
	</g>
	<g>
		<path class="st5" d="M94.6,353.2c0-12.7-6-23-13.5-23h-4.5v1.3c-5.2,3.2-9,11.7-9,21.7c0,0.1,0,0.2,0,0.3h9v0h4.5v0h13.5
			C94.6,353.4,94.6,353.3,94.6,353.2z"/>
		<path class="st4" d="M90.1,353.5c0-0.1,0-0.2,0-0.3c0-12.7-6-23-13.5-23c-7.4,0-13.5,10.3-13.5,23c0,0.1,0,0.2,0,0.3H90.1z"/>
	</g>
	<g>
		<path class="st1" d="M84.3,329.1h-18c-1.6,0-2.9-1.3-2.9-2.9s1.3-2.9,2.9-2.9h15.3c-2.3-4.6-4.6-8.3-4.6-8.3H63.7h-4h-7
			c0,0-5.4,8.7-7.9,15.6c-2.5,7-2.8,22.9-2.8,22.9h17.7h4h24.1c0,0-0.3-15.9-2.8-22.9C84.8,330.1,84.6,329.6,84.3,329.1z"/>
		<path class="st3" d="M63.4,326.2c0,1.6,1.3,2.9,2.9,2.9h18c-0.8-1.9-1.7-3.9-2.7-5.8H66.3C64.7,323.3,63.4,324.6,63.4,326.2z"/>
	</g>
	<g>
		<path class="st5" d="M66.6,353.2c0-12.7-6-23-13.5-23h-4.5v1.3c-5.2,3.2-9,11.7-9,21.7c0,0.1,0,0.2,0,0.3h9v0h4.5v0h13.5
			C66.6,353.4,66.6,353.3,66.6,353.2z"/>
		<path class="st4" d="M62.1,353.5c0-0.1,0-0.2,0-0.3c0-12.7-6-23-13.5-23c-7.4,0-13.5,10.3-13.5,23c0,0.1,0,0.2,0,0.3H62.1z"/>
	</g>
	<path class="st3" d="M77.5,315H52.2c-0.7,0-1.3-0.6-1.3-1.3l0,0c0-0.7,0.6-1.3,1.3-1.3h25.3c0.7,0,1.3,0.6,1.3,1.3l0,0
		C78.7,314.4,78.2,315,77.5,315z"/>
	<circle class="st1" cx="63.9" cy="305.5" r="1.7"/>
	<circle class="st1" cx="74.4" cy="305.5" r="1.7"/>
	<ellipse class="st3" cx="55" cy="306.9" rx="3.1" ry="4.1"/>
	<path class="st3" d="M57.2,355.2c0-0.6,0.1-1.1,0.1-1.7c0-8.5-4.1-15.4-9.2-15.4c-5.1,0-9.2,6.9-9.2,15.4c0,0.6,0,1.1,0.1,1.7H57.2
		z"/>
</g>
<g>
	<rect x="329.5" y="117.7" class="st2" width="17.2" height="2.3"/>
	<path class="st4" d="M333.7,120.2c0,0-0.1,0-0.1,0c0.4-0.1,0.8-0.3,1.2-0.3c0,0-8.8-2.1-13.4-0.8c-4.6,1.3-7.3,2.5-9.1,9.1
		c-1.7,6.6-1.5,21.9-1.2,27c0.3,5.1,0.6,13.9,6,16.9c5.3,3,11.9,2.4,14,2.1c2.1-0.2,2.6-0.7,2.6-0.7s-0.2-0.1-0.4-0.2
		c0.2-0.1,0.3-0.1,0.5-0.1c-6.5-2.8-7.3-10.1-7.5-18.1c0-1.1,0-2.2-0.1-3.1l0.1,0c0,0-0.1-1.1-0.1-4.4c0-0.1,0-0.2,0-0.3
		c0-0.2,0-0.4,0-0.6c0-0.2,0-0.4,0-0.6c0-0.1,0-0.2,0-0.3c0-3.3,0.1-4.3,0.1-4.4l-0.1,0c0-1,0-2,0.1-3.1
		C326.3,130.3,327.1,123,333.7,120.2z"/>
	<rect x="345" y="117.2" class="st3" width="0.8" height="2.9"/>
	<rect x="329.1" y="119.5" class="st3" width="18" height="0.9"/>
	<path class="st5" d="M334.2,172.6c-0.4,0.1-0.7,0.3-1.2,0.4c-1.8,0.5-4.2,0.8-7.3,0.8c-12.8,0-14-9.1-14.2-19.2
		c0-1.1,0-2.1-0.1-3.1l0.1,0c0,0-0.1-1.1-0.1-4.3c0-0.1,0-0.2,0-0.3c0-0.2,0-0.4,0-0.6c0-0.2,0-0.4,0-0.6c0-0.1,0-0.2,0-0.3
		c0-3.3,0.1-4.3,0.1-4.3l-0.1,0c0-1,0-2,0.1-3.1c0.2-10.1,1.4-19.2,14.2-19.2v0h1.6c2.4,0.1,6.6,1,6.9,1.2c4.6,1.7,4.7,4.5,4.7,4.5
		l16.1,0c0-0.1,0-1.6-1.6-3.2c-1.4-1.4-6.2-3.4-10.8-3.4c-4.2,0-17,0-17,0c-13.5,0-14.9,9.9-15.1,20c-0.1,2.9-0.1,5.2-0.1,7
		c0,0.3,0,0.5,0,0.8c0,0.2,0,0.3,0,0.5c0,0.2,0,0.3,0,0.5c0,0.3,0,0.6,0,0.8c0,1.8,0,4.1,0.1,7c0.2,10.1,1.5,20,15.1,20h14.7v0
		c0.2,0,0.4,0,0.6,0c7.4,0,10.8-1.9,12.4-3.4c1.6-1.6,1.6-3.1,1.6-3.2l-16.1,0C338.9,168.1,338.8,171,334.2,172.6z"/>
	<g>
		<path class="st4" d="M335.3,168.2c-3.9,0-7.1-3.2-7.1-7.1v-29.8c0-3.9,3.2-7.1,7.1-7.1h21.6c3.9,0,7.1,3.2,7.1,7.1v29.8
			c0,3.9-3.2,7.1-7.1,7.1H335.3z"/>
		<path class="st5" d="M331.2,161.3v-30.2c0-3.8,3.1-6.9,6.9-6.9h20.2c3.8,0,6.9,3.1,6.9,6.9v30.2c0,3.8-3.1,6.9-6.9,6.9h-20.2
			C334.3,168.2,331.2,165.1,331.2,161.3z"/>
		<path class="st3" d="M358.4,166.5h-20.3c-2.9,0-5.2-2.4-5.2-5.2v-30.1c0-2.9,2.4-5.2,5.2-5.2h20.3c2.9,0,5.2,2.4,5.2,5.2v30.1
			C363.6,164.1,361.3,166.5,358.4,166.5z"/>
		<g>
			<rect x="336.4" y="130.7" class="st2" width="23.5" height="30.9"/>
			<path class="st1" d="M360.4,162H336v-31.7h24.4V162z M336.9,161.2h22.7v-30.1h-22.7V161.2z"/>
		</g>
		<g>
			<path class="st1" d="M339.8,139.8h1v-2.7h-0.9v-0.7c0.5-0.1,0.8-0.2,1.2-0.4h0.8v3.8h0.9v0.9h-3V139.8z"/>
			<path class="st1" d="M343.8,139.5c0.3,0.3,0.6,0.5,1,0.5c0.5,0,0.8-0.3,0.8-0.7c0-0.5-0.3-0.7-0.7-0.7c-0.3,0-0.4,0.1-0.7,0.2
				l-0.5-0.3l0.1-2.4h2.7v0.9h-1.7l-0.1,0.9c0.2-0.1,0.3-0.1,0.5-0.1c0.8,0,1.5,0.5,1.5,1.5c0,1-0.8,1.6-1.7,1.6
				c-0.8,0-1.3-0.3-1.7-0.7L343.8,139.5z"/>
			<path class="st1" d="M348.2,137c0.4,0,0.7,0.3,0.7,0.7c0,0.4-0.3,0.7-0.7,0.7c-0.4,0-0.7-0.3-0.7-0.7
				C347.5,137.3,347.8,137,348.2,137z M348.2,139.4c0.4,0,0.7,0.3,0.7,0.7c0,0.4-0.3,0.7-0.7,0.7c-0.4,0-0.7-0.3-0.7-0.7
				C347.5,139.7,347.8,139.4,348.2,139.4z"/>
			<path class="st1" d="M349.5,138.3c0-1.6,0.7-2.4,1.7-2.4c1,0,1.7,0.8,1.7,2.4c0,1.6-0.7,2.5-1.7,2.5
				C350.2,140.8,349.5,139.9,349.5,138.3z M351.9,138.3c0-1.3-0.3-1.6-0.7-1.6c-0.4,0-0.7,0.3-0.7,1.6c0,1.3,0.3,1.6,0.7,1.6
				C351.6,140,351.9,139.6,351.9,138.3z"/>
			<path class="st1" d="M353.4,138.3c0-1.6,0.7-2.4,1.7-2.4c1,0,1.7,0.8,1.7,2.4c0,1.6-0.7,2.5-1.7,2.5
				C354.1,140.8,353.4,139.9,353.4,138.3z M355.8,138.3c0-1.3-0.3-1.6-0.7-1.6c-0.4,0-0.7,0.3-0.7,1.6c0,1.3,0.3,1.6,0.7,1.6
				C355.5,140,355.8,139.6,355.8,138.3z"/>
		</g>
		<g>
			<path class="st1" d="M341,150.4c0.2,0.2,0.5,0.3,0.7,0.3c0.3,0,0.4-0.1,0.4-0.3c0-0.2-0.2-0.3-0.4-0.4l-0.4-0.2
				c-0.3-0.1-0.6-0.4-0.6-0.8c0-0.5,0.5-0.9,1.1-0.9c0.3,0,0.7,0.1,1,0.4l-0.3,0.4c-0.2-0.2-0.4-0.2-0.6-0.2c-0.2,0-0.4,0.1-0.4,0.3
				c0,0.2,0.2,0.3,0.5,0.4l0.4,0.2c0.4,0.1,0.6,0.4,0.6,0.8c0,0.5-0.4,0.9-1.1,0.9c-0.4,0-0.8-0.1-1.1-0.4L341,150.4z"/>
			<path class="st1" d="M343.3,149h0.7v1.3c0,0.3,0.1,0.4,0.3,0.4c0.2,0,0.3-0.1,0.4-0.3V149h0.7v2.3h-0.6l-0.1-0.3h0
				c-0.2,0.2-0.4,0.4-0.7,0.4c-0.5,0-0.7-0.4-0.7-0.9V149z"/>
			<path class="st1" d="M345.9,149h0.6l0,0.3h0c0.2-0.2,0.4-0.4,0.7-0.4c0.5,0,0.7,0.4,0.7,0.9v1.4h-0.7v-1.3c0-0.3-0.1-0.4-0.3-0.4
				c-0.2,0-0.3,0.1-0.4,0.2v1.6h-0.7V149z"/>
			<path class="st1" d="M349.5,148.9c0.3,0,0.4,0.1,0.6,0.2l0-0.4V148h0.7v3.3h-0.6l0-0.2h0c-0.2,0.2-0.4,0.3-0.6,0.3
				c-0.6,0-0.9-0.5-0.9-1.2C348.5,149.4,349,148.9,349.5,148.9z M349.6,150.8c0.1,0,0.3-0.1,0.4-0.2v-0.9c-0.1-0.1-0.3-0.1-0.4-0.1
				c-0.2,0-0.4,0.2-0.4,0.6C349.2,150.6,349.3,150.8,349.6,150.8z"/>
			<path class="st1" d="M352.5,149.8c0-0.2-0.1-0.3-0.4-0.3c-0.2,0-0.4,0.1-0.6,0.2l-0.2-0.5c0.3-0.2,0.6-0.3,1-0.3
				c0.6,0,0.9,0.3,0.9,1v1.3h-0.6l-0.1-0.2h0c-0.2,0.2-0.4,0.3-0.7,0.3c-0.4,0-0.7-0.3-0.7-0.7C351.2,150.2,351.6,149.9,352.5,149.8
				z M352.1,150.8c0.2,0,0.3-0.1,0.4-0.2v-0.4c-0.5,0.1-0.6,0.2-0.6,0.4C351.9,150.7,352,150.8,352.1,150.8z"/>
			<path class="st1" d="M354,151.7c0.2,0,0.3-0.1,0.4-0.3l0-0.1l-0.9-2.3h0.7l0.3,1c0.1,0.2,0.1,0.4,0.2,0.7h0
				c0.1-0.2,0.1-0.4,0.2-0.7l0.3-1h0.7l-0.8,2.3c-0.2,0.6-0.5,0.9-1,0.9c-0.1,0-0.2,0-0.3,0l0.1-0.5
				C353.9,151.6,353.9,151.7,354,151.7z"/>
		</g>
		<g>
			<path class="st1" d="M341.5,156.1c0.8-0.7,1.3-1.2,1.3-1.6c0-0.3-0.2-0.4-0.4-0.4c-0.2,0-0.4,0.1-0.5,0.3l-0.4-0.4
				c0.3-0.3,0.6-0.5,1-0.5c0.6,0,1,0.4,1,0.9c0,0.5-0.5,1-0.9,1.5c0.1,0,0.4,0,0.5,0h0.6v0.6h-2.1V156.1z"/>
			<path class="st1" d="M344.2,155.9h0.6v-1.7h-0.6v-0.4c0.3-0.1,0.5-0.1,0.7-0.3h0.5v2.4h0.6v0.6h-1.9V155.9z"/>
			<path class="st1" d="M347.8,155.7c0.2,0.2,0.5,0.3,0.7,0.3c0.3,0,0.4-0.1,0.4-0.3c0-0.2-0.2-0.3-0.4-0.4l-0.4-0.2
				c-0.3-0.1-0.6-0.4-0.6-0.8c0-0.5,0.5-0.9,1.1-0.9c0.4,0,0.7,0.1,1,0.4l-0.3,0.4c-0.2-0.2-0.4-0.2-0.6-0.2c-0.2,0-0.4,0.1-0.4,0.3
				c0,0.2,0.2,0.3,0.5,0.4l0.4,0.2c0.4,0.1,0.6,0.4,0.6,0.8c0,0.5-0.4,0.9-1.1,0.9c-0.4,0-0.8-0.1-1.1-0.4L347.8,155.7z"/>
			<path class="st1" d="M351.1,154.1c0.7,0,1,0.5,1,1.1c0,0.1,0,0.2,0,0.3h-1.4c0.1,0.4,0.3,0.5,0.6,0.5c0.2,0,0.3-0.1,0.5-0.2
				l0.2,0.4c-0.2,0.2-0.5,0.3-0.8,0.3c-0.7,0-1.2-0.4-1.2-1.2C350,154.6,350.6,154.1,351.1,154.1z M351.5,155.1
				c0-0.3-0.1-0.5-0.4-0.5c-0.2,0-0.4,0.1-0.4,0.5H351.5z"/>
			<path class="st1" d="M353.3,156.7v0.7h-0.7v-3.2h0.6l0,0.2h0c0.2-0.2,0.4-0.3,0.7-0.3c0.6,0,0.9,0.5,0.9,1.2c0,0.8-0.5,1.3-1,1.3
				c-0.2,0-0.4-0.1-0.6-0.2L353.3,156.7z M353.6,156c0.2,0,0.4-0.2,0.4-0.7c0-0.4-0.1-0.6-0.4-0.6c-0.1,0-0.3,0.1-0.4,0.2v0.9
				C353.4,156,353.5,156,353.6,156z"/>
		</g>
	</g>
	<rect x="320.7" y="117.2" class="st2" width="8.4" height="3.2"/>
	<rect x="329.1" y="117.2" class="st3" width="18" height="0.9"/>
	<rect x="329.1" y="117.4" class="st3" width="0.8" height="2.9"/>
	<rect x="335.5" y="123.1" class="st2" width="20" height="1.1"/>
	<rect x="337.3" y="123.1" class="st3" width="20" height="1.1"/>
	<rect x="335.5" y="168.2" class="st2" width="20" height="1.1"/>
	<rect x="337.3" y="168.2" class="st3" width="20" height="1.1"/>
	<g>
		<path class="st5" d="M319.2,141.1c-0.1,0-0.3,0-0.4,0.1c0.5,0.2,0.8,0.6,0.8,1.2c0,0.5-0.4,1-0.8,1.2c0.1,0,0.3,0.1,0.4,0.1
			c0.7,0,1.2-0.6,1.2-1.2C320.4,141.7,319.8,141.1,319.2,141.1z"/>
		<path class="st12" d="M319.6,142.4c0-0.5-0.4-1-0.8-1.2c-0.5,0.2-0.8,0.6-0.8,1.2c0,0.5,0.4,1,0.8,1.2
			C319.3,143.4,319.6,142.9,319.6,142.4z"/>
	</g>
	<g>
		<path class="st5" d="M319.2,132.7c-0.1,0-0.3,0-0.4,0.1c0.5,0.2,0.8,0.6,0.8,1.2c0,0.5-0.4,1-0.8,1.2c0.1,0,0.3,0.1,0.4,0.1
			c0.7,0,1.2-0.6,1.2-1.2S319.8,132.7,319.2,132.7z"/>
		<path class="st12" d="M319.6,133.9c0-0.5-0.4-1-0.8-1.2c-0.5,0.2-0.8,0.6-0.8,1.2c0,0.5,0.4,1,0.8,1.2
			C319.3,134.9,319.6,134.5,319.6,133.9z"/>
	</g>
	<g>
		<path class="st5" d="M319.2,149.6c-0.1,0-0.3,0-0.4,0.1c0.5,0.2,0.8,0.6,0.8,1.2c0,0.5-0.4,1-0.8,1.2c0.1,0,0.3,0.1,0.4,0.1
			c0.7,0,1.2-0.6,1.2-1.2S319.8,149.6,319.2,149.6z"/>
		<path class="st12" d="M319.6,150.8c0-0.5-0.4-1-0.8-1.2c-0.5,0.2-0.8,0.6-0.8,1.2c0,0.5,0.4,1,0.8,1.2
			C319.3,151.8,319.6,151.4,319.6,150.8z"/>
	</g>
	<g>
		<path class="st5" d="M319.2,158.1c-0.1,0-0.3,0-0.4,0.1c0.5,0.2,0.8,0.6,0.8,1.2c0,0.5-0.4,1-0.8,1.2c0.1,0,0.3,0.1,0.4,0.1
			c0.7,0,1.2-0.6,1.2-1.2C320.4,158.7,319.8,158.1,319.2,158.1z"/>
		<path class="st12" d="M319.6,159.4c0-0.5-0.4-1-0.8-1.2c-0.5,0.2-0.8,0.6-0.8,1.2c0,0.5,0.4,1,0.8,1.2
			C319.3,160.3,319.6,159.9,319.6,159.4z"/>
	</g>
</g>
<g>
	<g>
		<g>
			<g>
				<path class="st3" d="M105.8,119c0-1.4-1.2-2.5-2.6-2.5H33c-1.4,0-2.6,1.1-2.6,2.5v43.7h75.3V119z"/>
			</g>
			<g>
				<path class="st6" d="M33,170.9h70.1c1.4,0,2.6-1.1,2.6-2.5v-5.7H30.4v5.7C30.4,169.7,31.6,170.9,33,170.9z"/>
			</g>
		</g>
		<g>
			<g>
				<rect x="60.3" y="169.8" class="st3" width="18.8" height="9"/>
			</g>
			<g>
				<rect x="62.5" y="169.8" class="st2" width="18.8" height="9"/>
			</g>
			<g>
				<rect x="55" y="177.9" class="st6" width="23.3" height="2.5"/>
			</g>
			<g>
				<rect x="62.5" y="177.9" class="st1" width="23.3" height="2.5"/>
			</g>
			<g>
				<g>
					<path class="st2" d="M109.6,119c0-1.4-1.2-2.5-2.6-2.5H36.9c-1.4,0-2.6,1.1-2.6,2.5v43.7h75.3V119z"/>
				</g>
				<g>
					<path class="st1" d="M36.9,170.9H107c1.4,0,2.6-1.1,2.6-2.5v-5.7H34.3v5.7C34.3,169.7,35.4,170.9,36.9,170.9z"/>
				</g>
			</g>
		</g>
		<g>
			<rect x="37.1" y="120.1" class="st7" width="69.6" height="1.3"/>
			<rect x="37.1" y="123.7" class="st1" width="69.6" height="35.3"/>
		</g>
		<path class="st5" d="M76.1,167c0,0.4-0.3,0.7-0.7,0.7h-4.1c-0.4,0-0.7-0.3-0.7-0.7l0,0c0-0.4,0.3-0.7,0.7-0.7h4.1
			C75.7,166.2,76.1,166.6,76.1,167L76.1,167z"/>
	</g>
	<g>
		<path class="st2" d="M39,128.4c0-1.4,0.6-2,1.4-2c0.9,0,1.4,0.7,1.4,2c0,1.4-0.6,2.1-1.4,2.1C39.6,130.5,39,129.7,39,128.4z
			 M41,128.4c0-1.1-0.2-1.3-0.6-1.3c-0.3,0-0.6,0.2-0.6,1.3c0,1.1,0.2,1.4,0.6,1.4C40.8,129.7,41,129.5,41,128.4z"/>
		<path class="st2" d="M42.5,129.6h0.9v-2.3h-0.7v-0.6c0.4-0.1,0.7-0.2,1-0.4h0.7v3.2h0.7v0.7h-2.5V129.6z"/>
		<path class="st2" d="M45.6,128.4c0-1.4,0.6-2,1.4-2c0.9,0,1.4,0.7,1.4,2c0,1.4-0.6,2.1-1.4,2.1C46.2,130.5,45.6,129.7,45.6,128.4z
			 M47.6,128.4c0-1.1-0.2-1.3-0.6-1.3c-0.3,0-0.6,0.2-0.6,1.3c0,1.1,0.2,1.4,0.6,1.4C47.4,129.7,47.6,129.5,47.6,128.4z"/>
		<path class="st2" d="M49.1,129.6H50v-2.3h-0.7v-0.6c0.4-0.1,0.7-0.2,1-0.4h0.7v3.2h0.7v0.7h-2.5V129.6z"/>
		<path class="st2" d="M52.4,129.6h0.9v-2.3h-0.7v-0.6c0.4-0.1,0.7-0.2,1-0.4h0.7v3.2H55v0.7h-2.5V129.6z"/>
		<path class="st2" d="M55.7,129.6h0.9v-2.3h-0.7v-0.6c0.4-0.1,0.7-0.2,1-0.4h0.7v3.2h0.7v0.7h-2.5V129.6z"/>
		<path class="st2" d="M58.8,128.4c0-1.4,0.6-2,1.4-2c0.9,0,1.4,0.7,1.4,2c0,1.4-0.6,2.1-1.4,2.1C59.4,130.5,58.8,129.7,58.8,128.4z
			 M60.8,128.4c0-1.1-0.2-1.3-0.6-1.3c-0.3,0-0.6,0.2-0.6,1.3c0,1.1,0.2,1.4,0.6,1.4C60.6,129.7,60.8,129.5,60.8,128.4z"/>
		<path class="st2" d="M62.1,128.4c0-1.4,0.6-2,1.4-2c0.9,0,1.4,0.7,1.4,2c0,1.4-0.6,2.1-1.4,2.1C62.7,130.5,62.1,129.7,62.1,128.4z
			 M64.1,128.4c0-1.1-0.2-1.3-0.6-1.3c-0.3,0-0.6,0.2-0.6,1.3c0,1.1,0.2,1.4,0.6,1.4C63.9,129.7,64.1,129.5,64.1,128.4z"/>
		<path class="st2" d="M65.4,128.4c0-1.4,0.6-2,1.4-2c0.9,0,1.4,0.7,1.4,2c0,1.4-0.6,2.1-1.4,2.1C66,130.5,65.4,129.7,65.4,128.4z
			 M67.4,128.4c0-1.1-0.2-1.3-0.6-1.3c-0.3,0-0.6,0.2-0.6,1.3c0,1.1,0.2,1.4,0.6,1.4C67.2,129.7,67.4,129.5,67.4,128.4z"/>
		<path class="st2" d="M69,129.6h0.9v-2.3h-0.7v-0.6c0.4-0.1,0.7-0.2,1-0.4h0.7v3.2h0.7v0.7H69V129.6z"/>
		<path class="st2" d="M72.1,128.4c0-1.4,0.6-2,1.4-2c0.9,0,1.4,0.7,1.4,2c0,1.4-0.6,2.1-1.4,2.1C72.6,130.5,72.1,129.7,72.1,128.4z
			 M74,128.4c0-1.1-0.2-1.3-0.6-1.3c-0.3,0-0.6,0.2-0.6,1.3c0,1.1,0.2,1.4,0.6,1.4C73.8,129.7,74,129.5,74,128.4z"/>
		<path class="st2" d="M75.6,129.6h0.9v-2.3h-0.7v-0.6c0.4-0.1,0.7-0.2,1-0.4h0.7v3.2h0.7v0.7h-2.5V129.6z"/>
		<path class="st2" d="M78.7,128.4c0-1.4,0.6-2,1.4-2c0.9,0,1.4,0.7,1.4,2c0,1.4-0.6,2.1-1.4,2.1C79.2,130.5,78.7,129.7,78.7,128.4z
			 M80.6,128.4c0-1.1-0.2-1.3-0.6-1.3c-0.3,0-0.6,0.2-0.6,1.3c0,1.1,0.2,1.4,0.6,1.4C80.4,129.7,80.6,129.5,80.6,128.4z"/>
		<path class="st2" d="M82.2,129.6H83v-2.3h-0.7v-0.6c0.4-0.1,0.7-0.2,1-0.4H84v3.2h0.7v0.7h-2.5V129.6z"/>
		<path class="st2" d="M85.3,128.4c0-1.4,0.6-2,1.4-2c0.9,0,1.4,0.7,1.4,2c0,1.4-0.6,2.1-1.4,2.1C85.8,130.5,85.3,129.7,85.3,128.4z
			 M87.2,128.4c0-1.1-0.2-1.3-0.6-1.3c-0.3,0-0.6,0.2-0.6,1.3c0,1.1,0.2,1.4,0.6,1.4C87,129.7,87.2,129.5,87.2,128.4z"/>
		<path class="st2" d="M88.6,128.4c0-1.4,0.6-2,1.4-2c0.9,0,1.4,0.7,1.4,2c0,1.4-0.6,2.1-1.4,2.1C89.1,130.5,88.6,129.7,88.6,128.4z
			 M90.5,128.4c0-1.1-0.2-1.3-0.6-1.3c-0.3,0-0.6,0.2-0.6,1.3c0,1.1,0.2,1.4,0.6,1.4C90.3,129.7,90.5,129.5,90.5,128.4z"/>
		<path class="st2" d="M91.9,128.4c0-1.4,0.6-2,1.4-2c0.9,0,1.4,0.7,1.4,2c0,1.4-0.6,2.1-1.4,2.1C92.4,130.5,91.9,129.7,91.9,128.4z
			 M93.8,128.4c0-1.1-0.2-1.3-0.6-1.3c-0.3,0-0.6,0.2-0.6,1.3c0,1.1,0.2,1.4,0.6,1.4C93.6,129.7,93.8,129.5,93.8,128.4z"/>
		<path class="st2" d="M95.4,129.6h0.9v-2.3h-0.7v-0.6c0.4-0.1,0.7-0.2,1-0.4h0.7v3.2h0.7v0.7h-2.5V129.6z"/>
		<path class="st2" d="M98.5,128.4c0-1.4,0.6-2,1.4-2c0.9,0,1.4,0.7,1.4,2c0,1.4-0.6,2.1-1.4,2.1C99,130.5,98.5,129.7,98.5,128.4z
			 M100.4,128.4c0-1.1-0.2-1.3-0.6-1.3c-0.3,0-0.6,0.2-0.6,1.3c0,1.1,0.2,1.4,0.6,1.4C100.2,129.7,100.4,129.5,100.4,128.4z"/>
		<path class="st2" d="M101.8,128.4c0-1.4,0.6-2,1.4-2c0.9,0,1.4,0.7,1.4,2c0,1.4-0.6,2.1-1.4,2.1
			C102.3,130.5,101.8,129.7,101.8,128.4z M103.7,128.4c0-1.1-0.2-1.3-0.6-1.3c-0.3,0-0.6,0.2-0.6,1.3c0,1.1,0.2,1.4,0.6,1.4
			C103.5,129.7,103.7,129.5,103.7,128.4z"/>
		<path class="st2" d="M39.2,136h0.9v-2.3h-0.7v-0.6c0.4-0.1,0.7-0.2,1-0.4H41v3.2h0.7v0.7h-2.5V136z"/>
		<path class="st2" d="M42.3,134.7c0-1.4,0.6-2,1.4-2c0.9,0,1.4,0.7,1.4,2s-0.6,2.1-1.4,2.1C42.9,136.8,42.3,136.1,42.3,134.7z
			 M44.3,134.7c0-1.1-0.2-1.3-0.6-1.3c-0.3,0-0.6,0.2-0.6,1.3c0,1.1,0.2,1.4,0.6,1.4C44.1,136.1,44.3,135.8,44.3,134.7z"/>
		<path class="st2" d="M45.8,136h0.9v-2.3H46v-0.6c0.4-0.1,0.7-0.2,1-0.4h0.7v3.2h0.7v0.7h-2.5V136z"/>
		<path class="st2" d="M48.9,134.7c0-1.4,0.6-2,1.4-2c0.9,0,1.4,0.7,1.4,2s-0.6,2.1-1.4,2.1C49.5,136.8,48.9,136.1,48.9,134.7z
			 M50.9,134.7c0-1.1-0.2-1.3-0.6-1.3c-0.3,0-0.6,0.2-0.6,1.3c0,1.1,0.2,1.4,0.6,1.4C50.7,136.1,50.9,135.8,50.9,134.7z"/>
		<path class="st2" d="M52.4,136h0.9v-2.3h-0.7v-0.6c0.4-0.1,0.7-0.2,1-0.4h0.7v3.2H55v0.7h-2.5V136z"/>
		<path class="st2" d="M55.5,134.7c0-1.4,0.6-2,1.4-2c0.9,0,1.4,0.7,1.4,2s-0.6,2.1-1.4,2.1C56.1,136.8,55.5,136.1,55.5,134.7z
			 M57.5,134.7c0-1.1-0.2-1.3-0.6-1.3c-0.3,0-0.6,0.2-0.6,1.3c0,1.1,0.2,1.4,0.6,1.4C57.3,136.1,57.5,135.8,57.5,134.7z"/>
		<path class="st2" d="M58.8,134.7c0-1.4,0.6-2,1.4-2c0.9,0,1.4,0.7,1.4,2s-0.6,2.1-1.4,2.1C59.4,136.8,58.8,136.1,58.8,134.7z
			 M60.8,134.7c0-1.1-0.2-1.3-0.6-1.3c-0.3,0-0.6,0.2-0.6,1.3c0,1.1,0.2,1.4,0.6,1.4C60.6,136.1,60.8,135.8,60.8,134.7z"/>
		<path class="st2" d="M62.4,136h0.9v-2.3h-0.7v-0.6c0.4-0.1,0.7-0.2,1-0.4h0.7v3.2h0.7v0.7h-2.5V136z"/>
		<path class="st2" d="M65.4,134.7c0-1.4,0.6-2,1.4-2c0.9,0,1.4,0.7,1.4,2s-0.6,2.1-1.4,2.1C66,136.8,65.4,136.1,65.4,134.7z
			 M67.4,134.7c0-1.1-0.2-1.3-0.6-1.3c-0.3,0-0.6,0.2-0.6,1.3c0,1.1,0.2,1.4,0.6,1.4C67.2,136.1,67.4,135.8,67.4,134.7z"/>
		<path class="st2" d="M69,136h0.9v-2.3h-0.7v-0.6c0.4-0.1,0.7-0.2,1-0.4h0.7v3.2h0.7v0.7H69V136z"/>
		<path class="st2" d="M72.3,136h0.9v-2.3h-0.7v-0.6c0.4-0.1,0.7-0.2,1-0.4H74v3.2h0.7v0.7h-2.5V136z"/>
		<path class="st2" d="M75.4,134.7c0-1.4,0.6-2,1.4-2c0.9,0,1.4,0.7,1.4,2s-0.6,2.1-1.4,2.1C75.9,136.8,75.4,136.1,75.4,134.7z
			 M77.3,134.7c0-1.1-0.2-1.3-0.6-1.3c-0.3,0-0.6,0.2-0.6,1.3c0,1.1,0.2,1.4,0.6,1.4C77.1,136.1,77.3,135.8,77.3,134.7z"/>
		<path class="st2" d="M78.7,134.7c0-1.4,0.6-2,1.4-2c0.9,0,1.4,0.7,1.4,2s-0.6,2.1-1.4,2.1C79.2,136.8,78.7,136.1,78.7,134.7z
			 M80.6,134.7c0-1.1-0.2-1.3-0.6-1.3c-0.3,0-0.6,0.2-0.6,1.3c0,1.1,0.2,1.4,0.6,1.4C80.4,136.1,80.6,135.8,80.6,134.7z"/>
		<path class="st2" d="M82,134.7c0-1.4,0.6-2,1.4-2c0.9,0,1.4,0.7,1.4,2s-0.6,2.1-1.4,2.1C82.5,136.8,82,136.1,82,134.7z
			 M83.9,134.7c0-1.1-0.2-1.3-0.6-1.3c-0.3,0-0.6,0.2-0.6,1.3c0,1.1,0.2,1.4,0.6,1.4C83.7,136.1,83.9,135.8,83.9,134.7z"/>
		<path class="st2" d="M85.5,136h0.9v-2.3h-0.7v-0.6c0.4-0.1,0.7-0.2,1-0.4h0.7v3.2H88v0.7h-2.5V136z"/>
		<path class="st2" d="M88.6,134.7c0-1.4,0.6-2,1.4-2c0.9,0,1.4,0.7,1.4,2s-0.6,2.1-1.4,2.1C89.1,136.8,88.6,136.1,88.6,134.7z
			 M90.5,134.7c0-1.1-0.2-1.3-0.6-1.3c-0.3,0-0.6,0.2-0.6,1.3c0,1.1,0.2,1.4,0.6,1.4C90.3,136.1,90.5,135.8,90.5,134.7z"/>
		<path class="st2" d="M92.1,136h0.9v-2.3h-0.7v-0.6c0.4-0.1,0.7-0.2,1-0.4h0.7v3.2h0.7v0.7h-2.5V136z"/>
		<path class="st2" d="M95.2,134.7c0-1.4,0.6-2,1.4-2c0.9,0,1.4,0.7,1.4,2s-0.6,2.1-1.4,2.1C95.7,136.8,95.2,136.1,95.2,134.7z
			 M97.1,134.7c0-1.1-0.2-1.3-0.6-1.3c-0.3,0-0.6,0.2-0.6,1.3c0,1.1,0.2,1.4,0.6,1.4C96.9,136.1,97.1,135.8,97.1,134.7z"/>
		<path class="st2" d="M98.7,136h0.9v-2.3h-0.7v-0.6c0.4-0.1,0.7-0.2,1-0.4h0.7v3.2h0.7v0.7h-2.5V136z"/>
		<path class="st2" d="M101.8,134.7c0-1.4,0.6-2,1.4-2c0.9,0,1.4,0.7,1.4,2s-0.6,2.1-1.4,2.1C102.3,136.8,101.8,136.1,101.8,134.7z
			 M103.7,134.7c0-1.1-0.2-1.3-0.6-1.3c-0.3,0-0.6,0.2-0.6,1.3c0,1.1,0.2,1.4,0.6,1.4C103.5,136.1,103.7,135.8,103.7,134.7z"/>
		<path class="st2" d="M39,141c0-1.4,0.6-2,1.4-2c0.9,0,1.4,0.7,1.4,2c0,1.4-0.6,2.1-1.4,2.1C39.6,143.1,39,142.4,39,141z M41,141
			c0-1.1-0.2-1.3-0.6-1.3c-0.3,0-0.6,0.2-0.6,1.3c0,1.1,0.2,1.4,0.6,1.4C40.8,142.4,41,142.1,41,141z"/>
		<path class="st2" d="M42.5,142.3h0.9V140h-0.7v-0.6c0.4-0.1,0.7-0.2,1-0.4h0.7v3.2h0.7v0.7h-2.5V142.3z"/>
		<path class="st2" d="M45.8,142.3h0.9V140H46v-0.6c0.4-0.1,0.7-0.2,1-0.4h0.7v3.2h0.7v0.7h-2.5V142.3z"/>
		<path class="st2" d="M48.9,141c0-1.4,0.6-2,1.4-2c0.9,0,1.4,0.7,1.4,2c0,1.4-0.6,2.1-1.4,2.1C49.5,143.1,48.9,142.4,48.9,141z
			 M50.9,141c0-1.1-0.2-1.3-0.6-1.3c-0.3,0-0.6,0.2-0.6,1.3c0,1.1,0.2,1.4,0.6,1.4C50.7,142.4,50.9,142.1,50.9,141z"/>
		<path class="st2" d="M52.4,142.3h0.9V140h-0.7v-0.6c0.4-0.1,0.7-0.2,1-0.4h0.7v3.2H55v0.7h-2.5V142.3z"/>
		<path class="st2" d="M55.5,141c0-1.4,0.6-2,1.4-2c0.9,0,1.4,0.7,1.4,2c0,1.4-0.6,2.1-1.4,2.1C56.1,143.1,55.5,142.4,55.5,141z
			 M57.5,141c0-1.1-0.2-1.3-0.6-1.3c-0.3,0-0.6,0.2-0.6,1.3c0,1.1,0.2,1.4,0.6,1.4C57.3,142.4,57.5,142.1,57.5,141z"/>
		<path class="st2" d="M58.8,141c0-1.4,0.6-2,1.4-2c0.9,0,1.4,0.7,1.4,2c0,1.4-0.6,2.1-1.4,2.1C59.4,143.1,58.8,142.4,58.8,141z
			 M60.8,141c0-1.1-0.2-1.3-0.6-1.3c-0.3,0-0.6,0.2-0.6,1.3c0,1.1,0.2,1.4,0.6,1.4C60.6,142.4,60.8,142.1,60.8,141z"/>
		<path class="st2" d="M62.4,142.3h0.9V140h-0.7v-0.6c0.4-0.1,0.7-0.2,1-0.4h0.7v3.2h0.7v0.7h-2.5V142.3z"/>
		<path class="st2" d="M65.4,141c0-1.4,0.6-2,1.4-2c0.9,0,1.4,0.7,1.4,2c0,1.4-0.6,2.1-1.4,2.1C66,143.1,65.4,142.4,65.4,141z
			 M67.4,141c0-1.1-0.2-1.3-0.6-1.3c-0.3,0-0.6,0.2-0.6,1.3c0,1.1,0.2,1.4,0.6,1.4C67.2,142.4,67.4,142.1,67.4,141z"/>
		<path class="st2" d="M69,142.3h0.9V140h-0.7v-0.6c0.4-0.1,0.7-0.2,1-0.4h0.7v3.2h0.7v0.7H69V142.3z"/>
		<path class="st2" d="M72.1,141c0-1.4,0.6-2,1.4-2c0.9,0,1.4,0.7,1.4,2c0,1.4-0.6,2.1-1.4,2.1C72.6,143.1,72.1,142.4,72.1,141z
			 M74,141c0-1.1-0.2-1.3-0.6-1.3c-0.3,0-0.6,0.2-0.6,1.3c0,1.1,0.2,1.4,0.6,1.4C73.8,142.4,74,142.1,74,141z"/>
		<path class="st2" d="M75.6,142.3h0.9V140h-0.7v-0.6c0.4-0.1,0.7-0.2,1-0.4h0.7v3.2h0.7v0.7h-2.5V142.3z"/>
		<path class="st2" d="M78.7,141c0-1.4,0.6-2,1.4-2c0.9,0,1.4,0.7,1.4,2c0,1.4-0.6,2.1-1.4,2.1C79.2,143.1,78.7,142.4,78.7,141z
			 M80.6,141c0-1.1-0.2-1.3-0.6-1.3c-0.3,0-0.6,0.2-0.6,1.3c0,1.1,0.2,1.4,0.6,1.4C80.4,142.4,80.6,142.1,80.6,141z"/>
		<path class="st2" d="M82.2,142.3H83V140h-0.7v-0.6c0.4-0.1,0.7-0.2,1-0.4H84v3.2h0.7v0.7h-2.5V142.3z"/>
		<path class="st2" d="M85.3,141c0-1.4,0.6-2,1.4-2c0.9,0,1.4,0.7,1.4,2c0,1.4-0.6,2.1-1.4,2.1C85.8,143.1,85.3,142.4,85.3,141z
			 M87.2,141c0-1.1-0.2-1.3-0.6-1.3c-0.3,0-0.6,0.2-0.6,1.3c0,1.1,0.2,1.4,0.6,1.4C87,142.4,87.2,142.1,87.2,141z"/>
		<path class="st2" d="M88.8,142.3h0.9V140h-0.7v-0.6c0.4-0.1,0.7-0.2,1-0.4h0.7v3.2h0.7v0.7h-2.5V142.3z"/>
		<path class="st2" d="M92.1,142.3h0.9V140h-0.7v-0.6c0.4-0.1,0.7-0.2,1-0.4h0.7v3.2h0.7v0.7h-2.5V142.3z"/>
		<path class="st2" d="M95.2,141c0-1.4,0.6-2,1.4-2c0.9,0,1.4,0.7,1.4,2c0,1.4-0.6,2.1-1.4,2.1C95.7,143.1,95.2,142.4,95.2,141z
			 M97.1,141c0-1.1-0.2-1.3-0.6-1.3c-0.3,0-0.6,0.2-0.6,1.3c0,1.1,0.2,1.4,0.6,1.4C96.9,142.4,97.1,142.1,97.1,141z"/>
		<path class="st2" d="M98.7,142.3h0.9V140h-0.7v-0.6c0.4-0.1,0.7-0.2,1-0.4h0.7v3.2h0.7v0.7h-2.5V142.3z"/>
		<path class="st2" d="M101.8,141c0-1.4,0.6-2,1.4-2c0.9,0,1.4,0.7,1.4,2c0,1.4-0.6,2.1-1.4,2.1C102.3,143.1,101.8,142.4,101.8,141z
			 M103.7,141c0-1.1-0.2-1.3-0.6-1.3c-0.3,0-0.6,0.2-0.6,1.3c0,1.1,0.2,1.4,0.6,1.4C103.5,142.4,103.7,142.1,103.7,141z"/>
		<path class="st2" d="M39,147.3c0-1.4,0.6-2,1.4-2c0.9,0,1.4,0.7,1.4,2c0,1.4-0.6,2.1-1.4,2.1C39.6,149.4,39,148.7,39,147.3z
			 M41,147.3c0-1.1-0.2-1.3-0.6-1.3c-0.3,0-0.6,0.2-0.6,1.3c0,1.1,0.2,1.4,0.6,1.4C40.8,148.7,41,148.4,41,147.3z"/>
		<path class="st2" d="M42.3,147.3c0-1.4,0.6-2,1.4-2c0.9,0,1.4,0.7,1.4,2c0,1.4-0.6,2.1-1.4,2.1C42.9,149.4,42.3,148.7,42.3,147.3z
			 M44.3,147.3c0-1.1-0.2-1.3-0.6-1.3c-0.3,0-0.6,0.2-0.6,1.3c0,1.1,0.2,1.4,0.6,1.4C44.1,148.7,44.3,148.4,44.3,147.3z"/>
		<path class="st2" d="M45.8,148.6h0.9v-2.3H46v-0.6c0.4-0.1,0.7-0.2,1-0.4h0.7v3.2h0.7v0.7h-2.5V148.6z"/>
		<path class="st2" d="M48.9,147.3c0-1.4,0.6-2,1.4-2c0.9,0,1.4,0.7,1.4,2c0,1.4-0.6,2.1-1.4,2.1C49.5,149.4,48.9,148.7,48.9,147.3z
			 M50.9,147.3c0-1.1-0.2-1.3-0.6-1.3c-0.3,0-0.6,0.2-0.6,1.3c0,1.1,0.2,1.4,0.6,1.4C50.7,148.7,50.9,148.4,50.9,147.3z"/>
		<path class="st2" d="M52.2,147.3c0-1.4,0.6-2,1.4-2c0.9,0,1.4,0.7,1.4,2c0,1.4-0.6,2.1-1.4,2.1C52.8,149.4,52.2,148.7,52.2,147.3z
			 M54.2,147.3c0-1.1-0.2-1.3-0.6-1.3c-0.3,0-0.6,0.2-0.6,1.3c0,1.1,0.2,1.4,0.6,1.4C54,148.7,54.2,148.4,54.2,147.3z"/>
		<path class="st2" d="M55.7,148.6h0.9v-2.3h-0.7v-0.6c0.4-0.1,0.7-0.2,1-0.4h0.7v3.2h0.7v0.7h-2.5V148.6z"/>
		<path class="st2" d="M58.8,147.3c0-1.4,0.6-2,1.4-2c0.9,0,1.4,0.7,1.4,2c0,1.4-0.6,2.1-1.4,2.1C59.4,149.4,58.8,148.7,58.8,147.3z
			 M60.8,147.3c0-1.1-0.2-1.3-0.6-1.3c-0.3,0-0.6,0.2-0.6,1.3c0,1.1,0.2,1.4,0.6,1.4C60.6,148.7,60.8,148.4,60.8,147.3z"/>
		<path class="st2" d="M62.4,148.6h0.9v-2.3h-0.7v-0.6c0.4-0.1,0.7-0.2,1-0.4h0.7v3.2h0.7v0.7h-2.5V148.6z"/>
		<path class="st2" d="M65.7,148.6h0.9v-2.3h-0.7v-0.6c0.4-0.1,0.7-0.2,1-0.4h0.7v3.2h0.7v0.7h-2.5V148.6z"/>
		<path class="st2" d="M68.8,147.3c0-1.4,0.6-2,1.4-2c0.9,0,1.4,0.7,1.4,2c0,1.4-0.6,2.1-1.4,2.1C69.3,149.4,68.8,148.7,68.8,147.3z
			 M70.7,147.3c0-1.1-0.2-1.3-0.6-1.3c-0.3,0-0.6,0.2-0.6,1.3c0,1.1,0.2,1.4,0.6,1.4C70.5,148.7,70.7,148.4,70.7,147.3z"/>
		<path class="st2" d="M72.3,148.6h0.9v-2.3h-0.7v-0.6c0.4-0.1,0.7-0.2,1-0.4H74v3.2h0.7v0.7h-2.5V148.6z"/>
		<path class="st2" d="M75.4,147.3c0-1.4,0.6-2,1.4-2c0.9,0,1.4,0.7,1.4,2c0,1.4-0.6,2.1-1.4,2.1C75.9,149.4,75.4,148.7,75.4,147.3z
			 M77.3,147.3c0-1.1-0.2-1.3-0.6-1.3c-0.3,0-0.6,0.2-0.6,1.3c0,1.1,0.2,1.4,0.6,1.4C77.1,148.7,77.3,148.4,77.3,147.3z"/>
		<path class="st2" d="M78.9,148.6h0.9v-2.3H79v-0.6c0.4-0.1,0.7-0.2,1-0.4h0.7v3.2h0.7v0.7h-2.5V148.6z"/>
		<path class="st2" d="M82,147.3c0-1.4,0.6-2,1.4-2c0.9,0,1.4,0.7,1.4,2c0,1.4-0.6,2.1-1.4,2.1C82.5,149.4,82,148.7,82,147.3z
			 M83.9,147.3c0-1.1-0.2-1.3-0.6-1.3c-0.3,0-0.6,0.2-0.6,1.3c0,1.1,0.2,1.4,0.6,1.4C83.7,148.7,83.9,148.4,83.9,147.3z"/>
		<path class="st2" d="M85.5,148.6h0.9v-2.3h-0.7v-0.6c0.4-0.1,0.7-0.2,1-0.4h0.7v3.2H88v0.7h-2.5V148.6z"/>
		<path class="st2" d="M88.6,147.3c0-1.4,0.6-2,1.4-2c0.9,0,1.4,0.7,1.4,2c0,1.4-0.6,2.1-1.4,2.1C89.1,149.4,88.6,148.7,88.6,147.3z
			 M90.5,147.3c0-1.1-0.2-1.3-0.6-1.3c-0.3,0-0.6,0.2-0.6,1.3c0,1.1,0.2,1.4,0.6,1.4C90.3,148.7,90.5,148.4,90.5,147.3z"/>
		<path class="st2" d="M91.9,147.3c0-1.4,0.6-2,1.4-2c0.9,0,1.4,0.7,1.4,2c0,1.4-0.6,2.1-1.4,2.1C92.4,149.4,91.9,148.7,91.9,147.3z
			 M93.8,147.3c0-1.1-0.2-1.3-0.6-1.3c-0.3,0-0.6,0.2-0.6,1.3c0,1.1,0.2,1.4,0.6,1.4C93.6,148.7,93.8,148.4,93.8,147.3z"/>
		<path class="st2" d="M95.4,148.6h0.9v-2.3h-0.7v-0.6c0.4-0.1,0.7-0.2,1-0.4h0.7v3.2h0.7v0.7h-2.5V148.6z"/>
		<path class="st2" d="M98.5,147.3c0-1.4,0.6-2,1.4-2c0.9,0,1.4,0.7,1.4,2c0,1.4-0.6,2.1-1.4,2.1C99,149.4,98.5,148.7,98.5,147.3z
			 M100.4,147.3c0-1.1-0.2-1.3-0.6-1.3c-0.3,0-0.6,0.2-0.6,1.3c0,1.1,0.2,1.4,0.6,1.4C100.2,148.7,100.4,148.4,100.4,147.3z"/>
		<path class="st2" d="M102,148.6h0.9v-2.3h-0.7v-0.6c0.4-0.1,0.7-0.2,1-0.4h0.7v3.2h0.7v0.7H102V148.6z"/>
		<path class="st2" d="M39.2,154.9h0.9v-2.3h-0.7v-0.6c0.4-0.1,0.7-0.2,1-0.4H41v3.2h0.7v0.7h-2.5V154.9z"/>
		<path class="st2" d="M42.3,153.7c0-1.4,0.6-2,1.4-2c0.9,0,1.4,0.7,1.4,2s-0.6,2.1-1.4,2.1C42.9,155.7,42.3,155,42.3,153.7z
			 M44.3,153.7c0-1.1-0.2-1.3-0.6-1.3c-0.3,0-0.6,0.2-0.6,1.3c0,1.1,0.2,1.4,0.6,1.4C44.1,155,44.3,154.7,44.3,153.7z"/>
		<path class="st2" d="M45.6,153.7c0-1.4,0.6-2,1.4-2c0.9,0,1.4,0.7,1.4,2s-0.6,2.1-1.4,2.1C46.2,155.7,45.6,155,45.6,153.7z
			 M47.6,153.7c0-1.1-0.2-1.3-0.6-1.3c-0.3,0-0.6,0.2-0.6,1.3c0,1.1,0.2,1.4,0.6,1.4C47.4,155,47.6,154.7,47.6,153.7z"/>
		<path class="st2" d="M48.9,153.7c0-1.4,0.6-2,1.4-2c0.9,0,1.4,0.7,1.4,2s-0.6,2.1-1.4,2.1C49.5,155.7,48.9,155,48.9,153.7z
			 M50.9,153.7c0-1.1-0.2-1.3-0.6-1.3c-0.3,0-0.6,0.2-0.6,1.3c0,1.1,0.2,1.4,0.6,1.4C50.7,155,50.9,154.7,50.9,153.7z"/>
		<path class="st2" d="M52.4,154.9h0.9v-2.3h-0.7v-0.6c0.4-0.1,0.7-0.2,1-0.4h0.7v3.2H55v0.7h-2.5V154.9z"/>
		<path class="st2" d="M55.5,153.7c0-1.4,0.6-2,1.4-2c0.9,0,1.4,0.7,1.4,2s-0.6,2.1-1.4,2.1C56.1,155.7,55.5,155,55.5,153.7z
			 M57.5,153.7c0-1.1-0.2-1.3-0.6-1.3c-0.3,0-0.6,0.2-0.6,1.3c0,1.1,0.2,1.4,0.6,1.4C57.3,155,57.5,154.7,57.5,153.7z"/>
		<path class="st2" d="M58.8,153.7c0-1.4,0.6-2,1.4-2c0.9,0,1.4,0.7,1.4,2s-0.6,2.1-1.4,2.1C59.4,155.7,58.8,155,58.8,153.7z
			 M60.8,153.7c0-1.1-0.2-1.3-0.6-1.3c-0.3,0-0.6,0.2-0.6,1.3c0,1.1,0.2,1.4,0.6,1.4C60.6,155,60.8,154.7,60.8,153.7z"/>
		<path class="st2" d="M62.4,154.9h0.9v-2.3h-0.7v-0.6c0.4-0.1,0.7-0.2,1-0.4h0.7v3.2h0.7v0.7h-2.5V154.9z"/>
		<path class="st2" d="M65.4,153.7c0-1.4,0.6-2,1.4-2c0.9,0,1.4,0.7,1.4,2s-0.6,2.1-1.4,2.1C66,155.7,65.4,155,65.4,153.7z
			 M67.4,153.7c0-1.1-0.2-1.3-0.6-1.3c-0.3,0-0.6,0.2-0.6,1.3c0,1.1,0.2,1.4,0.6,1.4C67.2,155,67.4,154.7,67.4,153.7z"/>
		<path class="st2" d="M69,154.9h0.9v-2.3h-0.7v-0.6c0.4-0.1,0.7-0.2,1-0.4h0.7v3.2h0.7v0.7H69V154.9z"/>
		<path class="st2" d="M72.3,154.9h0.9v-2.3h-0.7v-0.6c0.4-0.1,0.7-0.2,1-0.4H74v3.2h0.7v0.7h-2.5V154.9z"/>
		<path class="st2" d="M75.4,153.7c0-1.4,0.6-2,1.4-2c0.9,0,1.4,0.7,1.4,2s-0.6,2.1-1.4,2.1C75.9,155.7,75.4,155,75.4,153.7z
			 M77.3,153.7c0-1.1-0.2-1.3-0.6-1.3c-0.3,0-0.6,0.2-0.6,1.3c0,1.1,0.2,1.4,0.6,1.4C77.1,155,77.3,154.7,77.3,153.7z"/>
		<path class="st2" d="M78.7,153.7c0-1.4,0.6-2,1.4-2c0.9,0,1.4,0.7,1.4,2s-0.6,2.1-1.4,2.1C79.2,155.7,78.7,155,78.7,153.7z
			 M80.6,153.7c0-1.1-0.2-1.3-0.6-1.3c-0.3,0-0.6,0.2-0.6,1.3c0,1.1,0.2,1.4,0.6,1.4C80.4,155,80.6,154.7,80.6,153.7z"/>
		<path class="st2" d="M82,153.7c0-1.4,0.6-2,1.4-2c0.9,0,1.4,0.7,1.4,2s-0.6,2.1-1.4,2.1C82.5,155.7,82,155,82,153.7z M83.9,153.7
			c0-1.1-0.2-1.3-0.6-1.3c-0.3,0-0.6,0.2-0.6,1.3c0,1.1,0.2,1.4,0.6,1.4C83.7,155,83.9,154.7,83.9,153.7z"/>
		<path class="st2" d="M85.5,154.9h0.9v-2.3h-0.7v-0.6c0.4-0.1,0.7-0.2,1-0.4h0.7v3.2H88v0.7h-2.5V154.9z"/>
		<path class="st2" d="M88.6,153.7c0-1.4,0.6-2,1.4-2c0.9,0,1.4,0.7,1.4,2s-0.6,2.1-1.4,2.1C89.1,155.7,88.6,155,88.6,153.7z
			 M90.5,153.7c0-1.1-0.2-1.3-0.6-1.3c-0.3,0-0.6,0.2-0.6,1.3c0,1.1,0.2,1.4,0.6,1.4C90.3,155,90.5,154.7,90.5,153.7z"/>
		<path class="st2" d="M91.9,153.7c0-1.4,0.6-2,1.4-2c0.9,0,1.4,0.7,1.4,2s-0.6,2.1-1.4,2.1C92.4,155.7,91.9,155,91.9,153.7z
			 M93.8,153.7c0-1.1-0.2-1.3-0.6-1.3c-0.3,0-0.6,0.2-0.6,1.3c0,1.1,0.2,1.4,0.6,1.4C93.6,155,93.8,154.7,93.8,153.7z"/>
		<path class="st2" d="M95.4,154.9h0.9v-2.3h-0.7v-0.6c0.4-0.1,0.7-0.2,1-0.4h0.7v3.2h0.7v0.7h-2.5V154.9z"/>
		<path class="st2" d="M98.5,153.7c0-1.4,0.6-2,1.4-2c0.9,0,1.4,0.7,1.4,2s-0.6,2.1-1.4,2.1C99,155.7,98.5,155,98.5,153.7z
			 M100.4,153.7c0-1.1-0.2-1.3-0.6-1.3c-0.3,0-0.6,0.2-0.6,1.3c0,1.1,0.2,1.4,0.6,1.4C100.2,155,100.4,154.7,100.4,153.7z"/>
		<path class="st2" d="M102,154.9h0.9v-2.3h-0.7v-0.6c0.4-0.1,0.7-0.2,1-0.4h0.7v3.2h0.7v0.7H102V154.9z"/>
	</g>
</g>
<g>
	<g>
		<path class="st11" d="M256.9,76.7v-0.4h-1.5v0c-1.4,0.1-2.5,1.2-2.5,2.7v3.2h2.5h1.5h1.3v-3.2C258.2,78.1,257.7,77.2,256.9,76.7z"
			/>
		<path class="st1" d="M259.6,82.3v-3.2c0-1.5-1.2-2.7-2.7-2.7c-1.5,0-2.7,1.2-2.7,2.7v3.2H259.6z"/>
		<polygon class="st3" points="253.6,63 253.6,71.4 255.8,73.1 255.8,79.1 261.3,79.1 261,67.8 		"/>
		<path class="st6" d="M261.9,76.7v-0.4h-1.5v0c-1.4,0.1-2.5,1.2-2.5,2.7v3.2h2.5h1.5h1.3v-3.2C263.2,78.1,262.6,77.2,261.9,76.7z"
			/>
		<path class="st1" d="M264.5,82.3v-3.2c0-1.5-1.2-2.7-2.7-2.7c-1.5,0-2.7,1.2-2.7,2.7v3.2H264.5z"/>
		<rect x="252.9" y="80.6" class="st6" width="6.3" height="9.7"/>
		<rect x="259.2" y="80.6" class="st1" width="5.4" height="9.7"/>
		<rect x="254" y="90.3" class="st3" width="5.1" height="6.2"/>
		<rect x="259.2" y="90.3" class="st2" width="4.8" height="6.2"/>
		<rect x="255.6" y="93.6" class="st3" width="1.9" height="2.9"/>
	</g>
	<path class="st6" d="M228.5,89.6v17c0,1.3,1.1,2.4,2.4,2.4h4.7c1.3,0,2.4-1.1,2.4-2.4v-17H228.5z"/>
	<path class="st1" d="M232,89.6v17c0,1.3,1.1,2.4,2.4,2.4h4.7c1.3,0,2.4-1.1,2.4-2.4v-17H232z"/>
	<path class="st6" d="M243.1,89.6v17c0,1.3,1.1,2.4,2.4,2.4h4.7c1.3,0,2.4-1.1,2.4-2.4v-17H243.1z"/>
	<path class="st1" d="M246.6,89.6v17c0,1.3,1.1,2.4,2.4,2.4h4.7c1.3,0,2.4-1.1,2.4-2.4v-17H246.6z"/>
	<g>
		<path class="st6" d="M239,43.5h-6.7c-1.8,0-3.2,1.4-3.2,3.2v8.4c0,1.8,1.4,3.2,3.2,3.2h6.7V43.5z"/>
		<path class="st1" d="M249.4,58.3h-11.2c-1.8,0-3.2-1.4-3.2-3.2v-8.4c0-1.8,1.4-3.2,3.2-3.2h11.2c1.8,0,3.2,1.4,3.2,3.2v8.4
			C252.6,56.9,251.2,58.3,249.4,58.3z"/>
		<circle class="st3" cx="240.1" cy="49.2" r="1.7"/>
		<circle class="st3" cx="248.2" cy="49.2" r="1.7"/>
		<rect x="239.8" y="53.8" class="st3" width="9" height="1"/>
	</g>
	<g>
		<rect x="234.3" y="58.3" class="st3" width="11.4" height="1.6"/>
		<rect x="237" y="58.3" class="st2" width="10.8" height="1.6"/>
	</g>
	<path class="st4" d="M231.8,59.9h-3c-0.9,0-1.7,0.8-1.7,1.7V88h10C237.1,88,238.4,67.9,231.8,59.9z"/>
	<path class="st5" d="M230.8,59.9h19.9c0.9,0,1.7,0.4,2.2,1.1c1.4,2.1,4.2,7,4.2,13.6c0,8.9,0,13.4,0,13.4h-22.7c0,0,0-8.2,0-12.6
		C234.3,65.3,230.8,59.9,230.8,59.9z"/>
	<rect x="234.3" y="88" class="st2" width="22.7" height="2.7"/>
	<rect x="227.1" y="88" class="st3" width="7.2" height="2.7"/>
	<g>
		<path class="st6" d="M220.8,76.7v-0.4h-1.5v0c-1.4,0.1-2.5,1.2-2.5,2.7v3.2h2.5h1.5h1.3v-3.2C222.1,78.1,221.6,77.2,220.8,76.7z"
			/>
		<path class="st1" d="M223.5,82.3v-3.2c0-1.5-1.2-2.7-2.7-2.7c-1.5,0-2.7,1.2-2.7,2.7v3.2H223.5z"/>
		<rect x="227.1" y="63" class="st2" width="4.3" height="8.4"/>
		<polygon class="st3" points="230,63 230,71.4 227.9,73.1 227.9,79.1 222.4,79.1 222.7,67.8 		"/>
		<polygon class="st2" points="225.7,63 220,68.4 220,79.1 223.9,79.1 223.9,68.9 230,63 		"/>
		<path class="st6" d="M225.7,76.7v-0.4h-1.5v0c-1.4,0.1-2.5,1.2-2.5,2.7v3.2h2.5h1.5h1.3v-3.2C227.1,78.1,226.5,77.2,225.7,76.7z"
			/>
		<path class="st1" d="M228.4,82.3v-3.2c0-1.5-1.2-2.7-2.7-2.7c-1.5,0-2.7,1.2-2.7,2.7v3.2H228.4z"/>
		<rect x="216.8" y="80.6" class="st6" width="6.3" height="9.7"/>
		<rect x="223.1" y="80.6" class="st1" width="5.4" height="9.7"/>
		<rect x="217.9" y="90.3" class="st3" width="5.1" height="6.2"/>
		<rect x="223.1" y="90.3" class="st2" width="4.8" height="6.2"/>
		<rect x="219.5" y="93.6" class="st3" width="1.9" height="2.9"/>
	</g>
	<rect x="251.4" y="108.9" class="st2" width="8.2" height="2.9"/>
	<rect x="243.3" y="108.9" class="st3" width="8.2" height="2.9"/>
	<rect x="236.6" y="108.9" class="st2" width="8.2" height="2.9"/>
	<rect x="228.5" y="108.9" class="st3" width="8.2" height="2.9"/>
	<rect x="234.6" y="104.5" class="st2" width="4" height="4.5"/>
	<rect x="249.2" y="104.5" class="st2" width="4" height="4.5"/>
</g>
<g>
	<g>
		<path class="st6" d="M392.8,302.8L392.8,302.8c1.3-0.6,1.8-2.1,1.3-3.4l-10.2-22.5c-0.6-1.3-2.1-1.8-3.4-1.3h0
			c-1.3,0.6-1.8,2.1-1.3,3.4l10.2,22.5C390,302.8,391.5,303.3,392.8,302.8z"/>
		<path class="st6" d="M384,319.2l4.2-19.3h5.2l-4.5,20.4c-0.3,1.4-1.7,2.2-3,1.9C384.6,321.9,383.7,320.5,384,319.2z"/>
		<circle class="st2" cx="390.8" cy="299.8" r="3.5"/>
		<path class="st2" d="M389.3,318.9c0,0,0.7,3.5-0.6,7.8c-1.3,4.3-3.4,4.6-4.4,4.5c-1.8-0.2,1.4-7.6-0.3-7.1c-1,0.3-1.1,1.9-1.7,2.6
			c-0.6,0.7-1.4,0.4-1.2-1.2c0.5-3.3,3.3-7.8,3.3-7.8S387.4,316.8,389.3,318.9z"/>
		<circle class="st2" cx="380.4" cy="277.3" r="4.6"/>
	</g>
	<g>
		<path class="st1" d="M372.5,330c0.6,11.2-1.5,33.7-2.4,42.5c1-4.5,7.9-36.7,8.8-48.2c0.2-2.8,0.2-5.3,0-7.4
			C375,317.4,371.9,318.5,372.5,330z"/>
		<path class="st2" d="M371.4,330c0.6,11.4-1.6,34.7-2.5,43h1.1c0,0,0-0.2,0.1-0.5c0.9-8.8,3-31.3,2.4-42.5
			c-0.6-11.5,2.5-12.5,6.3-13.2c0-0.4-0.1-0.8-0.1-1.1C374.7,316.3,370.7,317.5,371.4,330z"/>
		<path class="st2" d="M364.4,312.1c9.4,0,10.7-5.8,10.7-5.8l-2.7-2.7h-10.7c-0.9,1.4-2.1,3.8-3.2,7.5
			C360.2,311.7,362.1,312.1,364.4,312.1z"/>
		<path class="st1" d="M378.7,315.7c-0.7-5.4-2.5-8.3-3.6-9.4c0,0-1.3,5.8-10.7,5.8c-2.3,0-4.2-0.4-5.8-0.9
			c-0.4,1.5-0.8,3.2-1.1,5.1c3,1.1,5.3,3.9,4.8,13.7c-0.6,11.4,1.2,34.7,1.9,43h4.8c0.8-8.3,3-31.5,2.5-43
			C370.7,317.5,374.7,316.3,378.7,315.7z"/>
		<path class="st1" d="M361.1,330c0.4-8.8-1.3-11.5-3.8-12.5c-0.5,3.5-0.7,7.6-0.4,12.6c0.6,12.9,2,31.2,2.9,43h3.2
			C362.3,364.6,360.6,341.4,361.1,330z"/>
		<path class="st11" d="M357.3,317.4c-0.9-0.4-2-0.5-3.1-0.7c-0.5-0.1-1-0.2-1.6-0.3c-1.6-0.3-2.7-1.1-3.6-1.9
			c-0.5,2.6-0.7,5.8-0.5,9.7c0.9,12.4,8.9,48.8,8.9,48.8h2.3c-0.9-11.8-2.3-30.1-2.9-43C356.6,325.1,356.8,320.9,357.3,317.4z"/>
		<path class="st11" d="M352.9,315.3c0.5,0.1,1,0.2,1.5,0.3c1,0.2,2.1,0.3,3.1,0.7c0.3-1.9,0.7-3.6,1.1-5.1
			c-4.5-1.5-6.5-4.4-6.5-4.4c-0.5,0.6-1.8,2.7-2.7,6.4C350.1,314.1,351.2,315,352.9,315.3z"/>
		<path class="st2" d="M362.3,330c0.5-9.8-1.8-12.7-4.8-13.7c-0.1,0.4-0.1,0.8-0.2,1.2c2.5,1,4.3,3.7,3.8,12.5
			c-0.6,11.4,1.2,34.6,1.9,43h1.1C363.5,364.7,361.7,341.4,362.3,330z"/>
		<path class="st3" d="M352.7,316.4c0.5,0.1,1,0.2,1.6,0.3c1.1,0.2,2.1,0.3,3.1,0.7c0.1-0.4,0.1-0.8,0.2-1.2c-1-0.4-2-0.5-3.1-0.7
			c-0.5-0.1-1-0.2-1.5-0.3c-1.7-0.3-2.8-1.2-3.5-2.2c-0.1,0.4-0.2,0.9-0.3,1.4C349.9,315.4,351.1,316.1,352.7,316.4z"/>
		<path class="st3" d="M352.1,306.7c0,0,2,2.9,6.5,4.4c1-3.7,2.3-6.1,3.2-7.5h-6.8C353.7,304.8,352.1,306.7,352.1,306.7z"/>
	</g>
	<g>
		<path class="st1" d="M351.3,269.6l23.6,0.1c4.3,0,5.9,2.4,6,6.7c0.1,6.3-0.6,14-3,18.7C374.3,302,354.7,303.5,351.3,269.6z"/>
		<path class="st6" d="M356.8,296.2c2.5,3.9,5.7,5.5,11.3,5.5c2.5,0,5.2-0.7,7.2-1.3l2.6-5.2c0,0-2.7,1.6-7.6,1.9
			c-4.9,0.2-10.4-1.4-13.4-7.8c-3.8-8-0.7-19.6-5.5-19.6c-3.7,0-4.5,1.6-5.1,2.7c-0.7,1.2-0.9,3-0.9,5h6.8
			C352.1,277.3,352.7,290,356.8,296.2z"/>
		<path class="st13" d="M358.5,304.6c3,0,7.1,0,10.3,0c2.7,0,5.3-1.6,6.5-4l0.1-0.2c-2,0.7-4.7,1.3-7.2,1.3c-5.6,0-8.8-1.6-11.3-5.5
			c-4-6.2-4.7-18.9-4.7-18.9h-6.8c0.2,7,4.4,17.5,6.9,23.2C353.3,303,355.7,304.6,358.5,304.6z"/>
	</g>
	<g>
		<rect x="360.7" y="264.2" class="st2" width="7.4" height="5.5"/>
		<g>
			<path class="st6" d="M365,265.5c3.1,0,5.9-1.2,8-3.3c-1.4,0.6-3.1,1-5.1,1.1c-7.3,0.3-11.7-3.4-13.7-5.7
				C355.7,262.2,360,265.5,365,265.5z"/>
			<path class="st1" d="M374.5,247.6c-1.1,1-3.3,2.2-7.3,2.2c0,0,0,0,0,0c-3.1,0-5.5-1-7.5-1.8c-1.4-0.6-2.5-1.1-3.6-1.1
				c-1.6,2-2.5,4.4-2.5,7.2c0,1.2,0.2,2.4,0.6,3.6c2,2.3,6.4,6,13.7,5.7c2-0.1,3.7-0.5,5.1-1.1c2.1-2.1,3.4-5,3.4-8.2
				C376.5,251.7,375.7,249.5,374.5,247.6z"/>
			<path class="st1" d="M367.2,249C367.2,249,367.2,249,367.2,249c3.8,0,5.8-1.1,6.8-2c-2.1-2.6-5.3-4.3-8.9-4.3
				c-3.2,0-6.1,1.3-8.2,3.5c1,0.2,2.1,0.6,3.2,1.1C362,248.1,364.3,249,367.2,249z"/>
			<path class="st3" d="M367.2,249.8C367.2,249.8,367.2,249.8,367.2,249.8c4,0,6.1-1.2,7.3-2.2c-0.2-0.2-0.3-0.5-0.5-0.7
				c-1,0.9-2.9,2-6.7,2c0,0,0,0,0,0c-2.9,0-5.2-0.9-7.1-1.8c-1.1-0.5-2.2-0.9-3.2-1.1c-0.2,0.3-0.5,0.5-0.7,0.8
				c1.1,0,2.2,0.5,3.6,1.1C361.7,248.8,364.1,249.8,367.2,249.8z"/>
		</g>
		<circle class="st3" cx="363.3" cy="252.7" r="1.8"/>
		<circle class="st1" cx="363.3" cy="252.7" r="0.7"/>
		<circle class="st3" cx="372" cy="252.7" r="1.8"/>
		<circle class="st1" cx="372" cy="252.7" r="0.7"/>
		<path class="st3" d="M366.1,259.4h3.3c0,0-0.3,0.9-1.7,0.9C366.4,260.3,366.1,259.4,366.1,259.4z"/>
	</g>
	<g>
		<rect x="357.1" y="276.4" class="st3" width="20.4" height="11.5"/>
		<rect x="358.9" y="276.4" class="st2" width="20.4" height="11.5"/>
		<rect x="361.7" y="278.6" class="st1" width="15" height="6.7"/>
	</g>
	<g>
		<path class="st6" d="M335.9,302.8L335.9,302.8c-1.3-0.6-1.8-2.1-1.3-3.4l10.2-22.5c0.6-1.3,2.1-1.8,3.4-1.3l0,0
			c1.3,0.6,1.8,2.1,1.3,3.4l-10.2,22.5C338.7,302.8,337.2,303.3,335.9,302.8z"/>
		<path class="st6" d="M344.8,319.2l-4.2-19.3h-5.2l4.5,20.4c0.3,1.4,1.7,2.2,3,1.9C344.2,321.9,345.1,320.5,344.8,319.2z"/>
		<circle class="st2" cx="338" cy="299.8" r="3.5"/>
		<path class="st2" d="M339.5,318.9c0,0-0.7,3.5,0.6,7.8c1.3,4.3,3.4,4.6,4.4,4.5c1.8-0.2-1.4-7.6,0.3-7.1c1,0.3,1.1,1.9,1.7,2.6
			c0.6,0.7,1.4,0.4,1.2-1.2c-0.5-3.3-3.3-7.8-3.3-7.8S341.4,316.8,339.5,318.9z"/>
		<circle class="st2" cx="347.5" cy="277.3" r="4.6"/>
	</g>
	<g>
		<path class="st9" d="M372.4,359.7L372.4,359.7l-18.6,0v15.2h4.3h14.2h14.2C386.7,374.9,385.4,360,372.4,359.7z"/>
		<path class="st8" d="M340,374.9c0,0,0.6-15.2,13.9-15.2c13.3,0,14.6,15.2,14.6,15.2H340z"/>
		<path class="st9" d="M362.9,374.9c0-5.7-4.1-10.4-9-10.4c-5,0-9,4.7-9,10.4H362.9z"/>
	</g>
</g>
<g>
	<g>
		<g>
			<path class="st6" d="M267,315.4h-4.3v18.3c0.6-0.2,1.2-0.4,1.9-0.5c2.9-0.6,2.9-0.6,2.9-0.6S272.5,316.3,267,315.4z"/>
			<path class="st1" d="M262.6,315.4c0,0-3.9,0.3-4.2,4.7c-0.4,4.4-3.7,6.9-4.5,9.2c-0.8,2.3,0.2,5.4,2.2,6.9
				c0.9-1.1,2.4-2.5,5.3-3.1c2.9-0.6,2.9-0.6,2.9-0.6S270.1,313.9,262.6,315.4z"/>
			<path class="st3" d="M261.9,334.8l-0.6-0.1c0-0.1,1.7-8.3,2.6-13.6c0.5-3.4-0.7-5-1.6-5.6c0.2-0.1,0.5-0.1,0.8-0.1
				c0.9,0.9,1.9,2.7,1.4,5.8C263.7,326.5,262,334.7,261.9,334.8z"/>
		</g>
		<g>
			<path class="st2" d="M267.9,330.1h-4.1v6.1h10C273.8,336.2,273.3,329.8,267.9,330.1z"/>
			<path class="st3" d="M256.1,336.2c0,0,2-5.8,7.8-6.1c5.4-0.3,5.9,6.1,5.9,6.1H256.1z"/>
			<path class="st6" d="M272.6,336.2c0-2-0.8-2.9-0.8-2.9h-1c0,0,0.6,1.3,0.7,2.9H272.6z"/>
		</g>
	</g>
	<g>
		<path class="st6" d="M299.3,306.5c-2.4-2.2-6.6-4.7-9.4-3.4l0,0l-2.8,1.3l0.9,0.8c-0.7,1.8,0.1,4,3.8,7.3c4.7,4.2,6.9,3.7,8.9,1.2
			C302.8,311.2,302.3,309.1,299.3,306.5z"/>
		<path class="st11" d="M298.5,312c-0.6,0.6-2.1,3.3-2.5,4.7c5.7-1.8,5.8-4.7,5.8-4.7L298.5,312z"/>
		<path class="st1" d="M285.6,306.1c-1,1.9-0.3,4.1,3.7,7.6c4.7,4.2,6.9,3.7,8.9,1.2c2-2.5,1.5-4.5-1.5-7.2
			C293.7,305,287.9,301.6,285.6,306.1z"/>
		<path class="st3" d="M299.1,313.5c-1.3-1.4-3.4-3.4-6-5.5c-3.6-2.9-6.5-2.1-7.6-1.5c0.1-0.2,0.3-0.7,0.5-0.9
			c1.5-0.5,4.3-0.7,7.5,1.9c2.5,2,4.5,3.9,5.9,5.3C299.2,313.1,299.2,313.2,299.1,313.5z"/>
	</g>
	<g>
		<path class="st6" d="M304.6,312L304.6,312L304.6,312c-0.1,0-0.1,0-0.1,0h-2.9c0,0,0.1,0.5,0.2,1.3c-1.7,1.8-2.9,5.3-3.7,7.5
			c-0.8,2.2,0.5,4.6,1.9,6.4c1.3,1.8,3.1-0.1,5.2-0.9c2.2-0.8,3.6,0.2,3.6,0.2s0.1-1.9,0.1-2.2C308.8,321.8,308.7,312.1,304.6,312z"
			/>
		<path class="st1" d="M299.8,312.5c-2.3,1.2-3.9,5.7-4.8,8.3c-0.8,2.2,0.5,4.6,1.9,6.4c1.3,1.8,3.1-0.1,5.2-0.9
			c2.2-0.8,3.7-1.5,3.7-1.5S306.4,309.2,299.8,312.5z"/>
		<path class="st3" d="M303.6,326.4l-0.6,0c0,0,0.1-4-0.3-7.6c-0.1-1.4-0.4-2.2-0.9-2.6c-0.5-0.4-1.3-0.2-2.3-0.1l-0.2,0
			c-1,0.2-1.8,0.1-2.3,0c0.1-0.2,0.2-0.4,0.3-0.6c0.4,0.1,1.1,0.1,1.9,0l0.2,0c1.1-0.2,2.1-0.4,2.8,0.2c0.6,0.5,1,1.4,1.2,3
			C303.7,322.4,303.6,326.4,303.6,326.4z"/>
	</g>
	<g>
		<path class="st2" d="M309.9,326.1l-3.9-1.2l-1.8,5.8l9.6,2.9C313.7,333.7,315.1,327.4,309.9,326.1z"/>
		<path class="st3" d="M296.9,328.5c0,0,3.6-5,9.3-3.5c5.2,1.3,3.8,7.6,3.8,7.6L296.9,328.5z"/>
		<path class="st6" d="M312.5,333.3c0.6-1.9,0.1-3,0.1-3l-1-0.3c0,0,0.2,1.5-0.2,3L312.5,333.3z"/>
	</g>
	<g>
		<path class="st1" d="M244.6,282.3c0-1.8-0.4-2.9-0.9-3.5c-1,0.3-1.9,2.1-1.9,4.9c0,9,2.3,15,2.3,15l3.6-1.6
			C243.9,292.4,244.6,286.7,244.6,282.3z"/>
		<path class="st6" d="M245.8,283.2c-0.1-3.4-1.1-4.8-2.1-4.4c0.5,0.7,0.9,1.8,0.9,3.5c0,4.4-0.7,10.1,3.1,14.9l2.1-0.5
			C249.9,296.7,246,293.8,245.8,283.2z"/>
	</g>
	<path class="st6" d="M289.9,294.4c-1.1-0.3-2.2-0.3-3.3-0.3v0h-9.5v2.3c-3.4,0.9-7.1,1.4-11.9-0.1c-2.4-0.8-4.6-1.1-6.5-1h-8.9v7.2
		c-1.1,2.8-1.1,5.8,0,8.3v6.2h10v0c6,0.1,12.4-3.8,17.3-3.6v2.2h9.5v0c5.1,0,9.1-2.7,10.4-6.4C299.8,301.6,294.3,295.4,289.9,294.4z
		"/>
	<path class="st1" d="M240.7,302.5c2.6-6.9,7.7-8.4,15.3-6.1c11.1,3.4,16.5-3.7,24.7-1.9c4.4,1,9.9,7.1,7.1,14.8
		c-1.9,5.3-9.1,8.5-17.5,4.7c-5.9-2.6-15.7,5.6-23.7,2.3C240.1,313.6,238.6,307.8,240.7,302.5z"/>
	<circle class="st3" cx="276.8" cy="305.5" r="6.8"/>
	<g>
		<g>
			<path class="st6" d="M252.7,315.4h-4.3v18.3c0.6-0.2,1.2-0.4,1.9-0.5c2.9-0.6,2.9-0.6,2.9-0.6S258.1,316.3,252.7,315.4z"/>
			<path class="st1" d="M248.3,315.4c0,0-3.9,0.3-4.2,4.7c-0.4,4.4-3.7,6.9-4.5,9.2c-0.8,2.3,0.2,5.4,2.2,6.9
				c0.9-1.1,2.4-2.5,5.3-3.1c2.9-0.6,2.9-0.6,2.9-0.6S255.8,313.9,248.3,315.4z"/>
			<path class="st3" d="M247.6,334.8l-0.6-0.1c0-0.1,1.7-8.3,2.6-13.6c0.5-3.4-0.7-5-1.6-5.6c0.2-0.1,0.5-0.1,0.8-0.1
				c0.9,0.9,1.9,2.7,1.4,5.8C249.4,326.5,247.6,334.7,247.6,334.8z"/>
		</g>
		<g>
			<path class="st2" d="M253.5,330.1h-4.1v6.1h10C259.4,336.2,258.9,329.8,253.5,330.1z"/>
			<path class="st3" d="M241.8,336.2c0,0,2-5.8,7.8-6.1c5.4-0.3,5.9,6.1,5.9,6.1H241.8z"/>
			<path class="st6" d="M258.2,336.2c0-2-0.8-2.9-0.8-2.9h-1c0,0,0.6,1.3,0.7,2.9H258.2z"/>
		</g>
	</g>
	<g>
		<path class="st6" d="M251.7,304.8H249v10.8h2.7c3,0,5.4-2.4,5.4-5.4C257.1,307.2,254.6,304.8,251.7,304.8z"/>
		<circle class="st1" cx="249" cy="310.2" r="5.4"/>
		<circle class="st3" cx="249" cy="310.2" r="3"/>
	</g>
	<g>
		<g>
			<path class="st6" d="M282.1,313.3c-1.2-3-3.9-7.1-6.9-7.1l0,0H272l0.4,1.1c-1.4,1.3-1.6,3.6,0.3,8.2c2.4,5.8,4.6,6.3,7.5,4.9
				C283.1,319.1,283.6,317,282.1,313.3z"/>
			<path class="st11" d="M279.1,318.7c-0.8,0.3-3.5,1.3-4.5,2.4c5.9,0.9,7.8-2.3,7.9-2.4H279.1z"/>
			<path class="st1" d="M269.8,307.1c-1.7,1.3-2,3.6,0,8.5c2.4,5.8,4.6,6.3,7.5,4.9s3.3-3.4,1.8-7.1
				C277.6,309.6,273.9,304,269.8,307.1z"/>
			<path class="st3" d="M278.8,319.6c-0.6-1.8-1.6-4.5-3.1-7.6c-2-4.2-5-4.7-6.2-4.7c0.1-0.1,0.6-0.4,0.8-0.6c1.6,0.2,4.2,1.2,6,5
				c1.4,2.9,2.4,5.5,3,7.3C279.1,319.2,279,319.3,278.8,319.6z"/>
		</g>
		<g>
			<path class="st6" d="M282.8,319.6L282.8,319.6L282.8,319.6c-0.1,0-0.1,0-0.1,0h-2.9c0,0,0.1,0.5,0.2,1.3
				c-1.7,1.8-2.9,5.3-3.7,7.5c-0.8,2.2,0.5,4.6,1.9,6.4c1.3,1.8,3.1-0.1,5.2-0.9c2.2-0.8,3.7-1.5,3.7-1.5S287.4,319.7,282.8,319.6z"
				/>
			<path class="st1" d="M278,320c-2.3,1.2-3.9,5.7-4.8,8.3c-0.8,2.2,0.5,4.6,1.9,6.4c1.3,1.8,3.1-0.1,5.2-0.9
				c2.2-0.8,3.7-1.5,3.7-1.5S284.6,316.7,278,320z"/>
			<path class="st3" d="M281.8,333.9l-0.6,0c0,0,0.1-4-0.3-7.6c-0.1-1.4-0.4-2.2-0.9-2.6c-0.5-0.4-1.3-0.2-2.3-0.1l-0.2,0
				c-1,0.2-1.8,0.1-2.3,0c0.1-0.2,0.2-0.4,0.3-0.6c0.4,0.1,1.1,0.1,1.9,0l0.2,0c1.1-0.2,2.1-0.4,2.8,0.2c0.6,0.5,1,1.4,1.2,3
				C281.9,329.9,281.8,333.9,281.8,333.9z"/>
		</g>
		<g>
			<path class="st2" d="M287.7,330.1h-4.1v6.1h10C293.6,336.2,293.1,329.8,287.7,330.1z"/>
			<path class="st3" d="M276,336.2c0,0,2-5.8,7.8-6.1c5.4-0.3,5.9,6.1,5.9,6.1H276z"/>
			<path class="st6" d="M292.4,336.2c0-2-0.8-2.9-0.8-2.9h-1c0,0,0.6,1.3,0.7,2.9H292.4z"/>
		</g>
	</g>
	<path class="st3" d="M284.6,294.1c0,0,6.3,1.4,6.3,8.5c0,5.9,4.4,3.7,4.4,0c0-6.8-7.9-8.5-7.9-8.5H284.6z"/>
	<path class="st3" d="M285.6,312.4c-0.4-0.3-1.8-1.8-0.6-4.6c1.7-4.4-0.9-8.2-2.1-9.6c-0.1-0.1-0.8-0.8-1.1-1.2
		c-3.3-2.6-7.5-0.8-11.5,1c-1.7,0.7-3.4,1.4-5,1.9c-3.3,0.9-5.9,0.2-8.7-0.5c-1.5-0.4-3-0.8-4.7-1c-4.5-0.5-7.9,0.5-9.9,1.5
		c-0.2,0.4-0.5,0.9-0.8,1.4c1.7-1,5.3-2.7,10.6-2.1c1.7,0.2,3.2,0.6,4.6,1c2.9,0.7,5.6,1.5,9.1,0.5c1.7-0.4,3.4-1.2,5.1-1.9
		c4-1.7,7.8-3.3,10.7-1.1c0.2,0.2,0.6,0.6,0.7,0.7c0.8,0.9,4,4.7,2.2,9.1c-1.5,3.9,1,5.7,1,5.7l0.1,0.1h8.8c0,0,0.3-0.2,0.5-0.5
		c0.2-0.2,0.4-0.4,0.4-0.4H285.6z"/>
	<g>
		<g>
			<path class="st6" d="M307.1,272.2c-1-3.2-2.1-5.8-4.5-6.3c-0.1,0-0.2,0-0.3,0v0h-1.3v0.4c-1.6,1.1-2.7,4.2-3.1,8.1
				c-0.5,5.3,2.3,6.6,4.7,6.9C307,282,308.4,276.4,307.1,272.2z"/>
			<path class="st1" d="M301.3,281.4c-2.5-0.4-5.3-1.6-4.7-6.9c0.5-5.3,2.4-9,4.8-8.5c2.4,0.5,3.5,3.1,4.5,6.3
				C307.1,276.4,305.7,282,301.3,281.4z"/>
			
				<ellipse transform="matrix(0.5513 -0.8343 0.8343 0.5513 -96.0822 375.7525)" class="st3" cx="301.3" cy="277.2" rx="2.1" ry="2.1"/>
		</g>
		<g>
			<g>
				<path class="st6" d="M293.4,274.2h-0.6l-0.4,3.4h1.3c0,0-0.1,0.1-0.1,0.1c-1.5,2.9-1.8,6.9,3.3,11c2.1,1.7,5.8,6.5,8.9,9.6
					c0.4,0.4,0.8,0.7,1.3,1.1v2h6.5v0c1-0.1,2.1-0.3,3.3-0.7c1.3-0.5,2.5-1.6,3.4-3h-6.1C314.1,297.8,297.1,282.8,293.4,274.2z"/>
				<path class="st2" d="M314.5,281.8c-6.4-4.6-11.4-7.4-15.1-7.6h-6c3.8,8.6,20.7,23.6,20.7,23.6h6.1
					C322.5,294,322.3,287.5,314.5,281.8z"/>
			</g>
			
				<rect x="288.6" y="290.4" transform="matrix(0.7262 -0.6875 0.6875 0.7262 -121.5327 282.1229)" class="st3" width="9.6" height="6.5"/>
			<g>
				<path class="st1" d="M306.7,298.4c-3.3-0.9-5.3-7.3-5.7-11.5c-0.4-4.2-6.5-9.1-8.4-7.6c0,0-0.4-3,0.7-5c-2.5-0.1-4.5,1-5.8,3.5
					c-1.5,2.9-1.8,6.8,3.3,11c2.1,1.7,5.8,6.5,8.9,9.6c1.9,1.9,6.1,4.3,11,2.3c1.3-0.5,2.5-1.6,3.4-2.9
					C312.4,298.4,309.6,299.2,306.7,298.4z"/>
				<path class="st3" d="M308.4,281.9c-6.4-4.6-11.4-7.4-15.1-7.5c-1.1,2-0.7,5-0.7,5c1.9-1.5,8,3.4,8.4,7.6
					c0.4,4.2,2.4,10.6,5.7,11.5c2.9,0.8,5.7,0,7.3-0.6C316.5,294,316.2,287.6,308.4,281.9z"/>
			</g>
			<ellipse class="st6" cx="318.4" cy="294.2" rx="1.7" ry="2.2"/>
		</g>
		<g>
			<path class="st6" d="M292,271c-2-1.6-3.9-2.9-5.7-3v0h-1.7l-0.4,0.6c-1.6,1.3-1,5.1,1.2,9.4c0.9,1.7,1.9,2.8,2.9,3.3v0.5h1.9
				c1.1,0,2.1-0.3,3-0.7C297.3,279.3,295.3,273.8,292,271z"/>
			<path class="st1" d="M291.6,281.2c-2.3,1-5.3,1.6-7.8-3.2c-2.5-4.7-3-8.8-0.7-9.7c2.3-0.9,4.7,0.6,7.2,2.8
				C293.8,273.8,295.7,279.3,291.6,281.2z"/>
			<circle class="st3" cx="289.4" cy="277.7" r="2.1"/>
			<path class="st3" d="M292.4,275.7c-1.7,0-3-1.5-4.2-2.9c-1-1.2-2-2.3-3-2.4c-0.6-0.1-1.2,0.2-1.8,0.8c-0.6,0.7-1.1,1.7-1.3,2.5
				c-0.2-0.5-0.2-0.8-0.3-1.2c0-0.1,0.1-0.2,0.1-0.3c0.8-1.7,1.9-2.6,3.2-2.5c1.3,0.1,2.4,1.3,3.5,2.6c1.4,1.6,2.7,3.2,4.6,2.5
				l0.1,0h1.5l0.2,0.6h-1.6C293.1,275.7,292.8,275.7,292.4,275.7z"/>
		</g>
	</g>
</g>
<g>
	<g>
		<polygon class="st8" points="198.1,187.7 148.3,187.7 148.5,120.7 132.7,105 134.1,103.5 150.5,119.9 150.4,185.7 198.1,185.7 		
			"/>
	</g>
	<g>
		<path class="st8" d="M131.1,106c-2.2,0-4-1.8-4-4c0-2.2,1.8-4,4-4c2.2,0,4,1.8,4,4C135.1,104.2,133.3,106,131.1,106z M131.1,99.9
			c-1.1,0-2,0.9-2,2s0.9,2,2,2c1.1,0,2-0.9,2-2S132.2,99.9,131.1,99.9z"/>
	</g>
	<g>
		<path class="st8" d="M143.3,129.9c-2.2,0-4-1.8-4-4c0-2.2,1.8-4,4-4s4,1.8,4,4C147.3,128.1,145.5,129.9,143.3,129.9z M143.3,123.8
			c-1.1,0-2,0.9-2,2s0.9,2,2,2c1.1,0,2-0.9,2-2S144.4,123.8,143.3,123.8z"/>
	</g>
	<g>
		<path class="st8" d="M201.4,111.9c-2.2,0-4-1.8-4-4c0-2.2,1.8-4,4-4c2.2,0,4,1.8,4,4C205.5,110.1,203.6,111.9,201.4,111.9z
			 M201.4,105.9c-1.1,0-2,0.9-2,2c0,1.1,0.9,2,2,2c1.1,0,2-0.9,2-2C203.5,106.8,202.5,105.9,201.4,105.9z"/>
	</g>
	<g>
		<path class="st8" d="M251.2,122.6c-2.2,0-4-1.8-4-4c0-2.2,1.8-4,4-4c2.2,0,4,1.8,4,4C255.3,120.8,253.5,122.6,251.2,122.6z
			 M251.2,116.6c-1.1,0-2,0.9-2,2s0.9,2,2,2c1.1,0,2-0.9,2-2S252.4,116.6,251.2,116.6z"/>
	</g>
	<g>
		<path class="st8" d="M289.2,100.5c-2.2,0-4-1.8-4-4c0-2.2,1.8-4,4-4c2.2,0,4,1.8,4,4C293.2,98.7,291.4,100.5,289.2,100.5z
			 M289.2,94.5c-1.1,0-2,0.9-2,2c0,1.1,0.9,2,2,2c1.1,0,2-0.9,2-2C291.2,95.4,290.3,94.5,289.2,94.5z"/>
	</g>
	<g>
		<path class="st8" d="M320.4,101.8c-2.2,0-4-1.8-4-4s1.8-4,4-4c2.2,0,4,1.8,4,4S322.6,101.8,320.4,101.8z M320.4,95.7
			c-1.1,0-2,0.9-2,2s0.9,2,2,2c1.1,0,2-0.9,2-2S321.5,95.7,320.4,95.7z"/>
	</g>
	<g>
		<path class="st8" d="M106.2,190.7c-2.2,0-4-1.8-4-4s1.8-4,4-4c2.2,0,4,1.8,4,4S108.4,190.7,106.2,190.7z M106.2,184.6
			c-1.1,0-2,0.9-2,2s0.9,2,2,2c1.1,0,2-0.9,2-2S107.3,184.6,106.2,184.6z"/>
	</g>
	<g>
		<path class="st8" d="M114.9,240.8c-2.2,0-4-1.8-4-4c0-2.2,1.8-4,4-4c2.2,0,4,1.8,4,4C118.9,239,117.1,240.8,114.9,240.8z
			 M114.9,234.7c-1.1,0-2,0.9-2,2c0,1.1,0.9,2,2,2s2-0.9,2-2C116.9,235.6,116,234.7,114.9,234.7z"/>
	</g>
	<g>
		<path class="st8" d="M172.5,283.9c-2.2,0-4-1.8-4-4c0-2.2,1.8-4,4-4c2.2,0,4,1.8,4,4C176.5,282.1,174.7,283.9,172.5,283.9z
			 M172.5,277.9c-1.1,0-2,0.9-2,2c0,1.1,0.9,2,2,2c1.1,0,2-0.9,2-2C174.5,278.8,173.6,277.9,172.5,277.9z"/>
	</g>
	<g>
		<path class="st8" d="M330.6,287.6c-2.2,0-4-1.8-4-4c0-2.2,1.8-4,4-4c2.2,0,4,1.8,4,4C334.6,285.8,332.8,287.6,330.6,287.6z
			 M330.6,281.6c-1.1,0-2,0.9-2,2c0,1.1,0.9,2,2,2c1.1,0,2-0.9,2-2C332.6,282.5,331.7,281.6,330.6,281.6z"/>
	</g>
	<g>
		<path class="st8" d="M321.5,231.7c-2.2,0-4-1.8-4-4c0-2.2,1.8-4,4-4c2.2,0,4,1.8,4,4C325.5,229.9,323.7,231.7,321.5,231.7z
			 M321.5,225.7c-1.1,0-2,0.9-2,2c0,1.1,0.9,2,2,2c1.1,0,2-0.9,2-2C323.5,226.6,322.6,225.7,321.5,225.7z"/>
	</g>
	<g>
		<path class="st8" d="M307.4,175.3c-2.2,0-4-1.8-4-4c0-2.2,1.8-4,4-4c2.2,0,4,1.8,4,4C311.4,173.5,309.6,175.3,307.4,175.3z
			 M307.4,169.2c-1.1,0-2,0.9-2,2c0,1.1,0.9,2,2,2c1.1,0,2-0.9,2-2C309.4,170.1,308.5,169.2,307.4,169.2z"/>
	</g>
	<g>
		<path class="st8" d="M273,272.5c-2.2,0-4-1.8-4-4c0-2.2,1.8-4,4-4c2.2,0,4,1.8,4,4C277,270.7,275.2,272.5,273,272.5z M273,266.5
			c-1.1,0-2,0.9-2,2c0,1.1,0.9,2,2,2c1.1,0,2-0.9,2-2C275,267.4,274.1,266.5,273,266.5z"/>
	</g>
	<g>
		<path class="st8" d="M174.5,361.6c-2.2,0-4-1.8-4-4c0-2.2,1.8-4,4-4s4,1.8,4,4C178.5,359.8,176.7,361.6,174.5,361.6z M174.5,355.6
			c-1.1,0-2,0.9-2,2c0,1.1,0.9,2,2,2c1.1,0,2-0.9,2-2C176.5,356.5,175.6,355.6,174.5,355.6z"/>
	</g>
	<g>
		<path class="st8" d="M226,349.2c-2.2,0-4-1.8-4-4c0-2.2,1.8-4,4-4c2.2,0,4,1.8,4,4C230,347.4,228.2,349.2,226,349.2z M226,343.2
			c-1.1,0-2,0.9-2,2c0,1.1,0.9,2,2,2c1.1,0,2-0.9,2-2C228,344.1,227.1,343.2,226,343.2z"/>
	</g>
	<g>
		<path class="st8" d="M88.6,311.5c-2.2,0-4-1.8-4-4c0-2.2,1.8-4,4-4c2.2,0,4,1.8,4,4C92.6,309.7,90.8,311.5,88.6,311.5z
			 M88.6,305.4c-1.1,0-2,0.9-2,2c0,1.1,0.9,2,2,2s2-0.9,2-2C90.6,306.3,89.7,305.4,88.6,305.4z"/>
	</g>
	<g>
		<polygon class="st8" points="191.9,195.8 142.3,195.8 142.3,128.9 144.3,128.9 144.3,193.8 191.9,193.8 		"/>
	</g>
	<g>
		<polygon class="st8" points="188.3,212.5 130.9,212.5 107.5,189 108.9,187.6 131.8,210.5 188.3,210.5 		"/>
	</g>
	<g>
		<polygon class="st8" points="117.5,234.7 116.1,233.3 130.4,219.1 189.5,219.1 189.5,221.1 131.2,221.1 		"/>
	</g>
	<g>
		<polygon class="st8" points="91.2,306.9 89.8,305.5 146.4,248.9 198.1,248.9 198.1,226.3 200.1,226.3 200.1,250.9 147.2,250.9 		
			"/>
	</g>
	<g>
		<polygon class="st8" points="175.1,278.1 173.6,276.7 192.3,257.4 206.9,257.4 206.9,227.7 208.9,227.7 208.9,259.4 193.2,259.4 
					"/>
	</g>
	<g>
		<polygon class="st8" points="177.6,355.7 176.1,354.4 205.1,323 205.1,279.6 216.9,279.6 216.9,229 218.9,229 218.9,281.6 
			207.1,281.6 207.1,323.8 		"/>
	</g>
	<g>
		<polygon class="st8" points="327.8,282.4 295.7,250.6 241.5,250.6 241.5,229.6 243.5,229.6 243.5,248.6 296.5,248.6 329.2,281 		
			"/>
	</g>
	<g>
		<polygon class="st8" points="269.9,266.6 260.1,257.1 233.3,257.1 233.3,236.1 235.3,236.1 235.3,255.1 261,255.1 271.3,265.2 		
			"/>
	</g>
	<g>
		<rect x="225" y="239" class="st8" width="2" height="103.2"/>
	</g>
	<g>
		<polygon class="st8" points="318.2,226.2 296.8,204.8 249.2,204.8 249.2,202.8 297.6,202.8 319.6,224.8 		"/>
	</g>
	<g>
		<polygon class="st8" points="283.7,196.2 256.6,196.2 256.6,194.2 282.9,194.2 304.6,172.8 306,174.3 		"/>
	</g>
	<g>
		<polygon class="st8" points="218.9,172.1 216.9,172.1 216.9,124.4 202.9,110.7 204.3,109.3 218.9,123.5 		"/>
	</g>
	<g>
		<polygon class="st8" points="227.8,169.3 225.8,169.3 225.8,141.8 247.8,119.8 249.2,121.3 227.8,142.7 		"/>
	</g>
	<g>
		<polygon class="st8" points="245.8,179.9 243.8,179.9 243.8,156 288.2,111.4 288.2,99.5 290.2,99.5 290.2,112.3 245.8,156.8 		"/>
	</g>
	<g>
		<polygon class="st8" points="280.9,188 259,188 259,186 278.9,186 278.9,137.8 318.2,98.4 319.6,99.8 280.9,138.6 		"/>
	</g>
</g>
<g>
	<g>
		<g>
			<g>
				<rect x="195.5" y="159.5" class="st4" width="5.2" height="5.7"/>
				<rect x="197.4" y="159.5" class="st5" width="5.2" height="5.7"/>
			</g>
			<g>
				<rect x="204.4" y="159.5" class="st4" width="5.2" height="5.7"/>
				<rect x="206.3" y="159.5" class="st5" width="5.2" height="5.7"/>
			</g>
		</g>
		<g>
			<g>
				<rect x="213.4" y="159.5" class="st4" width="5.2" height="5.7"/>
				<rect x="215.3" y="159.5" class="st5" width="5.2" height="5.7"/>
			</g>
			<g>
				<rect x="222.3" y="159.5" class="st4" width="5.2" height="5.7"/>
				<rect x="224.2" y="159.5" class="st5" width="5.2" height="5.7"/>
			</g>
		</g>
		<g>
			<g>
				<rect x="231.1" y="159.5" class="st4" width="5.2" height="5.7"/>
				<rect x="233" y="159.5" class="st5" width="5.2" height="5.7"/>
			</g>
			<g>
				<rect x="240" y="159.5" class="st4" width="5.2" height="5.7"/>
				<rect x="241.9" y="159.5" class="st5" width="5.2" height="5.7"/>
			</g>
		</g>
	</g>
	<g>
		<g>
			<g>
				<rect x="195.5" y="233.3" class="st4" width="5.2" height="5.7"/>
				<rect x="197.4" y="233.3" class="st5" width="5.2" height="5.7"/>
			</g>
			<g>
				<rect x="204.4" y="233.3" class="st4" width="5.2" height="5.7"/>
				<rect x="206.3" y="233.3" class="st5" width="5.2" height="5.7"/>
			</g>
		</g>
		<g>
			<g>
				<rect x="213.4" y="233.3" class="st4" width="5.2" height="5.7"/>
				<rect x="215.3" y="233.3" class="st5" width="5.2" height="5.7"/>
			</g>
			<g>
				<rect x="222.3" y="233.3" class="st4" width="5.2" height="5.7"/>
				<rect x="224.2" y="233.3" class="st5" width="5.2" height="5.7"/>
			</g>
		</g>
		<g>
			<g>
				<rect x="231.1" y="233.3" class="st4" width="5.2" height="5.7"/>
				<rect x="233" y="233.3" class="st5" width="5.2" height="5.7"/>
			</g>
			<g>
				<rect x="240" y="233.3" class="st4" width="5.2" height="5.7"/>
				<rect x="241.9" y="233.3" class="st5" width="5.2" height="5.7"/>
			</g>
		</g>
	</g>
	<g>
		<g>
			<rect x="255.4" y="175.4" class="st5" width="5.2" height="5.7"/>
		</g>
		<g>
			<rect x="255.4" y="183.8" class="st5" width="5.2" height="5.7"/>
		</g>
		<g>
			<rect x="255.4" y="192.1" class="st5" width="5.2" height="5.7"/>
		</g>
		<g>
			<rect x="255.4" y="200.6" class="st5" width="5.2" height="5.7"/>
		</g>
		<g>
			<rect x="255.4" y="209.1" class="st5" width="5.2" height="5.7"/>
		</g>
		<g>
			<rect x="255.4" y="217.4" class="st5" width="5.2" height="5.7"/>
		</g>
	</g>
	<path class="st6" d="M243.1,233.3h-55.8c-3.4,0-6.2-2.8-6.2-6.2v-55.8c0-3.4,2.8-6.2,6.2-6.2h55.8c3.4,0,6.2,2.8,6.2,6.2v55.8
		C249.3,230.5,246.5,233.3,243.1,233.3z"/>
	<path class="st1" d="M249.8,233.3H194c-3.4,0-6.2-2.8-6.2-6.2v-55.8c0-3.4,2.8-6.2,6.2-6.2h55.8c3.4,0,6.2,2.8,6.2,6.2v55.8
		C255.9,230.5,253.2,233.3,249.8,233.3z"/>
	<path class="st4" d="M241.7,226.3h-41.5c-3.5,0-6.3-2.9-6.3-6.3v-41.5c0-3.5,2.9-6.3,6.3-6.3h41.5c3.5,0,6.3,2.9,6.3,6.3V220
		C248.1,223.5,245.2,226.3,241.7,226.3z"/>
	<path class="st5" d="M245.2,226.3h-41.5c-3.5,0-6.3-2.9-6.3-6.3v-41.5c0-3.5,2.9-6.3,6.3-6.3h41.5c3.5,0,6.3,2.9,6.3,6.3V220
		C251.6,223.5,248.7,226.3,245.2,226.3z"/>
	<g>
		<path class="st1" d="M212.4,189.8c1.8,0,3.4,0.9,4.3,1.9l-1.8,2c-0.7-0.7-1.4-1.1-2.5-1.1c-2.1,0-3.6,1.8-3.6,4.7
			c0,3,1.4,4.8,3.6,4.8c1.2,0,2.1-0.5,2.8-1.3l1.8,2c-1.2,1.4-2.8,2.2-4.7,2.2c-3.8,0-6.9-2.6-6.9-7.5
			C205.4,192.6,208.6,189.8,212.4,189.8z"/>
		<path class="st1" d="M219.1,190.1h5.4c3.2,0,5.7,1.2,5.7,4.7c0,3.4-2.6,5-5.7,5h-2v5h-3.3V190.1z M224.3,197.2
			c1.8,0,2.7-0.8,2.7-2.3c0-1.5-0.9-2.1-2.7-2.1h-1.8v4.4H224.3z"/>
		<path class="st1" d="M232.7,190.1h3.3v8.2c0,2.9,0.9,3.9,2.5,3.9c1.6,0,2.6-1,2.6-3.9v-8.2h3.2v7.9c0,4.9-2,7.1-5.8,7.1
			c-3.8,0-5.9-2.1-5.9-7.1V190.1z"/>
	</g>
	<g>
		<g>
			<rect x="178.6" y="175.4" class="st4" width="5.2" height="5.7"/>
			<rect x="180.5" y="175.4" class="st5" width="5.2" height="5.7"/>
		</g>
		<g>
			<rect x="178.6" y="183.8" class="st4" width="5.2" height="5.7"/>
			<rect x="180.5" y="183.8" class="st5" width="5.2" height="5.7"/>
		</g>
		<g>
			<rect x="178.6" y="192.1" class="st4" width="5.2" height="5.7"/>
			<rect x="180.5" y="192.1" class="st5" width="5.2" height="5.7"/>
		</g>
		<g>
			<rect x="178.6" y="200.6" class="st4" width="5.2" height="5.7"/>
			<rect x="180.5" y="200.6" class="st5" width="5.2" height="5.7"/>
		</g>
		<g>
			<rect x="178.6" y="209.1" class="st4" width="5.2" height="5.7"/>
			<rect x="180.5" y="209.1" class="st5" width="5.2" height="5.7"/>
		</g>
		<g>
			<rect x="178.6" y="217.4" class="st4" width="5.2" height="5.7"/>
			<rect x="180.5" y="217.4" class="st5" width="5.2" height="5.7"/>
		</g>
	</g>
</g>
</svg>
